{
classes = (
{
automatic = 1;
code = "A Aacute Abreve Acircumflex Adieresis Agrave Amacron Aogonek Aring Atilde AE B C Cacute Ccaron Ccedilla D Eth Dcaron Dcroat E Eacute Ecaron Ecircumflex Edieresis Edotaccent Egrave Emacron Eogonek F G Gbreve Gcommaaccent H I Iacute Icircumflex Idieresis Idotaccent Igrave Imacron Iogonek J K Kcommaaccent L Lacute Lcaron Lcommaaccent Lslash M N Nacute Ncaron Ncommaaccent Ntilde O Oacute Ocircumflex Odieresis Ograve Ohungarumlaut Omacron Oslash Otilde OE P Thorn Q R Racute Rcaron Rcommaaccent S Sacute Scaron Scedilla Scommaaccent T Tcaron U Uacute Ucircumflex Udieresis Ugrave Uhungarumlaut Umacron Uogonek Uring V W X Y Yacute Ydieresis Z Zacute Zcaron Zdotaccent uni0162 uni021A A-cy Be-cy Ve-cy Ge-cy Gje-cy Gheupturn-cy De-cy Ie-cy Iegrave-cy Io-cy Zhe-cy Ze-cy Ii-cy Iishort-cy Igrave-cy Ka-cy Kje-cy El-cy Em-cy En-cy O-cy Pe-cy Er-cy Es-cy Te-cy U-cy Ushort-cy Ef-cy Ha-cy Che-cy Tse-cy Sha-cy Shcha-cy Dzhe-cy Ia-cy Softsign-cy Hardsign-cy Yeru-cy Lje-cy Nje-cy Dze-cy E-cy Ereversed-cy I-cy Yi-cy Je-cy Tshe-cy Iu-cy Dje-cy Ustraitstroke-cy Gamma Delta Pi Omega";
name = Uppercase;
}
);
copyright = "Copyright \U00A9 2013 by Olga Karpushina, Alexei Vanyashin. All rights reserved.";
customParameters = (
{
name = trademark;
value = "Lora is a trademark of Cyreal (www.cyreal.org).";
},
{
name = description;
value = "Lora is designed by Olga Karpushina, and Alexei Vanyashin for Cyreal.\012\012This Font Software is licensed under the SIL Open Font License, Version 1.1. \012";
},
{
name = license;
value = "Copyright (c) 2011, Cyreal (www.cyreal.org)\012with Reserved Font Name \"Lora\"\012\012This Font Software is licensed under the SIL Open Font License,\012Version 1.1. This license is available with a FAQ at:\012http://scripts.sil.org/OFL";
},
{
name = licenseURL;
value = "http://scripts.sil.org/OFL";
},
{
name = fsType;
value = (
);
}
);
date = "2013-06-19 12:54:04 +0000";
designer = "Olga Karpushina, Alexei Vanyashin";

glyphs = (
{
color = 4;
glyphname = A;
lastChange = "2013-05-24 22:53:37 +0400";
layers = (
{
anchors = (
{
name = ogonek;
position = "{1154, -1}";
},
{
name = top;
position = "{641, 1434}";
}
);
layerId = UUID0;
name = Regular;
paths = (
{
closed = 1;
nodes = (
"608 1473 LINE",
"186 324 LINE SMOOTH",
"130 172 OFFCURVE",
"111 68 OFFCURVE",
"-12 68 CURVE",
"-12 0 LINE",
"371 0 LINE",
"371 90 LINE",
"211 82 LINE",
"230 127 OFFCURVE",
"242 158 OFFCURVE",
"262 223 CURVE SMOOTH",
"282 290 OFFCURVE",
"304 358 OFFCURVE",
"333 442 CURVE",
"866 454 LINE",
"938 262 LINE SMOOTH",
"967 186 OFFCURVE",
"991 72 OFFCURVE",
"838 68 CURVE",
"838 0 LINE",
"1307 0 LINE",
"1307 90 LINE",
"1167 82 LINE",
"1171 143 OFFCURVE",
"1137 250 OFFCURVE",
"1114 307 CURVE SMOOTH",
"657 1473 LINE"
);
},
{
closed = 1;
nodes = (
"692 922 LINE",
"838 530 LINE",
"364 530 LINE",
"401 635 OFFCURVE",
"447 766 OFFCURVE",
"510 942 CURVE SMOOTH",
"596 1174 LINE",
"600 1174 LINE"
);
}
);
width = 1282;
},
{
anchors = (
{
name = ogonek;
position = "{1231, 1}";
},
{
name = top;
position = "{684, 1434}";
}
);
layerId = "4C2B4986-1645-43C1-94B7-5E4C57EFF0D9";
name = Bold;
paths = (
{
closed = 1;
nodes = (
"605 1470 LINE",
"205 375 LINE SMOOTH",
"160 252 OFFCURVE",
"122 141 OFFCURVE",
"8 141 CURVE",
"8 0 LINE",
"447 0 LINE",
"447 164 LINE",
"418 163 OFFCURVE",
"345 161 OFFCURVE",
"301 158 CURVE",
"323 205 OFFCURVE",
"353 287 OFFCURVE",
"366 324 CURVE SMOOTH",
"399 420 LINE",
"844 428 LINE",
"885 316 LINE SMOOTH",
"923 212 OFFCURVE",
"922 135 OFFCURVE",
"808 135 CURVE",
"808 0 LINE",
"1360 0 LINE",
"1360 158 LINE",
"1331 157 OFFCURVE",
"1286 155 OFFCURVE",
"1242 152 CURVE",
"1235 213 OFFCURVE",
"1200 313 OFFCURVE",
"1184 354 CURVE SMOOTH",
"747 1470 LINE"
);
},
{
closed = 1;
nodes = (
"633 1034 OFFCURVE",
"663 928 OFFCURVE",
"699 830 CURVE SMOOTH",
"792 573 LINE",
"451 573 LINE",
"543 839 LINE SMOOTH",
"587 967 OFFCURVE",
"609 1062 OFFCURVE",
"618 1109 CURVE",
"620 1109 LINE"
);
}
);
width = 1368;
}
);
leftKerningGroup = A;
rightKerningGroup = A;
unicode = 0041;
},
{
color = 4;
glyphname = AE;
lastChange = "2013-05-24 22:53:37 +0400";
layers = (
{
layerId = UUID0;
name = Regular;
paths = (
{
closed = 1;
nodes = (
"742 1434 LINE",
"742 1343 LINE",
"926 1352 LINE",
"926 1351 LINE",
"187 256 LINE SMOOTH",
"132 174 OFFCURVE",
"66 68 OFFCURVE",
"-43 68 CURVE",
"-43 0 LINE",
"340 0 LINE",
"340 90 LINE",
"184 82 LINE",
"425 442 LINE",
"924 453 LINE",
"924 266 LINE SMOOTH",
"924 141 OFFCURVE",
"906 82 OFFCURVE",
"799 74 CURVE",
"783 74 LINE",
"783 0 LINE",
"1840 0 LINE",
"1852 399 LINE",
"1782 399 LINE",
"1782 161 OFFCURVE",
"1673 73 OFFCURVE",
"1499 76 CURVE SMOOTH",
"1096 82 LINE",
"1100 117 OFFCURVE",
"1102 168 OFFCURVE",
"1102 242 CURVE SMOOTH",
"1102 703 LINE",
"1256 711 LINE",
"1426 711 OFFCURVE",
"1496 710 OFFCURVE",
"1496 530 CURVE",
"1563 530 LINE",
"1563 977 LINE",
"1496 977 LINE",
"1496 797 OFFCURVE",
"1426 784 OFFCURVE",
"1254 784 CURVE SMOOTH",
"1102 784 LINE",
"1102 1114 LINE SMOOTH",
"1102 1280 OFFCURVE",
"1104 1354 OFFCURVE",
"1258 1358 CURVE SMOOTH",
"1434 1362 LINE SMOOTH",
"1588 1366 OFFCURVE",
"1711 1317 OFFCURVE",
"1711 1075 CURVE",
"1778 1075 LINE",
"1768 1434 LINE"
);
},
{
closed = 1;
nodes = (
"924 530 LINE",
"483 530 LINE",
"924 1191 LINE"
);
}
);
width = 1944;
},
{
layerId = "4C2B4986-1645-43C1-94B7-5E4C57EFF0D9";
name = Bold;
paths = (
{
closed = 1;
nodes = (
"739 1434 LINE",
"739 1276 LINE",
"768 1277 OFFCURVE",
"849 1279 OFFCURVE",
"893 1282 CURVE",
"893 1281 OFFCURVE",
"892 1280 OFFCURVE",
"892 1279 CURVE",
"232 350 LINE SMOOTH",
"163 253 OFFCURVE",
"84 135 OFFCURVE",
"-12 135 CURVE",
"-12 0 LINE",
"446 0 LINE",
"446 158 LINE",
"282 151 LINE",
"282 153 LINE",
"326 186 OFFCURVE",
"368 245 OFFCURVE",
"412 309 CURVE SMOOTH",
"484 414 LINE",
"614 416 OFFCURVE",
"757 421 OFFCURVE",
"885 424 CURVE",
"885 313 LINE SMOOTH",
"885 148 OFFCURVE",
"831 140 OFFCURVE",
"739 135 CURVE",
"739 0 LINE",
"1820 0 LINE",
"1832 451 LINE",
"1697 451 LINE",
"1697 229 OFFCURVE",
"1569 156 OFFCURVE",
"1448 156 CURVE SMOOTH",
"1173 155 LINE",
"1178 190 OFFCURVE",
"1181 262 OFFCURVE",
"1181 336 CURVE SMOOTH",
"1181 672 LINE",
"1235 673 LINE SMOOTH",
"1346 676 OFFCURVE",
"1436 665 OFFCURVE",
"1436 493 CURVE",
"1571 493 LINE",
"1571 991 LINE",
"1413 991 LINE",
"1416 941 OFFCURVE",
"1418 870 OFFCURVE",
"1422 814 CURVE",
"1181 814 LINE",
"1181 1121 LINE SMOOTH",
"1181 1280 OFFCURVE",
"1232 1297 OFFCURVE",
"1318 1299 CURVE SMOOTH",
"1392 1301 LINE SMOOTH",
"1503 1304 OFFCURVE",
"1641 1259 OFFCURVE",
"1641 1037 CURVE",
"1776 1037 LINE",
"1764 1434 LINE"
);
},
{
closed = 1;
nodes = (
"888 926 OFFCURVE",
"885 828 OFFCURVE",
"885 742 CURVE SMOOTH",
"885 565 LINE",
"583 565 LINE",
"749 803 LINE SMOOTH",
"797 872 OFFCURVE",
"847 948 OFFCURVE",
"897 1025 CURVE"
);
}
);
width = 1915;
}
);
rightKerningGroup = E;
unicode = 00C6;
},
{
color = 4;
glyphname = B;
lastChange = "2013-05-24 22:53:37 +0400";
layers = (
{
layerId = UUID0;
name = Regular;
paths = (
{
closed = 1;
nodes = (
"412 1438 OFFCURVE",
"263 1436 OFFCURVE",
"113 1434 CURVE",
"113 1343 LINE",
"261 1352 LINE",
"256 1317 OFFCURVE",
"254 1264 OFFCURVE",
"254 1190 CURVE SMOOTH",
"254 330 LINE SMOOTH",
"254 176 OFFCURVE",
"267 72 OFFCURVE",
"113 68 CURVE",
"113 0 LINE",
"711 0 LINE SMOOTH",
"988 0 OFFCURVE",
"1194 150 OFFCURVE",
"1194 401 CURVE SMOOTH",
"1194 612 OFFCURVE",
"1041 766 OFFCURVE",
"740 766 CURVE",
"740 770 LINE",
"965 811 OFFCURVE",
"1076 954 OFFCURVE",
"1078 1087 CURVE SMOOTH",
"1082 1329 OFFCURVE",
"893 1438 OFFCURVE",
"576 1438 CURVE SMOOTH"
);
},
{
closed = 1;
nodes = (
"830 711 OFFCURVE",
"996 639 OFFCURVE",
"996 389 CURVE SMOOTH",
"996 184 OFFCURVE",
"854 78 OFFCURVE",
"643 78 CURVE SMOOTH",
"617 78 OFFCURVE",
"490 76 OFFCURVE",
"426 82 CURVE",
"431 117 OFFCURVE",
"433 168 OFFCURVE",
"433 242 CURVE SMOOTH",
"433 705 LINE",
"498 709 OFFCURVE",
"562 711 OFFCURVE",
"643 711 CURVE SMOOTH"
);
},
{
closed = 1;
nodes = (
"721 1364 OFFCURVE",
"887 1319 OFFCURVE",
"891 1098 CURVE SMOOTH",
"893 946 OFFCURVE",
"816 793 OFFCURVE",
"582 788 CURVE SMOOTH",
"433 784 LINE",
"433 1165 LINE SMOOTH",
"433 1315 OFFCURVE",
"453 1364 OFFCURVE",
"586 1364 CURVE SMOOTH"
);
}
);
width = 1274;
},
{
layerId = "4C2B4986-1645-43C1-94B7-5E4C57EFF0D9";
name = Bold;
paths = (
{
closed = 1;
nodes = (
"102 1434 LINE",
"102 1276 LINE",
"131 1277 OFFCURVE",
"212 1279 OFFCURVE",
"256 1282 CURVE",
"251 1247 OFFCURVE",
"248 1172 OFFCURVE",
"248 1098 CURVE SMOOTH",
"248 313 LINE SMOOTH",
"248 148 OFFCURVE",
"194 140 OFFCURVE",
"102 135 CURVE",
"102 0 LINE",
"799 0 LINE SMOOTH",
"1086 0 OFFCURVE",
"1297 141 OFFCURVE",
"1297 407 CURVE SMOOTH",
"1297 577 OFFCURVE",
"1171 732 OFFCURVE",
"900 774 CURVE",
"900 776 LINE",
"1091 828 OFFCURVE",
"1186 946 OFFCURVE",
"1193 1064 CURVE SMOOTH",
"1207 1315 OFFCURVE",
"997 1440 OFFCURVE",
"670 1438 CURVE SMOOTH"
);
},
{
closed = 1;
nodes = (
"842 661 OFFCURVE",
"974 602 OFFCURVE",
"974 414 CURVE SMOOTH",
"974 262 OFFCURVE",
"902 156 OFFCURVE",
"736 148 CURVE SMOOTH",
"672 145 OFFCURVE",
"608 145 OFFCURVE",
"536 145 CURVE",
"541 180 OFFCURVE",
"544 252 OFFCURVE",
"544 326 CURVE SMOOTH",
"544 659 LINE",
"597 662 OFFCURVE",
"642 661 OFFCURVE",
"710 661 CURVE SMOOTH"
);
},
{
closed = 1;
nodes = (
"768 1297 OFFCURVE",
"881 1244 OFFCURVE",
"881 1082 CURVE SMOOTH",
"881 932 OFFCURVE",
"824 810 OFFCURVE",
"651 807 CURVE SMOOTH",
"544 804 LINE",
"544 1122 LINE SMOOTH",
"544 1279 OFFCURVE",
"597 1292 OFFCURVE",
"664 1294 CURVE SMOOTH"
);
}
);
width = 1354;
}
);
leftKerningGroup = I;
unicode = 0042;
},
{
color = 4;
glyphname = C;
lastChange = "2013-05-24 22:53:36 +0400";
layers = (
{
anchors = (
{
name = bottom;
position = "{849, 0}";
},
{
name = top;
position = "{797, 1434}";
}
);
layerId = UUID0;
name = Regular;
paths = (
{
closed = 1;
nodes = (
"328 1467 OFFCURVE",
"94 1079 OFFCURVE",
"94 694 CURVE SMOOTH",
"94 287 OFFCURVE",
"379 -33 OFFCURVE",
"790 -33 CURVE SMOOTH",
"958 -33 OFFCURVE",
"1194 23 OFFCURVE",
"1370 266 CURVE",
"1317 309 LINE",
"1206 156 OFFCURVE",
"1022 74 OFFCURVE",
"844 74 CURVE SMOOTH",
"541 74 OFFCURVE",
"295 338 OFFCURVE",
"295 725 CURVE SMOOTH",
"295 1126 OFFCURVE",
"528 1383 OFFCURVE",
"819 1383 CURVE SMOOTH",
"1057 1383 OFFCURVE",
"1216 1233 OFFCURVE",
"1245 977 CURVE",
"1319 977 LINE",
"1319 1452 LINE",
"1208 1452 LINE",
"1218 1342 LINE",
"1092 1426 OFFCURVE",
"959 1467 OFFCURVE",
"805 1467 CURVE SMOOTH"
);
}
);
width = 1432;
},
{
anchors = (
{
name = bottom;
position = "{844, 0}";
},
{
name = top;
position = "{825, 1434}";
}
);
layerId = "4C2B4986-1645-43C1-94B7-5E4C57EFF0D9";
name = Bold;
paths = (
{
closed = 1;
nodes = (
"311 1467 OFFCURVE",
"72 1069 OFFCURVE",
"72 696 CURVE SMOOTH",
"72 289 OFFCURVE",
"352 -33 OFFCURVE",
"774 -33 CURVE SMOOTH",
"943 -33 OFFCURVE",
"1190 18 OFFCURVE",
"1390 295 CURVE",
"1292 385 LINE",
"1178 227 OFFCURVE",
"995 133 OFFCURVE",
"824 133 CURVE SMOOTH",
"548 133 OFFCURVE",
"394 384 OFFCURVE",
"394 738 CURVE SMOOTH",
"394 1033 OFFCURVE",
"529 1319 OFFCURVE",
"815 1318 CURVE SMOOTH",
"1006 1317 OFFCURVE",
"1122 1203 OFFCURVE",
"1159 974 CURVE",
"1293 974 LINE",
"1293 1453 LINE",
"1135 1453 LINE",
"1142 1366 LINE",
"1140 1366 LINE",
"1031 1432 OFFCURVE",
"895 1467 OFFCURVE",
"788 1467 CURVE SMOOTH"
);
}
);
width = 1410;
}
);
leftKerningGroup = O;
rightKerningGroup = C;
unicode = 0043;
},
{
color = 4;
glyphname = Ccedilla;
lastChange = "2013-05-24 22:53:36 +0400";
layers = (
{
components = (
{
name = C;
transform = "{1, 0, 0, 1, 0, 0}";
},
{
name = Cedilla;
transform = "{1, 0, 0, 1, 527, 0}";
}
);
layerId = UUID0;
name = Regular;
width = 1432;
},
{
layerId = "4C2B4986-1645-43C1-94B7-5E4C57EFF0D9";
name = Bold;
paths = (
{
closed = 1;
nodes = (
"312 1467 OFFCURVE",
"73 1069 OFFCURVE",
"73 696 CURVE SMOOTH",
"73 347 OFFCURVE",
"278 60 OFFCURVE",
"603 -14 CURVE",
"548 -247 LINE",
"633 -279 LINE",
"673 -246 OFFCURVE",
"771 -223 OFFCURVE",
"771 -299 CURVE SMOOTH",
"771 -383 OFFCURVE",
"591 -439 OFFCURVE",
"526 -451 CURVE",
"542 -563 LINE",
"700 -541 OFFCURVE",
"1013 -448 OFFCURVE",
"1013 -257 CURVE SMOOTH",
"1013 -159 OFFCURVE",
"943 -108 OFFCURVE",
"858 -106 CURVE SMOOTH",
"821 -105 OFFCURVE",
"752 -120 OFFCURVE",
"718 -138 CURVE",
"716 -138 LINE",
"756 -32 LINE",
"762 -32 OFFCURVE",
"768 -33 OFFCURVE",
"775 -33 CURVE SMOOTH",
"944 -33 OFFCURVE",
"1191 18 OFFCURVE",
"1391 295 CURVE",
"1293 385 LINE",
"1179 227 OFFCURVE",
"996 133 OFFCURVE",
"825 133 CURVE SMOOTH",
"549 133 OFFCURVE",
"395 384 OFFCURVE",
"395 738 CURVE SMOOTH",
"395 1033 OFFCURVE",
"530 1319 OFFCURVE",
"816 1318 CURVE SMOOTH",
"1007 1317 OFFCURVE",
"1123 1203 OFFCURVE",
"1160 974 CURVE",
"1294 974 LINE",
"1294 1453 LINE",
"1136 1453 LINE",
"1143 1366 LINE",
"1141 1366 LINE",
"1032 1432 OFFCURVE",
"896 1467 OFFCURVE",
"789 1467 CURVE SMOOTH"
);
}
);
width = 1415;
}
);
leftKerningGroup = O;
rightKerningGroup = C;
unicode = 00C7;
},
{
color = 4;
glyphname = D;
lastChange = "2013-05-24 22:53:37 +0400";
layers = (
{
anchors = (
{
name = center;
position = "{763, 717}";
},
{
name = top;
position = "{709, 1434}";
}
);
layerId = UUID0;
name = Regular;
paths = (
{
closed = 1;
nodes = (
"113 1434 LINE",
"113 1343 LINE",
"261 1352 LINE",
"256 1311 OFFCURVE",
"254 1260 OFFCURVE",
"254 1204 CURVE SMOOTH",
"254 319 LINE SMOOTH",
"254 174 OFFCURVE",
"267 74 OFFCURVE",
"113 68 CURVE",
"113 0 LINE",
"652 0 LINE SMOOTH",
"1166 0 OFFCURVE",
"1432 338 OFFCURVE",
"1432 715 CURVE SMOOTH",
"1432 1208 OFFCURVE",
"1090 1438 OFFCURVE",
"596 1436 CURVE SMOOTH"
);
},
{
closed = 1;
nodes = (
"1024 1360 OFFCURVE",
"1231 1110 OFFCURVE",
"1231 723 CURVE SMOOTH",
"1231 356 OFFCURVE",
"998 78 OFFCURVE",
"646 78 CURVE SMOOTH",
"629 78 OFFCURVE",
"535 76 OFFCURVE",
"426 82 CURVE",
"431 117 OFFCURVE",
"433 168 OFFCURVE",
"433 242 CURVE SMOOTH",
"433 1114 LINE SMOOTH",
"433 1260 OFFCURVE",
"420 1360 OFFCURVE",
"574 1360 CURVE SMOOTH"
);
}
);
width = 1526;
},
{
anchors = (
{
name = center;
position = "{778, 717}";
},
{
name = top;
position = "{737, 1434}";
}
);
layerId = "4C2B4986-1645-43C1-94B7-5E4C57EFF0D9";
name = Bold;
paths = (
{
closed = 1;
nodes = (
"102 1434 LINE",
"102 1276 LINE",
"131 1277 OFFCURVE",
"212 1279 OFFCURVE",
"256 1282 CURVE",
"251 1247 OFFCURVE",
"248 1172 OFFCURVE",
"248 1098 CURVE SMOOTH",
"248 313 LINE SMOOTH",
"248 148 OFFCURVE",
"194 140 OFFCURVE",
"102 135 CURVE",
"102 0 LINE",
"689 0 LINE SMOOTH",
"1262 0 OFFCURVE",
"1482 398 OFFCURVE",
"1482 731 CURVE SMOOTH",
"1482 1072 OFFCURVE",
"1239 1438 OFFCURVE",
"699 1436 CURVE SMOOTH"
);
},
{
closed = 1;
nodes = (
"979 1291 OFFCURVE",
"1159 1106 OFFCURVE",
"1159 688 CURVE SMOOTH",
"1159 415 OFFCURVE",
"1030 150 OFFCURVE",
"732 150 CURVE SMOOTH",
"683 150 OFFCURVE",
"576 155 OFFCURVE",
"536 152 CURVE",
"541 187 OFFCURVE",
"544 262 OFFCURVE",
"544 336 CURVE SMOOTH",
"544 1125 LINE SMOOTH",
"544 1282 OFFCURVE",
"594 1302 OFFCURVE",
"695 1299 CURVE SMOOTH"
);
}
);
width = 1555;
}
);
leftKerningGroup = I;
rightKerningGroup = D;
unicode = 0044;
},
{
color = 5;
glyphname = Eth;
lastChange = "2014-06-18 13:47:16 +0400";
layers = (
{
background = {
anchors = (
{
name = center;
position = "{799, 717}";
},
{
name = top;
position = "{799, 1434}";
}
);
paths = (
{
closed = 1;
nodes = (
"624 1434 LINE",
"624 1343 LINE",
"772 1352 LINE",
"768 1311 OFFCURVE",
"766 1260 OFFCURVE",
"766 1204 CURVE SMOOTH",
"766 774 LINE",
"33 774 LINE",
"33 1114 LINE SMOOTH",
"33 1260 OFFCURVE",
"20 1360 OFFCURVE",
"174 1366 CURVE",
"174 1434 LINE",
"-287 1434 LINE",
"-287 1343 LINE",
"-139 1352 LINE",
"-144 1311 OFFCURVE",
"-146 1260 OFFCURVE",
"-146 1204 CURVE SMOOTH",
"-146 319 LINE SMOOTH",
"-146 174 OFFCURVE",
"-133 74 OFFCURVE",
"-287 68 CURVE",
"-287 0 LINE",
"174 0 LINE",
"174 90 LINE",
"26 82 LINE",
"31 117 OFFCURVE",
"33 170 OFFCURVE",
"33 244 CURVE SMOOTH",
"33 684 LINE",
"766 693 LINE",
"766 319 LINE SMOOTH",
"766 174 OFFCURVE",
"778 74 OFFCURVE",
"624 68 CURVE",
"624 0 LINE",
"1085 0 LINE",
"1085 90 LINE",
"938 82 LINE",
"942 117 OFFCURVE",
"944 170 OFFCURVE",
"944 244 CURVE SMOOTH",
"944 1114 LINE SMOOTH",
"944 1260 OFFCURVE",
"932 1360 OFFCURVE",
"1085 1366 CURVE",
"1085 1434 LINE"
);
}
);
};
components = (
{
name = D;
transform = "{1, 0, 0, 1, 2, 0}";
}
);
layerId = UUID0;
name = Regular;
paths = (
{
closed = 1;
nodes = (
"39 772 LINE",
"39 686 LINE",
"804 686 LINE",
"804 772 LINE"
);
}
);
width = 1528;
},
{
background = {
anchors = (
{
name = center;
position = "{826, 717}";
},
{
name = top;
position = "{826, 1434}";
}
);
paths = (
{
closed = 1;
nodes = (
"562 1434 LINE",
"562 1276 LINE",
"591 1277 OFFCURVE",
"672 1279 OFFCURVE",
"716 1282 CURVE",
"711 1247 OFFCURVE",
"708 1172 OFFCURVE",
"708 1098 CURVE SMOOTH",
"708 800 LINE",
"144 800 LINE",
"144 1121 LINE SMOOTH",
"144 1286 OFFCURVE",
"198 1294 OFFCURVE",
"290 1299 CURVE",
"290 1434 LINE",
"-298 1434 LINE",
"-298 1276 LINE",
"-269 1277 OFFCURVE",
"-188 1279 OFFCURVE",
"-144 1282 CURVE",
"-149 1247 OFFCURVE",
"-152 1172 OFFCURVE",
"-152 1098 CURVE SMOOTH",
"-152 313 LINE SMOOTH",
"-152 148 OFFCURVE",
"-206 140 OFFCURVE",
"-298 135 CURVE",
"-298 0 LINE",
"290 0 LINE",
"290 158 LINE",
"261 157 OFFCURVE",
"180 155 OFFCURVE",
"136 152 CURVE",
"141 187 OFFCURVE",
"144 262 OFFCURVE",
"144 336 CURVE SMOOTH",
"144 638 LINE",
"708 645 LINE",
"708 313 LINE SMOOTH",
"708 148 OFFCURVE",
"654 140 OFFCURVE",
"562 135 CURVE",
"562 0 LINE",
"1150 0 LINE",
"1150 158 LINE",
"1121 157 OFFCURVE",
"1040 155 OFFCURVE",
"996 152 CURVE",
"1001 187 OFFCURVE",
"1004 262 OFFCURVE",
"1004 336 CURVE SMOOTH",
"1004 1121 LINE SMOOTH",
"1004 1286 OFFCURVE",
"1058 1294 OFFCURVE",
"1150 1299 CURVE",
"1150 1434 LINE"
);
}
);
};
layerId = "4C2B4986-1645-43C1-94B7-5E4C57EFF0D9";
name = Bold;
paths = (
{
closed = 1;
nodes = (
"102 1435 LINE",
"102 1277 LINE",
"131 1278 OFFCURVE",
"212 1280 OFFCURVE",
"256 1283 CURVE",
"251 1248 OFFCURVE",
"248 1173 OFFCURVE",
"248 1099 CURVE SMOOTH",
"248 801 LINE",
"61 801 LINE",
"61 638 LINE",
"248 640 LINE",
"248 314 LINE SMOOTH",
"248 149 OFFCURVE",
"194 141 OFFCURVE",
"102 136 CURVE",
"102 1 LINE",
"689 1 LINE SMOOTH",
"1262 1 OFFCURVE",
"1482 399 OFFCURVE",
"1482 732 CURVE SMOOTH",
"1482 1073 OFFCURVE",
"1239 1439 OFFCURVE",
"699 1437 CURVE SMOOTH"
);
},
{
closed = 1;
nodes = (
"979 1292 OFFCURVE",
"1159 1107 OFFCURVE",
"1159 689 CURVE SMOOTH",
"1159 416 OFFCURVE",
"1030 151 OFFCURVE",
"732 151 CURVE SMOOTH",
"683 151 OFFCURVE",
"576 156 OFFCURVE",
"536 153 CURVE",
"541 188 OFFCURVE",
"544 263 OFFCURVE",
"544 337 CURVE SMOOTH",
"544 644 LINE",
"862 647 LINE",
"862 801 LINE",
"544 801 LINE",
"544 1126 LINE SMOOTH",
"544 1283 OFFCURVE",
"594 1303 OFFCURVE",
"695 1300 CURVE SMOOTH"
);
}
);
width = 1555;
}
);
leftKerningGroup = I;
rightKerningGroup = D;
unicode = 00D0;
},
{
color = 4;
glyphname = Dcroat;
lastChange = "2013-05-24 23:17:31 +0400";
layers = (
{
components = (
{
name = Eth;
transform = "{1, 0, 0, 1, 0, 0}";
}
);
layerId = UUID0;
name = Regular;
width = 1528;
},
{
background = {
paths = (
{
closed = 1;
nodes = (
"974 1121 LINE",
"974 1286 OFFCURVE",
"1028 1294 OFFCURVE",
"1120 1299 CURVE",
"1120 1434 LINE",
"532 1434 LINE",
"532 1276 LINE",
"561 1277 OFFCURVE",
"642 1279 OFFCURVE",
"686 1282 CURVE",
"681 1247 OFFCURVE",
"678 1172 OFFCURVE",
"678 1098 CURVE SMOOTH",
"678 800 LINE",
"114 800 LINE",
"114 1121 LINE SMOOTH",
"114 1286 OFFCURVE",
"168 1294 OFFCURVE",
"260 1299 CURVE",
"260 1434 LINE",
"-328 1434 LINE",
"-328 1276 LINE",
"-299 1277 OFFCURVE",
"-218 1279 OFFCURVE",
"-174 1282 CURVE",
"-179 1247 OFFCURVE",
"-182 1172 OFFCURVE",
"-182 1098 CURVE SMOOTH",
"-182 313 LINE SMOOTH",
"-182 148 OFFCURVE",
"-236 140 OFFCURVE",
"-328 135 CURVE",
"-328 0 LINE",
"260 0 LINE",
"260 158 LINE",
"231 157 OFFCURVE",
"150 155 OFFCURVE",
"106 152 CURVE",
"111 187 OFFCURVE",
"114 262 OFFCURVE",
"114 336 CURVE SMOOTH",
"114 638 LINE",
"678 645 LINE",
"678 313 LINE SMOOTH",
"678 148 OFFCURVE",
"624 140 OFFCURVE",
"532 135 CURVE",
"532 0 LINE",
"1120 0 LINE",
"1120 158 LINE",
"1091 157 OFFCURVE",
"1010 155 OFFCURVE",
"966 152 CURVE",
"971 187 OFFCURVE",
"974 262 OFFCURVE",
"974 336 CURVE SMOOTH"
);
}
);
};
components = (
{
name = Eth;
transform = "{1, 0, 0, 1, 0, 0}";
}
);
layerId = "4C2B4986-1645-43C1-94B7-5E4C57EFF0D9";
name = Bold;
width = 1555;
}
);
unicode = 0110;
userData = {
public.markColor = "0.75,0.75,0.75,1";
};
},
{
color = 4;
glyphname = E;
lastChange = "2013-05-24 22:53:36 +0400";
layers = (
{
anchors = (
{
name = bottom;
position = "{761, 0}";
},
{
name = ogonek;
position = "{1147, 10}";
},
{
name = top;
position = "{670, 1434}";
}
);
layerId = UUID0;
name = Regular;
paths = (
{
closed = 1;
nodes = (
"113 1434 LINE",
"113 1343 LINE",
"261 1352 LINE",
"256 1311 OFFCURVE",
"254 1260 OFFCURVE",
"254 1204 CURVE SMOOTH",
"254 319 LINE SMOOTH",
"254 174 OFFCURVE",
"267 74 OFFCURVE",
"113 68 CURVE",
"113 0 LINE",
"1170 0 LINE",
"1182 399 LINE",
"1112 399 LINE",
"1112 156 OFFCURVE",
"996 84 OFFCURVE",
"818 82 CURVE SMOOTH",
"426 76 LINE",
"431 111 OFFCURVE",
"433 162 OFFCURVE",
"433 236 CURVE SMOOTH",
"433 705 LINE",
"582 711 LINE SMOOTH",
"756 717 OFFCURVE",
"826 711 OFFCURVE",
"826 530 CURVE",
"893 530 LINE",
"893 961 LINE",
"802 961 LINE",
"817 784 LINE",
"433 786 LINE",
"433 1114 LINE SMOOTH",
"433 1280 OFFCURVE",
"435 1354 OFFCURVE",
"588 1358 CURVE SMOOTH",
"764 1362 LINE SMOOTH",
"918 1366 OFFCURVE",
"1041 1317 OFFCURVE",
"1041 1075 CURVE",
"1108 1075 LINE",
"1098 1434 LINE"
);
}
);
width = 1274;
},
{
anchors = (
{
name = bottom;
position = "{785, 0}";
},
{
name = ogonek;
position = "{1150, 10}";
},
{
name = top;
position = "{663, 1434}";
}
);
layerId = "4C2B4986-1645-43C1-94B7-5E4C57EFF0D9";
name = Bold;
paths = (
{
closed = 1;
nodes = (
"102 1434 LINE",
"102 1276 LINE",
"131 1277 OFFCURVE",
"212 1279 OFFCURVE",
"256 1282 CURVE",
"251 1247 OFFCURVE",
"248 1172 OFFCURVE",
"248 1098 CURVE SMOOTH",
"248 313 LINE SMOOTH",
"248 148 OFFCURVE",
"194 140 OFFCURVE",
"102 135 CURVE",
"102 0 LINE",
"1183 0 LINE",
"1195 451 LINE",
"1060 451 LINE",
"1060 229 OFFCURVE",
"932 156 OFFCURVE",
"811 156 CURVE SMOOTH",
"536 155 LINE",
"541 190 OFFCURVE",
"544 262 OFFCURVE",
"544 336 CURVE SMOOTH",
"544 672 LINE",
"598 673 LINE SMOOTH",
"709 676 OFFCURVE",
"799 665 OFFCURVE",
"799 493 CURVE",
"934 493 LINE",
"934 991 LINE",
"776 991 LINE",
"779 941 OFFCURVE",
"781 870 OFFCURVE",
"785 814 CURVE",
"544 814 LINE",
"544 1121 LINE SMOOTH",
"544 1280 OFFCURVE",
"595 1297 OFFCURVE",
"681 1299 CURVE SMOOTH",
"755 1301 LINE SMOOTH",
"866 1304 OFFCURVE",
"1004 1259 OFFCURVE",
"1004 1037 CURVE",
"1139 1037 LINE",
"1127 1434 LINE"
);
}
);
width = 1278;
}
);
leftKerningGroup = I;
rightKerningGroup = E;
unicode = 0045;
},
{
color = 4;
glyphname = F;
lastChange = "2013-05-24 22:53:36 +0400";
layers = (
{
layerId = UUID0;
name = Regular;
paths = (
{
closed = 1;
nodes = (
"113 1434 LINE",
"113 1343 LINE",
"261 1352 LINE",
"256 1311 OFFCURVE",
"254 1260 OFFCURVE",
"254 1204 CURVE SMOOTH",
"254 319 LINE SMOOTH",
"254 174 OFFCURVE",
"267 74 OFFCURVE",
"113 68 CURVE",
"113 0 LINE",
"635 0 LINE",
"635 90 LINE",
"426 82 LINE",
"431 117 OFFCURVE",
"433 170 OFFCURVE",
"433 244 CURVE SMOOTH",
"433 673 LINE",
"554 679 LINE SMOOTH",
"728 688 OFFCURVE",
"798 679 OFFCURVE",
"798 498 CURVE",
"865 498 LINE",
"865 929 LINE",
"774 929 LINE",
"789 752 LINE",
"433 754 LINE",
"433 1106 LINE SMOOTH",
"433 1247 OFFCURVE",
"421 1354 OFFCURVE",
"574 1358 CURVE SMOOTH",
"723 1362 LINE SMOOTH",
"877 1366 OFFCURVE",
"1006 1317 OFFCURVE",
"1006 1075 CURVE",
"1074 1075 LINE",
"1063 1434 LINE"
);
}
);
width = 1122;
},
{
layerId = "4C2B4986-1645-43C1-94B7-5E4C57EFF0D9";
name = Bold;
paths = (
{
closed = 1;
nodes = (
"102 1434 LINE",
"102 1276 LINE",
"131 1277 OFFCURVE",
"212 1279 OFFCURVE",
"256 1282 CURVE",
"251 1247 OFFCURVE",
"248 1172 OFFCURVE",
"248 1098 CURVE SMOOTH",
"248 313 LINE SMOOTH",
"248 148 OFFCURVE",
"194 140 OFFCURVE",
"102 135 CURVE",
"102 0 LINE",
"718 0 LINE",
"718 158 LINE",
"689 157 OFFCURVE",
"580 155 OFFCURVE",
"536 152 CURVE",
"541 187 OFFCURVE",
"544 262 OFFCURVE",
"544 336 CURVE SMOOTH",
"544 622 LINE",
"569 623 LINE SMOOTH",
"680 626 OFFCURVE",
"770 615 OFFCURVE",
"770 443 CURVE",
"905 443 LINE",
"905 941 LINE",
"747 941 LINE",
"750 891 OFFCURVE",
"752 820 OFFCURVE",
"756 764 CURVE",
"544 764 LINE",
"544 1121 LINE SMOOTH",
"544 1280 OFFCURVE",
"595 1297 OFFCURVE",
"681 1299 CURVE SMOOTH",
"755 1301 LINE SMOOTH",
"866 1304 OFFCURVE",
"1004 1259 OFFCURVE",
"1004 1037 CURVE",
"1139 1037 LINE",
"1127 1434 LINE"
);
}
);
width = 1169;
}
);
leftKerningGroup = I;
unicode = 0046;
},
{
color = 4;
glyphname = G;
lastChange = "2013-05-24 22:53:36 +0400";
layers = (
{
anchors = (
{
name = bottom;
position = "{874, 0}";
},
{
name = top;
position = "{812, 1434}";
}
);
layerId = UUID0;
name = Regular;
paths = (
{
closed = 1;
nodes = (
"331 1467 OFFCURVE",
"96 1071 OFFCURVE",
"96 686 CURVE SMOOTH",
"96 238 OFFCURVE",
"381 -33 OFFCURVE",
"792 -33 CURVE SMOOTH",
"882 -33 OFFCURVE",
"1007 -12 OFFCURVE",
"1091 21 CURVE SMOOTH",
"1190 59 OFFCURVE",
"1267 74 OFFCURVE",
"1312 74 CURVE SMOOTH",
"1368 74 LINE",
"1368 387 LINE SMOOTH",
"1368 442 OFFCURVE",
"1362 631 OFFCURVE",
"1515 631 CURVE",
"1515 698 LINE",
"1052 698 LINE",
"1052 608 LINE",
"1196 616 LINE",
"1196 168 LINE",
"1089 96 OFFCURVE",
"954 66 OFFCURVE",
"845 66 CURVE SMOOTH",
"522 66 OFFCURVE",
"297 346 OFFCURVE",
"297 733 CURVE SMOOTH",
"297 1114 OFFCURVE",
"532 1385 OFFCURVE",
"823 1385 CURVE SMOOTH",
"1061 1385 OFFCURVE",
"1245 1239 OFFCURVE",
"1263 983 CURVE",
"1337 983 LINE",
"1337 1452 LINE",
"1224 1452 LINE",
"1233 1354 LINE",
"1118 1423 OFFCURVE",
"956 1467 OFFCURVE",
"809 1467 CURVE SMOOTH"
);
}
);
width = 1559;
},
{
anchors = (
{
name = bottom;
position = "{886, 0}";
},
{
name = top;
position = "{792, 1434}";
}
);
layerId = "4C2B4986-1645-43C1-94B7-5E4C57EFF0D9";
name = Bold;
paths = (
{
closed = 1;
nodes = (
"308 1467 OFFCURVE",
"73 1069 OFFCURVE",
"73 696 CURVE SMOOTH",
"73 289 OFFCURVE",
"326 -33 OFFCURVE",
"771 -33 CURVE SMOOTH",
"1022 -33 OFFCURVE",
"1165 69 OFFCURVE",
"1323 69 CURVE SMOOTH",
"1373 69 LINE",
"1373 398 LINE SMOOTH",
"1373 553 OFFCURVE",
"1417 571 OFFCURVE",
"1509 576 CURVE",
"1509 711 LINE",
"965 711 LINE",
"965 553 LINE",
"994 554 OFFCURVE",
"1075 556 OFFCURVE",
"1119 559 CURVE",
"1114 524 OFFCURVE",
"1111 449 OFFCURVE",
"1111 375 CURVE SMOOTH",
"1111 185 LINE",
"1035 148 OFFCURVE",
"900 130 OFFCURVE",
"821 130 CURVE SMOOTH",
"542 130 OFFCURVE",
"394 384 OFFCURVE",
"394 738 CURVE SMOOTH",
"394 1033 OFFCURVE",
"526 1319 OFFCURVE",
"812 1318 CURVE SMOOTH",
"1003 1317 OFFCURVE",
"1155 1203 OFFCURVE",
"1192 974 CURVE",
"1326 974 LINE",
"1326 1453 LINE",
"1168 1453 LINE",
"1175 1366 LINE",
"1173 1366 LINE",
"1064 1432 OFFCURVE",
"892 1467 OFFCURVE",
"785 1467 CURVE SMOOTH"
);
}
);
width = 1545;
}
);
unicode = 0047;
},
{
color = 4;
glyphname = H;
lastChange = "2013-05-24 22:53:36 +0400";
layers = (
{
anchors = (
{
name = center;
position = "{799, 717}";
},
{
name = top;
position = "{799, 1434}";
}
);
layerId = UUID0;
name = Regular;
paths = (
{
closed = 1;
nodes = (
"1024 1434 LINE",
"1024 1343 LINE",
"1172 1352 LINE",
"1168 1311 OFFCURVE",
"1166 1260 OFFCURVE",
"1166 1204 CURVE SMOOTH",
"1166 774 LINE",
"433 774 LINE",
"433 1114 LINE SMOOTH",
"433 1260 OFFCURVE",
"420 1360 OFFCURVE",
"574 1366 CURVE",
"574 1434 LINE",
"113 1434 LINE",
"113 1343 LINE",
"261 1352 LINE",
"256 1311 OFFCURVE",
"254 1260 OFFCURVE",
"254 1204 CURVE SMOOTH",
"254 319 LINE SMOOTH",
"254 174 OFFCURVE",
"267 74 OFFCURVE",
"113 68 CURVE",
"113 0 LINE",
"574 0 LINE",
"574 90 LINE",
"426 82 LINE",
"431 117 OFFCURVE",
"433 170 OFFCURVE",
"433 244 CURVE SMOOTH",
"433 684 LINE",
"1166 693 LINE",
"1166 319 LINE SMOOTH",
"1166 174 OFFCURVE",
"1178 74 OFFCURVE",
"1024 68 CURVE",
"1024 0 LINE",
"1485 0 LINE",
"1485 90 LINE",
"1338 82 LINE",
"1342 117 OFFCURVE",
"1344 170 OFFCURVE",
"1344 244 CURVE SMOOTH",
"1344 1114 LINE SMOOTH",
"1344 1260 OFFCURVE",
"1332 1360 OFFCURVE",
"1485 1366 CURVE",
"1485 1434 LINE"
);
}
);
width = 1597;
},
{
anchors = (
{
name = center;
position = "{826, 717}";
},
{
name = top;
position = "{826, 1434}";
}
);
layerId = "4C2B4986-1645-43C1-94B7-5E4C57EFF0D9";
name = Bold;
paths = (
{
closed = 1;
nodes = (
"962 1434 LINE",
"962 1276 LINE",
"991 1277 OFFCURVE",
"1072 1279 OFFCURVE",
"1116 1282 CURVE",
"1111 1247 OFFCURVE",
"1108 1172 OFFCURVE",
"1108 1098 CURVE SMOOTH",
"1108 800 LINE",
"544 800 LINE",
"544 1121 LINE SMOOTH",
"544 1286 OFFCURVE",
"598 1294 OFFCURVE",
"690 1299 CURVE",
"690 1434 LINE",
"102 1434 LINE",
"102 1276 LINE",
"131 1277 OFFCURVE",
"212 1279 OFFCURVE",
"256 1282 CURVE",
"251 1247 OFFCURVE",
"248 1172 OFFCURVE",
"248 1098 CURVE SMOOTH",
"248 313 LINE SMOOTH",
"248 148 OFFCURVE",
"194 140 OFFCURVE",
"102 135 CURVE",
"102 0 LINE",
"690 0 LINE",
"690 158 LINE",
"661 157 OFFCURVE",
"580 155 OFFCURVE",
"536 152 CURVE",
"541 187 OFFCURVE",
"544 262 OFFCURVE",
"544 336 CURVE SMOOTH",
"544 638 LINE",
"1108 645 LINE",
"1108 313 LINE SMOOTH",
"1108 148 OFFCURVE",
"1054 140 OFFCURVE",
"962 135 CURVE",
"962 0 LINE",
"1550 0 LINE",
"1550 158 LINE",
"1521 157 OFFCURVE",
"1440 155 OFFCURVE",
"1396 152 CURVE",
"1401 187 OFFCURVE",
"1404 262 OFFCURVE",
"1404 336 CURVE SMOOTH",
"1404 1121 LINE SMOOTH",
"1404 1286 OFFCURVE",
"1458 1294 OFFCURVE",
"1550 1299 CURVE",
"1550 1434 LINE"
);
}
);
width = 1652;
}
);
leftKerningGroup = I;
rightKerningGroup = I;
unicode = 0048;
},
{
color = 4;
glyphname = I;
lastChange = "2013-05-24 22:53:36 +0400";
layers = (
{
anchors = (
{
name = ogonek;
position = "{561, -1}";
},
{
name = top;
position = "{350, 1434}";
}
);
layerId = UUID0;
name = Regular;
paths = (
{
closed = 1;
nodes = (
"113 1434 LINE",
"113 1343 LINE",
"261 1352 LINE",
"256 1311 OFFCURVE",
"254 1260 OFFCURVE",
"254 1204 CURVE SMOOTH",
"254 319 LINE SMOOTH",
"254 174 OFFCURVE",
"267 74 OFFCURVE",
"113 68 CURVE",
"113 0 LINE",
"574 0 LINE",
"574 90 LINE",
"426 82 LINE",
"431 117 OFFCURVE",
"433 170 OFFCURVE",
"433 244 CURVE SMOOTH",
"433 1114 LINE SMOOTH",
"433 1260 OFFCURVE",
"420 1360 OFFCURVE",
"574 1366 CURVE",
"574 1434 LINE"
);
}
);
width = 686;
},
{
anchors = (
{
name = ogonek;
position = "{688, 1}";
},
{
name = top;
position = "{393, 1434}";
}
);
layerId = "4C2B4986-1645-43C1-94B7-5E4C57EFF0D9";
name = Bold;
paths = (
{
closed = 1;
nodes = (
"102 1434 LINE",
"102 1276 LINE",
"131 1277 OFFCURVE",
"212 1279 OFFCURVE",
"256 1282 CURVE",
"251 1247 OFFCURVE",
"248 1172 OFFCURVE",
"248 1098 CURVE SMOOTH",
"248 313 LINE SMOOTH",
"248 148 OFFCURVE",
"194 140 OFFCURVE",
"102 135 CURVE",
"102 0 LINE",
"690 0 LINE",
"690 158 LINE",
"661 157 OFFCURVE",
"580 155 OFFCURVE",
"536 152 CURVE",
"541 187 OFFCURVE",
"544 262 OFFCURVE",
"544 336 CURVE SMOOTH",
"544 1121 LINE SMOOTH",
"544 1286 OFFCURVE",
"598 1294 OFFCURVE",
"690 1299 CURVE",
"690 1434 LINE"
);
}
);
width = 792;
}
);
leftKerningGroup = I;
rightKerningGroup = I;
unicode = 0049;
},
{
color = 4;
glyphname = Icircumflex;
lastChange = "2013-05-24 22:53:37 +0400";
layers = (
{
components = (
{
name = I;
transform = "{1, 0, 0, 1, -1, 0}";
}
);
layerId = UUID0;
name = Regular;
paths = (
{
closed = 1;
nodes = (
"359 1907 LINE",
"-18 1616 LINE",
"23 1550 LINE",
"351 1729 LINE",
"355 1729 LINE",
"674 1548 LINE",
"719 1618 LINE",
"363 1907 LINE"
);
}
);
width = 686;
},
{
layerId = "4C2B4986-1645-43C1-94B7-5E4C57EFF0D9";
name = Bold;
paths = (
{
closed = 1;
nodes = (
"102 1434 LINE",
"102 1276 LINE",
"131 1277 OFFCURVE",
"212 1279 OFFCURVE",
"256 1282 CURVE",
"251 1247 OFFCURVE",
"248 1172 OFFCURVE",
"248 1098 CURVE SMOOTH",
"248 313 LINE SMOOTH",
"248 148 OFFCURVE",
"194 140 OFFCURVE",
"102 135 CURVE",
"102 0 LINE",
"690 0 LINE",
"690 158 LINE",
"661 157 OFFCURVE",
"580 155 OFFCURVE",
"536 152 CURVE",
"541 187 OFFCURVE",
"544 262 OFFCURVE",
"544 336 CURVE SMOOTH",
"544 1121 LINE SMOOTH",
"544 1286 OFFCURVE",
"598 1294 OFFCURVE",
"690 1299 CURVE",
"690 1434 LINE"
);
},
{
closed = 1;
nodes = (
"389 1988 LINE",
"51 1681 LINE",
"106 1589 LINE",
"400 1764 LINE",
"685 1586 LINE",
"749 1681 LINE",
"429 1988 LINE"
);
}
);
width = 792;
}
);
leftKerningGroup = I;
rightKerningGroup = I;
unicode = 00CE;
},
{
color = 4;
glyphname = Idieresis;
lastChange = "2013-05-24 22:53:37 +0400";
layers = (
{
components = (
{
name = I;
transform = "{1, 0, 0, 1, 0, 0}";
},
{
name = period;
transform = "{0.930, 0, 0, 0.980, 290, 1618}";
},
{
name = period;
transform = "{0.930, 0, 0, 0.980, -36, 1618}";
}
);
layerId = UUID0;
name = Regular;
width = 686;
},
{
layerId = "4C2B4986-1645-43C1-94B7-5E4C57EFF0D9";
name = Bold;
paths = (
{
closed = 1;
nodes = (
"102 1434 LINE",
"102 1276 LINE",
"131 1277 OFFCURVE",
"212 1279 OFFCURVE",
"256 1282 CURVE",
"251 1247 OFFCURVE",
"248 1172 OFFCURVE",
"248 1098 CURVE SMOOTH",
"248 313 LINE SMOOTH",
"248 148 OFFCURVE",
"194 140 OFFCURVE",
"102 135 CURVE",
"102 0 LINE",
"690 0 LINE",
"690 158 LINE",
"661 157 OFFCURVE",
"580 155 OFFCURVE",
"536 152 CURVE",
"541 187 OFFCURVE",
"544 262 OFFCURVE",
"544 336 CURVE SMOOTH",
"544 1121 LINE SMOOTH",
"544 1286 OFFCURVE",
"598 1294 OFFCURVE",
"690 1299 CURVE",
"690 1434 LINE"
);
},
{
closed = 1;
nodes = (
"159 1943 OFFCURVE",
"94 1872 OFFCURVE",
"94 1786 CURVE SMOOTH",
"94 1700 OFFCURVE",
"157 1632 OFFCURVE",
"230 1632 CURVE SMOOTH",
"303 1632 OFFCURVE",
"367 1700 OFFCURVE",
"367 1786 CURVE SMOOTH",
"367 1872 OFFCURVE",
"309 1943 OFFCURVE",
"232 1943 CURVE SMOOTH"
);
},
{
closed = 1;
nodes = (
"516 1943 OFFCURVE",
"451 1872 OFFCURVE",
"451 1786 CURVE SMOOTH",
"451 1700 OFFCURVE",
"514 1632 OFFCURVE",
"587 1632 CURVE SMOOTH",
"660 1632 OFFCURVE",
"724 1700 OFFCURVE",
"724 1786 CURVE SMOOTH",
"724 1872 OFFCURVE",
"666 1943 OFFCURVE",
"589 1943 CURVE SMOOTH"
);
}
);
width = 792;
}
);
leftKerningGroup = I;
rightKerningGroup = I;
unicode = 00CF;
},
{
color = 4;
glyphname = J;
lastChange = "2013-05-24 22:53:36 +0400";
layers = (
{
anchors = (
{
name = top;
position = "{441, 1434}";
}
);
layerId = UUID0;
name = Regular;
paths = (
{
closed = 1;
nodes = (
"158 1434 LINE",
"158 1343 LINE",
"367 1352 LINE",
"367 285 LINE SMOOTH",
"367 117 OFFCURVE",
"327 54 OFFCURVE",
"246 51 CURVE SMOOTH",
"225 50 OFFCURVE",
"182 58 OFFCURVE",
"165 83 CURVE",
"172 97 OFFCURVE",
"175 116 OFFCURVE",
"175 129 CURVE SMOOTH",
"175 170 OFFCURVE",
"151 223 OFFCURVE",
"84 220 CURVE SMOOTH",
"25 217 OFFCURVE",
"-4 166 OFFCURVE",
"-4 113 CURVE SMOOTH",
"-4 23 OFFCURVE",
"98 -33 OFFCURVE",
"212 -33 CURVE SMOOTH",
"448 -33 OFFCURVE",
"545 115 OFFCURVE",
"545 500 CURVE SMOOTH",
"545 1163 LINE SMOOTH",
"545 1278 OFFCURVE",
"567 1366 OFFCURVE",
"703 1366 CURVE",
"703 1434 LINE"
);
}
);
width = 764;
},
{
anchors = (
{
name = top;
position = "{525, 1434}";
}
);
layerId = "4C2B4986-1645-43C1-94B7-5E4C57EFF0D9";
name = Bold;
paths = (
{
closed = 1;
nodes = (
"280 1434 LINE",
"280 1276 LINE",
"309 1277 OFFCURVE",
"390 1279 OFFCURVE",
"434 1282 CURVE",
"429 1247 OFFCURVE",
"426 1172 OFFCURVE",
"426 1098 CURVE SMOOTH",
"426 277 LINE SMOOTH",
"426 161 OFFCURVE",
"394 114 OFFCURVE",
"335 114 CURVE SMOOTH",
"321 114 OFFCURVE",
"285 121 OFFCURVE",
"273 148 CURVE",
"285 172 OFFCURVE",
"292 200 OFFCURVE",
"291 224 CURVE SMOOTH",
"288 293 OFFCURVE",
"246 362 OFFCURVE",
"144 357 CURVE SMOOTH",
"52 352 OFFCURVE",
"2 273 OFFCURVE",
"2 186 CURVE SMOOTH",
"2 59 OFFCURVE",
"134 -33 OFFCURVE",
"295 -33 CURVE SMOOTH",
"571 -33 OFFCURVE",
"722 126 OFFCURVE",
"722 521 CURVE SMOOTH",
"722 1121 LINE SMOOTH",
"722 1286 OFFCURVE",
"776 1294 OFFCURVE",
"868 1299 CURVE",
"868 1434 LINE"
);
}
);
width = 924;
}
);
unicode = 004A;
},
{
color = 4;
glyphname = K;
lastChange = "2013-05-30 17:03:19 +0400";
layers = (
{
anchors = (
{
name = bottom;
position = "{775, 0}";
},
{
name = top;
position = "{711, 1434}";
}
);
layerId = UUID0;
name = Regular;
paths = (
{
closed = 1;
nodes = (
"863 1434 LINE",
"863 1350 LINE",
"988 1354 LINE",
"931 1309 OFFCURVE",
"876 1235 OFFCURVE",
"842 1182 CURVE SMOOTH",
"586 778 LINE",
"433 778 LINE",
"433 1114 LINE SMOOTH",
"433 1260 OFFCURVE",
"420 1360 OFFCURVE",
"574 1366 CURVE",
"574 1434 LINE",
"113 1434 LINE",
"113 1343 LINE",
"261 1352 LINE",
"256 1311 OFFCURVE",
"254 1260 OFFCURVE",
"254 1204 CURVE SMOOTH",
"254 319 LINE SMOOTH",
"254 174 OFFCURVE",
"267 74 OFFCURVE",
"113 68 CURVE",
"113 0 LINE",
"574 0 LINE",
"574 90 LINE",
"426 82 LINE",
"431 117 OFFCURVE",
"433 170 OFFCURVE",
"433 244 CURVE SMOOTH",
"433 696 LINE",
"533 698 LINE",
"582 668 OFFCURVE",
"635 600 OFFCURVE",
"687 532 CURVE SMOOTH",
"932 201 LINE SMOOTH",
"1012 96 OFFCURVE",
"1098 0 OFFCURVE",
"1139 0 CURVE SMOOTH",
"1389 0 LINE",
"1389 68 LINE",
"1301 68 OFFCURVE",
"1244 84 OFFCURVE",
"1088 291 CURVE SMOOTH",
"859 596 LINE SMOOTH",
"809 659 OFFCURVE",
"766 723 OFFCURVE",
"689 770 CURVE",
"889 1090 LINE SMOOTH",
"1029 1313 OFFCURVE",
"1131 1352 OFFCURVE",
"1303 1366 CURVE",
"1303 1434 LINE"
);
}
);
width = 1399;
},
{
anchors = (
{
name = bottom;
position = "{837, 0}";
},
{
name = top;
position = "{760, 1434}";
}
);
layerId = "4C2B4986-1645-43C1-94B7-5E4C57EFF0D9";
name = Bold;
paths = (
{
closed = 1;
nodes = (
"860 1434 LINE",
"860 1276 LINE",
"889 1277 OFFCURVE",
"946 1281 OFFCURVE",
"990 1284 CURVE",
"990 1282 LINE",
"954 1254 OFFCURVE",
"897 1159 OFFCURVE",
"849 1077 CURVE SMOOTH",
"693 809 LINE",
"544 809 LINE",
"544 1121 LINE SMOOTH",
"544 1286 OFFCURVE",
"598 1294 OFFCURVE",
"690 1299 CURVE",
"690 1434 LINE",
"102 1434 LINE",
"102 1276 LINE",
"131 1277 OFFCURVE",
"212 1279 OFFCURVE",
"256 1282 CURVE",
"251 1247 OFFCURVE",
"248 1172 OFFCURVE",
"248 1098 CURVE SMOOTH",
"248 313 LINE SMOOTH",
"248 148 OFFCURVE",
"194 140 OFFCURVE",
"102 135 CURVE",
"102 0 LINE",
"690 0 LINE",
"690 158 LINE",
"661 157 OFFCURVE",
"580 155 OFFCURVE",
"536 152 CURVE",
"541 187 OFFCURVE",
"544 262 OFFCURVE",
"544 336 CURVE SMOOTH",
"544 645 LINE",
"569 645 OFFCURVE",
"614 646 OFFCURVE",
"618 646 CURVE",
"655 619 OFFCURVE",
"700 554 OFFCURVE",
"738 503 CURVE",
"940 208 LINE SMOOTH",
"995 128 OFFCURVE",
"1107 2 OFFCURVE",
"1140 0 CURVE",
"1456 0 LINE",
"1456 135 LINE",
"1364 140 OFFCURVE",
"1270 240 OFFCURVE",
"1187 357 CURVE SMOOTH",
"976 654 LINE SMOOTH",
"944 699 OFFCURVE",
"902 739 OFFCURVE",
"848 772 CURVE",
"848 775 LINE",
"1044 1089 LINE SMOOTH",
"1157 1271 OFFCURVE",
"1269 1294 OFFCURVE",
"1361 1299 CURVE",
"1361 1434 LINE"
);
}
);
width = 1459;
}
);
leftKerningGroup = I;
unicode = 004B;
},
{
color = 4;
glyphname = L;
lastChange = "2013-05-24 23:18:05 +0400";
layers = (
{
anchors = (
{
name = bottom;
position = "{654, 0}";
},
{
name = top;
position = "{370, 1434}";
}
);
layerId = UUID0;
name = Regular;
paths = (
{
closed = 1;
nodes = (
"113 1434 LINE",
"113 1343 LINE",
"261 1352 LINE",
"256 1311 OFFCURVE",
"254 1260 OFFCURVE",
"254 1204 CURVE SMOOTH",
"254 319 LINE SMOOTH",
"254 174 OFFCURVE",
"267 74 OFFCURVE",
"113 68 CURVE",
"113 0 LINE",
"1129 0 LINE",
"1141 424 LINE",
"1072 424 LINE",
"1072 182 OFFCURVE",
"981 84 OFFCURVE",
"809 82 CURVE SMOOTH",
"426 76 LINE",
"431 111 OFFCURVE",
"433 162 OFFCURVE",
"433 236 CURVE SMOOTH",
"433 1114 LINE SMOOTH",
"433 1260 OFFCURVE",
"420 1360 OFFCURVE",
"574 1366 CURVE",
"574 1434 LINE"
);
}
);
width = 1184;
},
{
anchors = (
{
name = bottom;
position = "{712, 0}";
},
{
name = top;
position = "{420, 1434}";
}
);
layerId = "4C2B4986-1645-43C1-94B7-5E4C57EFF0D9";
name = Bold;
paths = (
{
closed = 1;
nodes = (
"102 1434 LINE",
"102 1276 LINE",
"131 1277 OFFCURVE",
"212 1279 OFFCURVE",
"256 1282 CURVE",
"251 1247 OFFCURVE",
"248 1172 OFFCURVE",
"248 1098 CURVE SMOOTH",
"248 313 LINE SMOOTH",
"248 148 OFFCURVE",
"194 140 OFFCURVE",
"102 135 CURVE",
"102 0 LINE",
"1194 0 LINE",
"1206 491 LINE",
"1070 491 LINE",
"1070 269 OFFCURVE",
"972 157 OFFCURVE",
"811 156 CURVE SMOOTH",
"536 155 LINE",
"541 190 OFFCURVE",
"544 262 OFFCURVE",
"544 336 CURVE SMOOTH",
"544 1121 LINE SMOOTH",
"544 1286 OFFCURVE",
"598 1294 OFFCURVE",
"690 1299 CURVE",
"690 1434 LINE"
);
}
);
width = 1238;
}
);
leftKerningGroup = I;
rightKerningGroup = L;
unicode = 004C;
},
{
color = 4;
glyphname = Lslash;
lastChange = "2014-06-18 13:39:26 +0400";
layers = (
{
background = {
paths = (
{
closed = 1;
nodes = (
"103 1433 LINE",
"103 1275 LINE",
"132 1276 OFFCURVE",
"213 1278 OFFCURVE",
"257 1281 CURVE",
"252 1246 OFFCURVE",
"249 1171 OFFCURVE",
"249 1097 CURVE SMOOTH",
"249 714 LINE",
"92 598 LINE",
"92 363 LINE",
"249 480 LINE",
"249 312 LINE SMOOTH",
"249 147 OFFCURVE",
"195 139 OFFCURVE",
"103 134 CURVE",
"103 -1 LINE",
"1195 -1 LINE",
"1207 490 LINE",
"1071 490 LINE",
"1071 268 OFFCURVE",
"973 156 OFFCURVE",
"812 155 CURVE SMOOTH",
"537 154 LINE",
"542 189 OFFCURVE",
"545 261 OFFCURVE",
"545 335 CURVE SMOOTH",
"545 702 LINE",
"892 960 LINE",
"892 1191 LINE",
"545 934 LINE",
"545 1120 LINE SMOOTH",
"545 1285 OFFCURVE",
"599 1293 OFFCURVE",
"691 1298 CURVE",
"691 1433 LINE"
);
}
);
};
components = (
{
name = L;
transform = "{1, 0, 0, 1, -1, 0}";
}
);
layerId = UUID0;
name = Regular;
paths = (
{
closed = 1;
nodes = (
"98 582 LINE",
"98 467 LINE",
"799 986 LINE",
"799 1097 LINE"
);
}
);
width = 1184;
},
{
layerId = "4C2B4986-1645-43C1-94B7-5E4C57EFF0D9";
name = Bold;
paths = (
{
closed = 1;
nodes = (
"103 1433 LINE",
"103 1275 LINE",
"132 1276 OFFCURVE",
"213 1278 OFFCURVE",
"257 1281 CURVE",
"252 1246 OFFCURVE",
"249 1171 OFFCURVE",
"249 1097 CURVE SMOOTH",
"249 714 LINE",
"92 598 LINE",
"92 363 LINE",
"249 480 LINE",
"249 312 LINE SMOOTH",
"249 147 OFFCURVE",
"195 139 OFFCURVE",
"103 134 CURVE",
"103 -1 LINE",
"1195 -1 LINE",
"1207 490 LINE",
"1071 490 LINE",
"1071 268 OFFCURVE",
"973 156 OFFCURVE",
"812 155 CURVE SMOOTH",
"537 154 LINE",
"542 189 OFFCURVE",
"545 261 OFFCURVE",
"545 335 CURVE SMOOTH",
"545 702 LINE",
"892 960 LINE",
"892 1191 LINE",
"545 934 LINE",
"545 1120 LINE SMOOTH",
"545 1285 OFFCURVE",
"599 1293 OFFCURVE",
"691 1298 CURVE",
"691 1433 LINE"
);
}
);
width = 1239;
}
);
leftKerningGroup = I;
rightKerningGroup = L;
unicode = 0141;
},
{
color = 4;
glyphname = M;
lastChange = "2013-05-24 22:53:36 +0400";
layers = (
{
layerId = UUID0;
name = Regular;
paths = (
{
closed = 1;
nodes = (
"1442 1434 LINE",
"1315 1112 OFFCURVE",
"1182 813 OFFCURVE",
"1063 514 CURVE SMOOTH",
"1034 440 OFFCURVE",
"989 324 OFFCURVE",
"958 250 CURVE",
"954 250 LINE",
"780 647 OFFCURVE",
"631 1006 OFFCURVE",
"442 1434 CURVE",
"129 1434 LINE",
"129 1346 LINE",
"276 1351 LINE",
"231 256 LINE SMOOTH",
"227 156 OFFCURVE",
"217 70 OFFCURVE",
"90 68 CURVE",
"90 0 LINE",
"481 0 LINE",
"481 90 LINE",
"327 82 LINE",
"334 133 OFFCURVE",
"334 195 OFFCURVE",
"335 256 CURVE SMOOTH",
"340 532 OFFCURVE",
"352 915 OFFCURVE",
"358 1112 CURVE SMOOTH",
"360 1202 LINE",
"521 777 OFFCURVE",
"706 381 OFFCURVE",
"885 -20 CURVE",
"946 -20 LINE",
"1407 1118 LINE SMOOTH",
"1416 1142 OFFCURVE",
"1426 1164 OFFCURVE",
"1434 1184 CURVE",
"1487 311 LINE SMOOTH",
"1495 156 OFFCURVE",
"1478 72 OFFCURVE",
"1351 68 CURVE",
"1351 0 LINE",
"1810 0 LINE",
"1810 90 LINE",
"1661 83 LINE",
"1661 119 OFFCURVE",
"1660 163 OFFCURVE",
"1657 211 CURVE SMOOTH",
"1603 1143 LINE SMOOTH",
"1593 1311 OFFCURVE",
"1642 1368 OFFCURVE",
"1745 1366 CURVE",
"1745 1434 LINE"
);
}
);
width = 1880;
},
{
layerId = "4C2B4986-1645-43C1-94B7-5E4C57EFF0D9";
name = Bold;
paths = (
{
closed = 1;
nodes = (
"1400 1434 LINE",
"1084 588 LINE SMOOTH",
"1050 501 OFFCURVE",
"1021 412 OFFCURVE",
"987 318 CURVE",
"985 318 LINE",
"964 388 OFFCURVE",
"908 546 OFFCURVE",
"871 641 CURVE SMOOTH",
"561 1434 LINE",
"108 1434 LINE",
"108 1276 LINE",
"137 1277 OFFCURVE",
"219 1279 OFFCURVE",
"263 1282 CURVE",
"258 1247 OFFCURVE",
"255 1172 OFFCURVE",
"254 1098 CURVE SMOOTH",
"242 313 LINE SMOOTH",
"239 148 OFFCURVE",
"188 140 OFFCURVE",
"96 135 CURVE",
"96 0 LINE",
"563 0 LINE",
"563 158 LINE",
"534 157 OFFCURVE",
"452 155 OFFCURVE",
"408 152 CURVE",
"413 187 OFFCURVE",
"417 262 OFFCURVE",
"417 336 CURVE SMOOTH",
"420 706 LINE SMOOTH",
"421 829 OFFCURVE",
"418 963 OFFCURVE",
"414 1116 CURVE",
"416 1116 LINE",
"458 919 OFFCURVE",
"527 730 OFFCURVE",
"560 654 CURVE SMOOTH",
"835 -20 LINE",
"1026 -20 LINE",
"1445 1102 LINE",
"1447 1102 LINE",
"1452 977 OFFCURVE",
"1462 796 OFFCURVE",
"1464 747 CURVE SMOOTH",
"1481 313 LINE SMOOTH",
"1487 148 OFFCURVE",
"1427 140 OFFCURVE",
"1335 135 CURVE",
"1335 0 LINE",
"1904 0 LINE",
"1904 158 LINE",
"1875 157 OFFCURVE",
"1794 155 OFFCURVE",
"1750 152 CURVE",
"1755 187 OFFCURVE",
"1761 262 OFFCURVE",
"1758 336 CURVE SMOOTH",
"1727 1121 LINE SMOOTH",
"1721 1286 OFFCURVE",
"1781 1294 OFFCURVE",
"1873 1299 CURVE",
"1873 1434 LINE"
);
}
);
width = 1990;
}
);
unicode = 004D;
},
{
color = 4;
glyphname = N;
lastChange = "2014-06-18 13:38:56 +0400";
layers = (
{
anchors = (
{
name = bottom;
position = "{781, 0}";
},
{
name = top;
position = "{809, 1434}";
}
);
layerId = UUID0;
name = Regular;
paths = (
{
closed = 1;
nodes = (
"1096 1434 LINE",
"1096 1343 LINE",
"1243 1352 LINE",
"1239 1311 OFFCURVE",
"1237 1260 OFFCURVE",
"1237 1204 CURVE SMOOTH",
"1235 267 LINE",
"1233 267 LINE",
"361 1434 LINE",
"117 1434 LINE",
"117 1343 LINE",
"254 1352 LINE",
"252 229 LINE SMOOTH",
"252 166 OFFCURVE",
"242 68 OFFCURVE",
"117 68 CURVE",
"117 0 LINE",
"492 0 LINE",
"492 90 LINE",
"344 82 LINE",
"348 147 OFFCURVE",
"348 215 OFFCURVE",
"348 285 CURVE SMOOTH",
"341 1162 LINE",
"344 1162 LINE",
"1233 -33 LINE",
"1332 -33 LINE",
"1336 1114 LINE SMOOTH",
"1336 1260 OFFCURVE",
"1319 1360 OFFCURVE",
"1473 1366 CURVE",
"1473 1434 LINE"
);
}
);
width = 1561;
},
{
anchors = (
{
name = bottom;
position = "{832, 0}";
},
{
name = top;
position = "{792, 1434}";
}
);
layerId = "4C2B4986-1645-43C1-94B7-5E4C57EFF0D9";
name = Bold;
paths = (
{
closed = 1;
nodes = (
"1045 1434 LINE",
"1045 1276 LINE",
"1074 1277 OFFCURVE",
"1155 1279 OFFCURVE",
"1199 1282 CURVE",
"1194 1247 OFFCURVE",
"1191 1172 OFFCURVE",
"1191 1098 CURVE SMOOTH",
"1191 448 LINE",
"1189 448 LINE",
"1157 495 OFFCURVE",
"1115 556 OFFCURVE",
"1046 644 CURVE SMOOTH",
"420 1434 LINE",
"99 1434 LINE",
"99 1276 LINE",
"128 1277 OFFCURVE",
"209 1279 OFFCURVE",
"253 1282 CURVE",
"248 1247 OFFCURVE",
"245 1172 OFFCURVE",
"245 1098 CURVE SMOOTH",
"250 313 LINE SMOOTH",
"250 148 OFFCURVE",
"196 140 OFFCURVE",
"104 135 CURVE",
"104 0 LINE",
"571 0 LINE",
"571 158 LINE",
"542 157 OFFCURVE",
"461 155 OFFCURVE",
"417 152 CURVE",
"422 187 OFFCURVE",
"425 262 OFFCURVE",
"425 336 CURVE SMOOTH",
"422 970 LINE",
"424 970 LINE",
"462 915 OFFCURVE",
"501 862 OFFCURVE",
"536 817 CURVE SMOOTH",
"1191 -20 LINE",
"1365 -20 LINE",
"1365 1121 LINE SMOOTH",
"1365 1286 OFFCURVE",
"1419 1294 OFFCURVE",
"1511 1299 CURVE",
"1511 1434 LINE"
);
}
);
width = 1583;
}
);
leftKerningGroup = I;
rightKerningGroup = N;
unicode = 004E;
},
{
color = 4;
glyphname = O;
lastChange = "2013-05-24 22:53:37 +0400";
layers = (
{
anchors = (
{
name = top;
position = "{796, 1434}";
}
);
layerId = UUID0;
name = Regular;
paths = (
{
closed = 1;
nodes = (
"323 1467 OFFCURVE",
"94 1061 OFFCURVE",
"94 717 CURVE SMOOTH",
"94 360 OFFCURVE",
"303 -33 OFFCURVE",
"823 -33 CURVE SMOOTH",
"1306 -33 OFFCURVE",
"1536 377 OFFCURVE",
"1536 717 CURVE SMOOTH",
"1536 1059 OFFCURVE",
"1306 1467 OFFCURVE",
"807 1467 CURVE SMOOTH"
);
},
{
closed = 1;
nodes = (
"1140 1385 OFFCURVE",
"1331 1014 OFFCURVE",
"1331 678 CURVE SMOOTH",
"1331 377 OFFCURVE",
"1163 51 OFFCURVE",
"827 51 CURVE SMOOTH",
"461 51 OFFCURVE",
"295 450 OFFCURVE",
"295 754 CURVE SMOOTH",
"295 1057 OFFCURVE",
"463 1385 OFFCURVE",
"800 1385 CURVE SMOOTH"
);
}
);
width = 1626;
},
{
anchors = (
{
name = top;
position = "{787, 1434}";
}
);
layerId = "4C2B4986-1645-43C1-94B7-5E4C57EFF0D9";
name = Bold;
paths = (
{
closed = 1;
nodes = (
"306 1467 OFFCURVE",
"72 1060 OFFCURVE",
"72 717 CURVE SMOOTH",
"72 361 OFFCURVE",
"266 -33 OFFCURVE",
"785 -33 CURVE SMOOTH",
"1269 -33 OFFCURVE",
"1503 378 OFFCURVE",
"1503 717 CURVE SMOOTH",
"1503 1058 OFFCURVE",
"1289 1467 OFFCURVE",
"791 1467 CURVE SMOOTH"
);
},
{
closed = 1;
nodes = (
"1049 1324 OFFCURVE",
"1180 1057 OFFCURVE",
"1180 682 CURVE SMOOTH",
"1180 431 OFFCURVE",
"1089 119 OFFCURVE",
"806 117 CURVE SMOOTH",
"496 115 OFFCURVE",
"394 485 OFFCURVE",
"394 741 CURVE SMOOTH",
"394 994 OFFCURVE",
"483 1310 OFFCURVE",
"764 1317 CURVE SMOOTH"
);
}
);
width = 1574;
}
);
leftKerningGroup = O;
rightKerningGroup = O;
unicode = 004F;
},
{
color = 4;
glyphname = Oslash;
lastChange = "2013-05-24 22:53:37 +0400";
layers = (
{
components = (
{
name = O;
transform = "{1, 0, 0, 1, -2, 0}";
}
);
layerId = UUID0;
name = Regular;
paths = (
{
closed = 1;
nodes = (
"297 -102 LINE",
"395 -164 LINE",
"1362 1477 LINE",
"1251 1546 LINE"
);
}
);
width = 1626;
},
{
layerId = "4C2B4986-1645-43C1-94B7-5E4C57EFF0D9";
name = Bold;
paths = (
{
closed = 1;
nodes = (
"1099 1404 LINE",
"1012 1444 OFFCURVE",
"909 1467 OFFCURVE",
"791 1467 CURVE SMOOTH",
"306 1467 OFFCURVE",
"72 1060 OFFCURVE",
"72 717 CURVE SMOOTH",
"72 490 OFFCURVE",
"151 248 OFFCURVE",
"342 102 CURVE",
"224 -100 LINE",
"376 -202 LINE",
"503 14 LINE",
"584 -16 OFFCURVE",
"677 -33 OFFCURVE",
"785 -33 CURVE SMOOTH",
"1269 -33 OFFCURVE",
"1503 378 OFFCURVE",
"1503 717 CURVE SMOOTH",
"1503 921 OFFCURVE",
"1427 1149 OFFCURVE",
"1258 1300 CURVE",
"1382 1510 LINE",
"1220 1611 LINE"
);
},
{
closed = 1;
nodes = (
"1160 958 OFFCURVE",
"1180 828 OFFCURVE",
"1180 682 CURVE SMOOTH",
"1180 431 OFFCURVE",
"1089 119 OFFCURVE",
"806 117 CURVE SMOOTH",
"724 116 OFFCURVE",
"657 141 OFFCURVE",
"602 183 CURVE",
"1118 1062 LINE"
);
},
{
closed = 1;
nodes = (
"860 1319 OFFCURVE",
"939 1290 OFFCURVE",
"1001 1236 CURVE",
"480 340 LINE",
"418 463 OFFCURVE",
"394 615 OFFCURVE",
"394 741 CURVE SMOOTH",
"394 994 OFFCURVE",
"483 1310 OFFCURVE",
"764 1317 CURVE SMOOTH"
);
}
);
width = 1573;
}
);
leftKerningGroup = O;
rightKerningGroup = O;
unicode = 00D8;
},
{
color = 4;
glyphname = OE;
lastChange = "2014-06-18 13:39:37 +0400";
layers = (
{
layerId = UUID0;
name = Regular;
paths = (
{
closed = 1;
nodes = (
"318 1455 OFFCURVE",
"94 1059 OFFCURVE",
"94 674 CURVE SMOOTH",
"94 266 OFFCURVE",
"356 -33 OFFCURVE",
"788 -33 CURVE SMOOTH",
"868 -33 OFFCURVE",
"964 -23 OFFCURVE",
"1073 0 CURVE",
"1988 0 LINE",
"2001 399 LINE",
"1931 399 LINE",
"1931 156 OFFCURVE",
"1816 70 OFFCURVE",
"1638 76 CURVE SMOOTH",
"1245 88 LINE",
"1249 123 OFFCURVE",
"1251 174 OFFCURVE",
"1251 248 CURVE SMOOTH",
"1251 702 LINE",
"1405 711 LINE SMOOTH",
"1579 717 OFFCURVE",
"1649 711 OFFCURVE",
"1649 530 CURVE",
"1716 530 LINE",
"1716 961 LINE",
"1625 961 LINE",
"1640 784 LINE",
"1251 784 LINE",
"1251 1114 LINE SMOOTH",
"1251 1280 OFFCURVE",
"1253 1354 OFFCURVE",
"1407 1358 CURVE SMOOTH",
"1583 1362 LINE SMOOTH",
"1737 1366 OFFCURVE",
"1859 1317 OFFCURVE",
"1859 1075 CURVE",
"1927 1075 LINE",
"1917 1434 LINE",
"1073 1434 LINE",
"992 1453 OFFCURVE",
"890 1467 OFFCURVE",
"814 1467 CURVE SMOOTH"
);
},
{
closed = 1;
nodes = (
"899 1381 OFFCURVE",
"995 1368 OFFCURVE",
"1073 1333 CURVE",
"1073 98 LINE",
"991 76 OFFCURVE",
"924 66 OFFCURVE",
"848 66 CURVE SMOOTH",
"524 66 OFFCURVE",
"299 317 OFFCURVE",
"295 705 CURVE SMOOTH",
"291 1126 OFFCURVE",
"528 1381 OFFCURVE",
"819 1381 CURVE SMOOTH"
);
}
);
width = 2093;
},
{
layerId = "4C2B4986-1645-43C1-94B7-5E4C57EFF0D9";
name = Bold;
paths = (
{
closed = 1;
nodes = (
"289 1467 OFFCURVE",
"73 1064 OFFCURVE",
"73 691 CURVE SMOOTH",
"73 284 OFFCURVE",
"353 -25 OFFCURVE",
"775 -33 CURVE SMOOTH",
"864 -34 OFFCURVE",
"977 -28 OFFCURVE",
"1075 0 CURVE",
"2010 0 LINE",
"2022 451 LINE",
"1887 451 LINE",
"1887 229 OFFCURVE",
"1759 156 OFFCURVE",
"1638 156 CURVE SMOOTH",
"1363 155 LINE",
"1368 190 OFFCURVE",
"1371 262 OFFCURVE",
"1371 336 CURVE SMOOTH",
"1371 672 LINE",
"1425 673 LINE SMOOTH",
"1536 676 OFFCURVE",
"1626 665 OFFCURVE",
"1626 493 CURVE",
"1761 493 LINE",
"1761 991 LINE",
"1603 991 LINE",
"1606 941 OFFCURVE",
"1608 870 OFFCURVE",
"1612 814 CURVE",
"1371 814 LINE",
"1371 1121 LINE SMOOTH",
"1371 1280 OFFCURVE",
"1422 1297 OFFCURVE",
"1508 1299 CURVE SMOOTH",
"1582 1301 LINE SMOOTH",
"1693 1304 OFFCURVE",
"1831 1259 OFFCURVE",
"1831 1037 CURVE",
"1966 1037 LINE",
"1954 1434 LINE",
"1075 1434 LINE",
"989 1457 OFFCURVE",
"887 1467 OFFCURVE",
"811 1467 CURVE SMOOTH"
);
},
{
closed = 1;
nodes = (
"910 1318 OFFCURVE",
"1004 1299 OFFCURVE",
"1075 1251 CURVE",
"1075 167 LINE",
"1001 137 OFFCURVE",
"919 126 OFFCURVE",
"825 133 CURVE SMOOTH",
"549 153 OFFCURVE",
"395 384 OFFCURVE",
"395 738 CURVE SMOOTH",
"395 1033 OFFCURVE",
"523 1318 OFFCURVE",
"809 1318 CURVE SMOOTH"
);
}
);
width = 2105;
}
);
leftKerningGroup = O;
rightKerningGroup = E;
unicode = 0152;
},
{
color = 4;
glyphname = P;
lastChange = "2013-05-24 22:53:37 +0400";
layers = (
{
layerId = UUID0;
name = Regular;
paths = (
{
closed = 1;
nodes = (
"410 1437 OFFCURVE",
"256 1436 OFFCURVE",
"113 1434 CURVE",
"113 1343 LINE",
"261 1352 LINE",
"256 1311 OFFCURVE",
"254 1260 OFFCURVE",
"254 1204 CURVE SMOOTH",
"254 319 LINE SMOOTH",
"254 174 OFFCURVE",
"267 74 OFFCURVE",
"113 68 CURVE",
"113 0 LINE",
"615 0 LINE",
"615 92 LINE",
"426 82 LINE",
"431 117 OFFCURVE",
"433 170 OFFCURVE",
"433 244 CURVE SMOOTH",
"433 540 LINE",
"459 539 OFFCURVE",
"493 539 OFFCURVE",
"506 539 CURVE SMOOTH",
"1067 539 OFFCURVE",
"1199 827 OFFCURVE",
"1188 1040 CURVE SMOOTH",
"1176 1303 OFFCURVE",
"965 1437 OFFCURVE",
"570 1437 CURVE SMOOTH"
);
},
{
closed = 1;
nodes = (
"816 1357 OFFCURVE",
"990 1260 OFFCURVE",
"990 1001 CURVE SMOOTH",
"990 762 OFFCURVE",
"799 618 OFFCURVE",
"566 618 CURVE SMOOTH",
"515 618 OFFCURVE",
"484 618 OFFCURVE",
"433 625 CURVE",
"433 1114 LINE SMOOTH",
"433 1260 OFFCURVE",
"420 1357 OFFCURVE",
"566 1357 CURVE SMOOTH"
);
}
);
width = 1241;
},
{
layerId = "4C2B4986-1645-43C1-94B7-5E4C57EFF0D9";
name = Bold;
paths = (
{
closed = 1;
nodes = (
"102 1434 LINE",
"102 1276 LINE",
"131 1277 OFFCURVE",
"212 1279 OFFCURVE",
"256 1282 CURVE",
"251 1247 OFFCURVE",
"248 1172 OFFCURVE",
"248 1098 CURVE SMOOTH",
"248 313 LINE SMOOTH",
"248 148 OFFCURVE",
"194 140 OFFCURVE",
"102 135 CURVE",
"102 0 LINE",
"710 0 LINE",
"710 158 LINE",
"681 157 OFFCURVE",
"580 155 OFFCURVE",
"536 152 CURVE",
"541 187 OFFCURVE",
"544 263 OFFCURVE",
"544 337 CURVE SMOOTH",
"544 518 LINE",
"592 517 OFFCURVE",
"630 517 OFFCURVE",
"693 519 CURVE SMOOTH",
"1080 530 OFFCURVE",
"1267 754 OFFCURVE",
"1273 973 CURVE SMOOTH",
"1282 1299 OFFCURVE",
"1044 1440 OFFCURVE",
"685 1438 CURVE SMOOTH"
);
},
{
closed = 1;
nodes = (
"785 1294 OFFCURVE",
"957 1265 OFFCURVE",
"957 992 CURVE SMOOTH",
"957 783 OFFCURVE",
"862 665 OFFCURVE",
"636 665 CURVE SMOOTH",
"604 665 OFFCURVE",
"573 668 OFFCURVE",
"544 671 CURVE",
"544 1132 LINE SMOOTH",
"544 1276 OFFCURVE",
"595 1294 OFFCURVE",
"682 1294 CURVE SMOOTH"
);
}
);
width = 1308;
}
);
leftKerningGroup = I;
unicode = 0050;
},
{
color = 4;
glyphname = Thorn;
lastChange = "2013-05-24 22:53:37 +0400";
layers = (
{
components = (
{
name = I;
transform = "{1, 0, 0, 1, 0, 0}";
}
);
layerId = UUID0;
name = Regular;
paths = (
{
closed = 1;
nodes = (
"414 1184 LINE",
"426 1104 LINE",
"467 1106 OFFCURVE",
"504 1108 OFFCURVE",
"555 1108 CURVE SMOOTH",
"828 1108 OFFCURVE",
"969 989 OFFCURVE",
"969 772 CURVE SMOOTH",
"969 569 OFFCURVE",
"840 416 OFFCURVE",
"566 410 CURVE SMOOTH",
"514 408 OFFCURVE",
"480 408 OFFCURVE",
"426 416 CURVE",
"412 332 LINE",
"439 330 OFFCURVE",
"471 330 OFFCURVE",
"486 330 CURVE SMOOTH",
"1047 330 OFFCURVE",
"1182 590 OFFCURVE",
"1168 803 CURVE SMOOTH",
"1151 1065 OFFCURVE",
"938 1186 OFFCURVE",
"543 1186 CURVE SMOOTH"
);
}
);
width = 1221;
},
{
layerId = "4C2B4986-1645-43C1-94B7-5E4C57EFF0D9";
name = Bold;
paths = (
{
closed = 1;
nodes = (
"102 1434 LINE",
"102 1276 LINE",
"131 1277 OFFCURVE",
"212 1279 OFFCURVE",
"256 1282 CURVE",
"251 1247 OFFCURVE",
"248 1172 OFFCURVE",
"248 1098 CURVE SMOOTH",
"248 313 LINE SMOOTH",
"248 148 OFFCURVE",
"194 140 OFFCURVE",
"102 135 CURVE",
"102 0 LINE",
"690 0 LINE",
"690 158 LINE",
"661 157 OFFCURVE",
"580 155 OFFCURVE",
"536 152 CURVE",
"540 183 OFFCURVE",
"543 244 OFFCURVE",
"544 309 CURVE",
"585 308 OFFCURVE",
"621 309 OFFCURVE",
"677 311 CURVE SMOOTH",
"1064 322 OFFCURVE",
"1257 516 OFFCURVE",
"1263 735 CURVE SMOOTH",
"1272 1061 OFFCURVE",
"1028 1174 OFFCURVE",
"669 1170 CURVE SMOOTH",
"546 1168 LINE",
"556 1287 OFFCURVE",
"608 1294 OFFCURVE",
"690 1299 CURVE",
"690 1434 LINE"
);
},
{
closed = 1;
nodes = (
"751 1025 OFFCURVE",
"947 1017 OFFCURVE",
"947 754 CURVE SMOOTH",
"947 555 OFFCURVE",
"846 457 OFFCURVE",
"620 457 CURVE SMOOTH",
"593 457 OFFCURVE",
"568 458 OFFCURVE",
"544 461 CURVE",
"544 1024 LINE",
"577 1025 OFFCURVE",
"616 1025 OFFCURVE",
"666 1025 CURVE SMOOTH"
);
}
);
width = 1296;
}
);
leftKerningGroup = I;
unicode = 00DE;
},
{
color = 4;
glyphname = Q;
lastChange = "2013-05-24 22:53:37 +0400";
layers = (
{
components = (
{
name = O;
transform = "{1, 0, 0, 1, 0, 0}";
}
);
layerId = UUID0;
name = Regular;
paths = (
{
closed = 1;
nodes = (
"809 -33 LINE",
"940 -33 OFFCURVE",
"1013 -166 OFFCURVE",
"1198 -332 CURVE SMOOTH",
"1325 -446 OFFCURVE",
"1396 -446 OFFCURVE",
"1544 -446 CURVE SMOOTH",
"1609 -446 LINE",
"1609 -379 LINE",
"1530 -379 OFFCURVE",
"1472 -322 OFFCURVE",
"1282 -145 CURVE SMOOTH",
"1106 18 OFFCURVE",
"1038 -23 OFFCURVE",
"825 -14 CURVE"
);
}
);
width = 1630;
},
{
layerId = "4C2B4986-1645-43C1-94B7-5E4C57EFF0D9";
name = Bold;
paths = (
{
closed = 1;
nodes = (
"307 1467 OFFCURVE",
"73 1060 OFFCURVE",
"73 717 CURVE SMOOTH",
"73 365 OFFCURVE",
"262 -33 OFFCURVE",
"766 -33 CURVE SMOOTH",
"935 -33 OFFCURVE",
"1011 -182 OFFCURVE",
"1185 -335 CURVE SMOOTH",
"1301 -437 OFFCURVE",
"1349 -446 OFFCURVE",
"1538 -446 CURVE SMOOTH",
"1626 -446 LINE",
"1626 -309 LINE",
"1537 -309 OFFCURVE",
"1527 -281 OFFCURVE",
"1337 -104 CURVE SMOOTH",
"1231 -5 OFFCURVE",
"1159 11 OFFCURVE",
"1042 11 CURVE",
"1042 13 LINE",
"1350 129 OFFCURVE",
"1504 445 OFFCURVE",
"1504 717 CURVE SMOOTH",
"1504 1058 OFFCURVE",
"1290 1467 OFFCURVE",
"792 1467 CURVE SMOOTH"
);
},
{
closed = 1;
nodes = (
"1050 1324 OFFCURVE",
"1181 1057 OFFCURVE",
"1181 682 CURVE SMOOTH",
"1181 431 OFFCURVE",
"1090 119 OFFCURVE",
"807 117 CURVE SMOOTH",
"497 115 OFFCURVE",
"395 485 OFFCURVE",
"395 741 CURVE SMOOTH",
"395 994 OFFCURVE",
"484 1310 OFFCURVE",
"765 1317 CURVE SMOOTH"
);
}
);
width = 1576;
}
);
leftKerningGroup = O;
rightKerningGroup = O;
unicode = 0051;
},
{
color = 4;
glyphname = R;
lastChange = "2013-05-24 22:54:16 +0400";
layers = (
{
anchors = (
{
name = bottom;
position = "{684, 0}";
},
{
name = top;
position = "{643, 1434}";
}
);
layerId = UUID0;
name = Regular;
paths = (
{
closed = 1;
nodes = (
"424 1439 OFFCURVE",
"267 1436 OFFCURVE",
"113 1434 CURVE",
"113 1343 LINE",
"261 1352 LINE",
"256 1311 OFFCURVE",
"254 1260 OFFCURVE",
"254 1204 CURVE SMOOTH",
"254 319 LINE SMOOTH",
"254 174 OFFCURVE",
"267 74 OFFCURVE",
"113 68 CURVE",
"113 0 LINE",
"574 0 LINE",
"574 90 LINE",
"426 82 LINE",
"431 117 OFFCURVE",
"433 170 OFFCURVE",
"433 244 CURVE SMOOTH",
"433 642 LINE",
"480 638 OFFCURVE",
"527 637 OFFCURVE",
"572 640 CURVE SMOOTH",
"628 587 OFFCURVE",
"672 504 OFFCURVE",
"709 446 CURVE SMOOTH",
"846 227 LINE SMOOTH",
"904 137 OFFCURVE",
"949 70 OFFCURVE",
"1029 0 CURVE",
"1287 0 LINE",
"1287 68 LINE",
"1158 68 OFFCURVE",
"1106 152 OFFCURVE",
"1037 262 CURVE SMOOTH",
"897 481 LINE SMOOTH",
"846 561 OFFCURVE",
"808 621 OFFCURVE",
"755 660 CURVE",
"1066 723 OFFCURVE",
"1140 909 OFFCURVE",
"1139 1069 CURVE SMOOTH",
"1138 1296 OFFCURVE",
"977 1429 OFFCURVE",
"582 1436 CURVE SMOOTH"
);
},
{
closed = 1;
nodes = (
"826 1358 OFFCURVE",
"940 1253 OFFCURVE",
"940 1047 CURVE SMOOTH",
"940 811 OFFCURVE",
"783 725 OFFCURVE",
"560 717 CURVE SMOOTH",
"512 715 OFFCURVE",
"476 717 OFFCURVE",
"433 720 CURVE",
"433 1114 LINE SMOOTH",
"433 1260 OFFCURVE",
"420 1358 OFFCURVE",
"574 1358 CURVE SMOOTH"
);
}
);
width = 1286;
},
{
anchors = (
{
name = bottom;
position = "{786, 0}";
},
{
name = top;
position = "{702, 1434}";
}
);
layerId = "4C2B4986-1645-43C1-94B7-5E4C57EFF0D9";
name = Bold;
paths = (
{
closed = 1;
nodes = (
"102 1434 LINE",
"102 1276 LINE",
"131 1277 OFFCURVE",
"212 1279 OFFCURVE",
"256 1282 CURVE",
"251 1247 OFFCURVE",
"248 1172 OFFCURVE",
"248 1098 CURVE SMOOTH",
"248 313 LINE SMOOTH",
"248 148 OFFCURVE",
"194 140 OFFCURVE",
"102 135 CURVE",
"102 0 LINE",
"710 0 LINE",
"710 158 LINE",
"681 157 OFFCURVE",
"580 155 OFFCURVE",
"536 152 CURVE",
"541 187 OFFCURVE",
"544 263 OFFCURVE",
"544 337 CURVE SMOOTH",
"544 558 LINE",
"584 557 OFFCURVE",
"608 557 OFFCURVE",
"652 558 CURVE",
"677 529 OFFCURVE",
"703 494 OFFCURVE",
"738 438 CURVE SMOOTH",
"888 193 LINE SMOOTH",
"942 105 OFFCURVE",
"990 35 OFFCURVE",
"1039 0 CURVE",
"1376 0 LINE",
"1376 135 LINE",
"1284 140 OFFCURVE",
"1238 189 OFFCURVE",
"1147 327 CURVE SMOOTH",
"1051 472 LINE SMOOTH",
"1015 527 OFFCURVE",
"961 580 OFFCURVE",
"910 600 CURVE",
"910 602 LINE",
"1148 669 OFFCURVE",
"1264 823 OFFCURVE",
"1269 997 CURVE SMOOTH",
"1278 1323 OFFCURVE",
"1044 1440 OFFCURVE",
"685 1438 CURVE SMOOTH"
);
},
{
closed = 1;
nodes = (
"765 1294 OFFCURVE",
"961 1276 OFFCURVE",
"961 1013 CURVE SMOOTH",
"961 804 OFFCURVE",
"870 705 OFFCURVE",
"644 705 CURVE SMOOTH",
"609 705 OFFCURVE",
"576 708 OFFCURVE",
"544 712 CURVE",
"544 1132 LINE SMOOTH",
"544 1276 OFFCURVE",
"595 1294 OFFCURVE",
"682 1294 CURVE SMOOTH"
);
}
);
width = 1404;
}
);
leftKerningGroup = I;
unicode = 0052;
},
{
color = 4;
glyphname = S;
lastChange = "2014-06-18 13:38:39 +0400";
layers = (
{
anchors = (
{
name = bottom;
position = "{622, 0}";
},
{
name = top;
position = "{558, 1434}";
}
);
layerId = UUID0;
name = Regular;
paths = (
{
closed = 1;
nodes = (
"207 1467 OFFCURVE",
"123 1245 OFFCURVE",
"123 1106 CURVE SMOOTH",
"123 623 OFFCURVE",
"895 707 OFFCURVE",
"895 309 CURVE SMOOTH",
"895 143 OFFCURVE",
"760 53 OFFCURVE",
"600 53 CURVE SMOOTH",
"383 53 OFFCURVE",
"213 178 OFFCURVE",
"198 420 CURVE",
"119 420 LINE",
"131 -16 LINE",
"237 -16 LINE",
"227 72 LINE",
"328 2 OFFCURVE",
"469 -33 OFFCURVE",
"592 -33 CURVE SMOOTH",
"897 -33 OFFCURVE",
"1071 129 OFFCURVE",
"1071 356 CURVE SMOOTH",
"1071 842 OFFCURVE",
"291 770 OFFCURVE",
"291 1145 CURVE SMOOTH",
"291 1274 OFFCURVE",
"383 1385 OFFCURVE",
"553 1385 CURVE SMOOTH",
"792 1385 OFFCURVE",
"905 1197 OFFCURVE",
"917 1000 CURVE",
"991 1000 LINE",
"991 1449 LINE",
"887 1449 LINE",
"895 1361 LINE",
"783 1443 OFFCURVE",
"644 1467 OFFCURVE",
"538 1467 CURVE SMOOTH"
);
}
);
width = 1161;
},
{
anchors = (
{
name = bottom;
position = "{641, 0}";
},
{
name = top;
position = "{613, 1434}";
}
);
layerId = "4C2B4986-1645-43C1-94B7-5E4C57EFF0D9";
name = Bold;
paths = (
{
closed = 1;
nodes = (
"205 1467 OFFCURVE",
"89 1245 OFFCURVE",
"89 1076 CURVE SMOOTH",
"89 807 OFFCURVE",
"288 675 OFFCURVE",
"552 569 CURVE SMOOTH",
"707 507 OFFCURVE",
"881 451 OFFCURVE",
"881 308 CURVE SMOOTH",
"881 202 OFFCURVE",
"780 115 OFFCURVE",
"634 115 CURVE SMOOTH",
"443 115 OFFCURVE",
"292 231 OFFCURVE",
"255 460 CURVE",
"121 460 LINE",
"121 -19 LINE",
"279 -19 LINE",
"272 68 LINE",
"274 68 LINE",
"383 2 OFFCURVE",
"521 -33 OFFCURVE",
"628 -33 CURVE SMOOTH",
"945 -33 OFFCURVE",
"1154 138 OFFCURVE",
"1154 380 CURVE SMOOTH",
"1154 648 OFFCURVE",
"892 774 OFFCURVE",
"686 857 CURVE SMOOTH",
"460 948 OFFCURVE",
"355 1015 OFFCURVE",
"355 1143 CURVE SMOOTH",
"355 1245 OFFCURVE",
"459 1318 OFFCURVE",
"575 1319 CURVE SMOOTH",
"766 1321 OFFCURVE",
"893 1203 OFFCURVE",
"930 974 CURVE",
"1064 974 LINE",
"1064 1453 LINE",
"906 1453 LINE",
"913 1369 LINE",
"911 1369 LINE",
"821 1434 OFFCURVE",
"675 1467 OFFCURVE",
"568 1467 CURVE SMOOTH"
);
}
);
width = 1225;
}
);
leftKerningGroup = S;
rightKerningGroup = S;
unicode = 0053;
},
{
color = 4;
glyphname = T;
lastChange = "2014-06-18 09:17:12 +0400";
layers = (
{
anchors = (
{
name = bottom;
position = "{658, 0}";
},
{
name = center;
position = "{656, 717}";
},
{
name = top;
position = "{656, 1434}";
}
);
layerId = UUID0;
name = Regular;
paths = (
{
closed = 1;
nodes = (
"57 1434 LINE",
"45 1001 LINE",
"121 1001 LINE",
"121 1243 OFFCURVE",
"184 1355 OFFCURVE",
"356 1356 CURVE SMOOTH",
"568 1357 LINE",
"565 319 LINE SMOOTH",
"565 180 OFFCURVE",
"579 74 OFFCURVE",
"426 68 CURVE",
"426 0 LINE",
"907 0 LINE",
"907 90 LINE",
"737 82 LINE",
"741 117 OFFCURVE",
"743 170 OFFCURVE",
"743 244 CURVE SMOOTH",
"746 1359 LINE",
"919 1360 LINE SMOOTH",
"1130 1361 OFFCURVE",
"1182 1243 OFFCURVE",
"1186 1001 CURVE",
"1263 1001 LINE",
"1251 1434 LINE"
);
}
);
width = 1311;
},
{
anchors = (
{
name = bottom;
position = "{657, 0}";
},
{
name = center;
position = "{666, 717}";
},
{
name = top;
position = "{666, 1434}";
}
);
layerId = "4C2B4986-1645-43C1-94B7-5E4C57EFF0D9";
name = Bold;
paths = (
{
closed = 1;
nodes = (
"44 1434 LINE",
"32 970 LINE",
"167 970 LINE",
"167 1192 OFFCURVE",
"265 1293 OFFCURVE",
"420 1294 CURVE SMOOTH",
"515 1294 LINE",
"515 313 LINE SMOOTH",
"515 148 OFFCURVE",
"461 140 OFFCURVE",
"369 135 CURVE",
"369 0 LINE",
"967 0 LINE",
"967 158 LINE",
"938 157 OFFCURVE",
"847 155 OFFCURVE",
"803 152 CURVE",
"808 187 OFFCURVE",
"811 262 OFFCURVE",
"811 336 CURVE SMOOTH",
"811 1296 LINE",
"909 1297 LINE SMOOTH",
"1064 1298 OFFCURVE",
"1162 1192 OFFCURVE",
"1162 970 CURVE",
"1297 970 LINE",
"1285 1434 LINE"
);
}
);
width = 1331;
}
);
unicode = 0054;
},
{
color = 4;
glyphname = U;
lastChange = "2013-05-24 23:19:02 +0400";
layers = (
{
anchors = (
{
name = ogonek;
position = "{1018, 11}";
},
{
name = top;
position = "{794, 1434}";
}
);
layerId = UUID0;
name = Regular;
paths = (
{
closed = 1;
nodes = (
"1097 1434 LINE",
"1097 1343 LINE",
"1244 1352 LINE",
"1240 1311 OFFCURVE",
"1238 1260 OFFCURVE",
"1238 1204 CURVE SMOOTH",
"1230 629 LINE SMOOTH",
"1226 309 OFFCURVE",
"1101 84 OFFCURVE",
"806 84 CURVE SMOOTH",
"439 84 OFFCURVE",
"382 383 OFFCURVE",
"382 688 CURVE SMOOTH",
"382 1204 LINE SMOOTH",
"382 1260 OFFCURVE",
"384 1366 OFFCURVE",
"523 1366 CURVE",
"523 1434 LINE",
"63 1434 LINE",
"63 1346 LINE",
"210 1352 LINE",
"206 1298 OFFCURVE",
"202 1186 OFFCURVE",
"202 1114 CURVE SMOOTH",
"202 698 LINE SMOOTH",
"202 192 OFFCURVE",
"343 -33 OFFCURVE",
"781 -33 CURVE SMOOTH",
"1191 -33 OFFCURVE",
"1330 283 OFFCURVE",
"1332 639 CURVE SMOOTH",
"1336 1114 LINE SMOOTH",
"1336 1260 OFFCURVE",
"1324 1360 OFFCURVE",
"1478 1366 CURVE",
"1478 1434 LINE"
);
}
);
width = 1540;
},
{
anchors = (
{
name = ogonek;
position = "{1042, 10}";
},
{
name = top;
position = "{788, 1434}";
}
);
layerId = "4C2B4986-1645-43C1-94B7-5E4C57EFF0D9";
name = Bold;
paths = (
{
closed = 1;
nodes = (
"1033 1434 LINE",
"1033 1276 LINE",
"1062 1277 OFFCURVE",
"1143 1279 OFFCURVE",
"1187 1282 CURVE",
"1182 1247 OFFCURVE",
"1179 1172 OFFCURVE",
"1179 1098 CURVE SMOOTH",
"1179 561 LINE SMOOTH",
"1179 259 OFFCURVE",
"1046 115 OFFCURVE",
"821 123 CURVE SMOOTH",
"655 129 OFFCURVE",
"496 215 OFFCURVE",
"496 558 CURVE SMOOTH",
"496 1121 LINE SMOOTH",
"496 1286 OFFCURVE",
"550 1294 OFFCURVE",
"642 1299 CURVE",
"642 1434 LINE",
"53 1434 LINE",
"53 1276 LINE",
"82 1277 OFFCURVE",
"163 1279 OFFCURVE",
"207 1282 CURVE",
"202 1247 OFFCURVE",
"199 1172 OFFCURVE",
"199 1098 CURVE SMOOTH",
"199 602 LINE SMOOTH",
"199 251 OFFCURVE",
"327 -33 OFFCURVE",
"789 -33 CURVE SMOOTH",
"1116 -33 OFFCURVE",
"1361 137 OFFCURVE",
"1361 608 CURVE SMOOTH",
"1361 1121 LINE SMOOTH",
"1361 1286 OFFCURVE",
"1415 1294 OFFCURVE",
"1507 1299 CURVE",
"1507 1434 LINE"
);
}
);
width = 1556;
}
);
leftKerningGroup = U;
rightKerningGroup = U;
unicode = 0055;
},
{
color = 4;
glyphname = V;
lastChange = "2013-05-24 22:53:36 +0400";
layers = (
{
layerId = UUID0;
name = Regular;
paths = (
{
closed = 1;
nodes = (
"959 1434 LINE",
"959 1343 LINE",
"1116 1352 LINE",
"1100 1319 OFFCURVE",
"1081 1270 OFFCURVE",
"1057 1200 CURVE SMOOTH",
"1014 1079 OFFCURVE",
"950 905 OFFCURVE",
"830 563 CURVE SMOOTH",
"787 442 OFFCURVE",
"758 365 OFFCURVE",
"727 270 CURVE",
"723 270 LINE",
"690 362 OFFCURVE",
"623 512 OFFCURVE",
"557 666 CURVE SMOOTH",
"483 840 OFFCURVE",
"428 981 OFFCURVE",
"363 1143 CURVE SMOOTH",
"307 1278 OFFCURVE",
"328 1356 OFFCURVE",
"465 1364 CURVE",
"467 1366 LINE",
"467 1434 LINE",
"-8 1434 LINE",
"-8 1343 LINE",
"107 1348 LINE",
"115 1286 OFFCURVE",
"135 1208 OFFCURVE",
"195 1069 CURVE SMOOTH",
"660 -20 LINE",
"717 -20 LINE",
"1118 1079 OFFCURVE",
"1132 1121 OFFCURVE",
"1148 1165 CURVE SMOOTH",
"1200 1313 OFFCURVE",
"1253 1360 OFFCURVE",
"1374 1366 CURVE",
"1374 1434 LINE"
);
}
);
width = 1337;
},
{
layerId = "4C2B4986-1645-43C1-94B7-5E4C57EFF0D9";
name = Bold;
paths = (
{
closed = 1;
nodes = (
"989 1434 LINE",
"989 1276 LINE",
"1018 1277 OFFCURVE",
"1102 1281 OFFCURVE",
"1146 1284 CURVE",
"1146 1282 LINE",
"1111 1240 OFFCURVE",
"1078 1141 OFFCURVE",
"1062 1096 CURVE SMOOTH",
"907 667 LINE SMOOTH",
"874 574 OFFCURVE",
"838 467 OFFCURVE",
"808 386 CURVE",
"806 386 LINE",
"764 490 OFFCURVE",
"737 564 OFFCURVE",
"690 677 CURVE SMOOTH",
"501 1141 LINE SMOOTH",
"453 1262 OFFCURVE",
"518 1301 OFFCURVE",
"620 1299 CURVE",
"620 1434 LINE",
"17 1434 LINE",
"17 1276 LINE",
"46 1277 OFFCURVE",
"82 1279 OFFCURVE",
"126 1282 CURVE",
"126 1238 OFFCURVE",
"155 1155 OFFCURVE",
"184 1087 CURVE SMOOTH",
"656 -12 LINE",
"824 -12 LINE",
"1233 1080 LINE SMOOTH",
"1292 1237 OFFCURVE",
"1358 1294 OFFCURVE",
"1450 1299 CURVE",
"1450 1434 LINE"
);
}
);
width = 1449;
}
);
unicode = 0056;
},
{
color = 4;
glyphname = W;
lastChange = "2013-05-24 22:53:36 +0400";
layers = (
{
anchors = (
{
name = top;
position = "{1050, 1434}";
}
);
layerId = UUID0;
name = Regular;
paths = (
{
closed = 1;
nodes = (
"1013 1438 LINE",
"978 1315 OFFCURVE",
"857 956 OFFCURVE",
"741 592 CURVE SMOOTH",
"722 537 OFFCURVE",
"685 414 OFFCURVE",
"657 322 CURVE",
"653 322 LINE",
"612 451 OFFCURVE",
"573 543 OFFCURVE",
"534 666 CURVE SMOOTH",
"481 831 OFFCURVE",
"427 963 OFFCURVE",
"378 1143 CURVE SMOOTH",
"333 1307 OFFCURVE",
"352 1358 OFFCURVE",
"511 1366 CURVE",
"511 1434 LINE",
"14 1434 LINE",
"14 1343 LINE",
"130 1348 LINE",
"141 1286 OFFCURVE",
"167 1212 OFFCURVE",
"216 1069 CURVE SMOOTH",
"581 -20 LINE",
"640 -20 LINE",
"1001 1075 LINE",
"1384 -20 LINE",
"1445 -20 LINE",
"1574 334 OFFCURVE",
"1689 692 OFFCURVE",
"1814 1063 CURVE SMOOTH",
"1900 1315 OFFCURVE",
"1929 1350 OFFCURVE",
"2068 1366 CURVE",
"2068 1434 LINE",
"1652 1434 LINE",
"1652 1343 LINE",
"1816 1350 LINE",
"1790 1303 OFFCURVE",
"1769 1245 OFFCURVE",
"1754 1200 CURVE SMOOTH",
"1711 1073 OFFCURVE",
"1683 967 OFFCURVE",
"1543 561 CURVE SMOOTH",
"1511 468 OFFCURVE",
"1482 376 OFFCURVE",
"1458 297 CURVE",
"1453 297 LINE",
"1415 426 OFFCURVE",
"1371 543 OFFCURVE",
"1333 666 CURVE SMOOTH",
"1279 831 OFFCURVE",
"1130 1257 OFFCURVE",
"1079 1438 CURVE"
);
}
);
width = 2038;
},
{
anchors = (
{
name = top;
position = "{1083, 1434}";
}
);
layerId = "4C2B4986-1645-43C1-94B7-5E4C57EFF0D9";
name = Bold;
paths = (
{
closed = 1;
nodes = (
"1622 1434 LINE",
"1622 1276 LINE",
"1651 1277 OFFCURVE",
"1735 1281 OFFCURVE",
"1779 1284 CURVE",
"1779 1282 LINE",
"1738 1238 OFFCURVE",
"1713 1161 OFFCURVE",
"1695 1096 CURVE SMOOTH",
"1581 667 LINE SMOOTH",
"1555 568 OFFCURVE",
"1527 474 OFFCURVE",
"1503 384 CURVE",
"1501 384 LINE",
"1478 486 OFFCURVE",
"1456 585 OFFCURVE",
"1427 679 CURVE SMOOTH",
"1195 1434 LINE",
"1010 1434 LINE",
"820 806 LINE SMOOTH",
"802 747 OFFCURVE",
"722 462 OFFCURVE",
"703 387 CURVE",
"701 387 LINE",
"676 519 OFFCURVE",
"657 584 OFFCURVE",
"632 677 CURVE SMOOTH",
"509 1145 LINE SMOOTH",
"474 1270 OFFCURVE",
"528 1301 OFFCURVE",
"630 1299 CURVE",
"630 1434 LINE",
"27 1434 LINE",
"27 1276 LINE",
"56 1277 OFFCURVE",
"92 1279 OFFCURVE",
"136 1282 CURVE",
"136 1238 OFFCURVE",
"165 1159 OFFCURVE",
"194 1091 CURVE",
"559 -12 LINE",
"737 -12 LINE",
"970 756 LINE SMOOTH",
"998 848 OFFCURVE",
"1016 930 OFFCURVE",
"1031 1023 CURVE",
"1033 1023 LINE",
"1052 930 OFFCURVE",
"1071 828 OFFCURVE",
"1107 721 CURVE SMOOTH",
"1350 -12 LINE",
"1531 -12 LINE",
"1866 1080 LINE SMOOTH",
"1918 1239 OFFCURVE",
"1991 1294 OFFCURVE",
"2083 1299 CURVE",
"2083 1434 LINE"
);
}
);
width = 2080;
}
);
unicode = 0057;
},
{
color = 4;
glyphname = X;
lastChange = "2013-05-24 22:53:36 +0400";
layers = (
{
layerId = UUID0;
name = Regular;
paths = (
{
closed = 1;
nodes = (
"872 1434 LINE",
"872 1343 LINE",
"1044 1352 LINE",
"1001 1313 OFFCURVE",
"932 1213 OFFCURVE",
"863 1114 CURVE SMOOTH",
"666 830 LINE",
"559 976 OFFCURVE",
"461 1114 OFFCURVE",
"411 1196 CURVE SMOOTH",
"364 1272 OFFCURVE",
"310 1355 OFFCURVE",
"458 1362 CURVE SMOOTH",
"548 1366 LINE",
"548 1434 LINE",
"18 1434 LINE",
"18 1343 LINE",
"132 1348 LINE",
"177 1237 OFFCURVE",
"214 1197 OFFCURVE",
"571 694 CURVE",
"306 313 LINE SMOOTH",
"212 178 OFFCURVE",
"155 94 OFFCURVE",
"24 68 CURVE",
"24 0 LINE",
"427 0 LINE",
"427 90 LINE",
"257 80 LINE",
"323 158 OFFCURVE",
"374 240 OFFCURVE",
"423 313 CURVE SMOOTH",
"491 415 OFFCURVE",
"559 516 OFFCURVE",
"627 615 CURVE",
"751 441 OFFCURVE",
"865 302 OFFCURVE",
"927 217 CURVE SMOOTH",
"976 150 OFFCURVE",
"999 61 OFFCURVE",
"841 68 CURVE",
"841 0 LINE",
"1343 0 LINE",
"1343 90 LINE",
"1224 86 LINE",
"1083 276 LINE SMOOTH",
"1020 361 OFFCURVE",
"868 557 OFFCURVE",
"723 753 CURVE",
"954 1081 LINE SMOOTH",
"1041 1205 OFFCURVE",
"1144 1348 OFFCURVE",
"1275 1366 CURVE",
"1275 1434 LINE"
);
}
);
width = 1329;
},
{
layerId = "4C2B4986-1645-43C1-94B7-5E4C57EFF0D9";
name = Bold;
paths = (
{
closed = 1;
nodes = (
"868 1434 LINE",
"868 1276 LINE",
"897 1277 OFFCURVE",
"977 1281 OFFCURVE",
"1021 1284 CURVE",
"1021 1282 LINE",
"986 1250 OFFCURVE",
"958 1220 OFFCURVE",
"901 1143 CURVE SMOOTH",
"745 927 LINE",
"743 927 LINE",
"563 1159 LINE SMOOTH",
"502 1237 OFFCURVE",
"502 1299 OFFCURVE",
"652 1299 CURVE",
"652 1434 LINE",
"28 1434 LINE",
"28 1276 LINE",
"57 1277 OFFCURVE",
"87 1279 OFFCURVE",
"131 1282 CURVE",
"151 1223 OFFCURVE",
"188 1147 OFFCURVE",
"234 1089 CURVE SMOOTH",
"564 672 LINE",
"326 354 LINE SMOOTH",
"226 219 OFFCURVE",
"149 153 OFFCURVE",
"72 135 CURVE",
"72 0 LINE",
"523 0 LINE",
"523 158 LINE",
"494 157 OFFCURVE",
"421 153 OFFCURVE",
"377 150 CURVE",
"377 152 LINE",
"409 184 OFFCURVE",
"433 214 OFFCURVE",
"490 291 CURVE SMOOTH",
"669 539 LINE",
"671 539 LINE",
"879 275 LINE SMOOTH",
"941 197 OFFCURVE",
"961 135 OFFCURVE",
"811 135 CURVE",
"811 0 LINE",
"1423 0 LINE",
"1423 158 LINE",
"1394 157 OFFCURVE",
"1384 155 OFFCURVE",
"1340 152 CURVE",
"1318 197 OFFCURVE",
"1279 249 OFFCURVE",
"1233 307 CURVE SMOOTH",
"847 798 LINE",
"1044 1067 LINE SMOOTH",
"1153 1216 OFFCURVE",
"1239 1286 OFFCURVE",
"1334 1299 CURVE",
"1334 1434 LINE"
);
}
);
width = 1432;
}
);
unicode = 0058;
},
{
color = 4;
glyphname = Y;
lastChange = "2013-05-24 22:53:39 +0400";
layers = (
{
anchors = (
{
name = top;
position = "{677, 1434}";
}
);
layerId = UUID0;
name = Regular;
paths = (
{
closed = 1;
nodes = (
"901 1434 LINE",
"901 1343 LINE",
"1063 1350 LINE",
"1024 1307 OFFCURVE",
"985 1233 OFFCURVE",
"965 1194 CURVE SMOOTH",
"877 1028 OFFCURVE",
"799 883 OFFCURVE",
"703 696 CURVE",
"699 696 LINE",
"582 860 OFFCURVE",
"510 981 OFFCURVE",
"408 1143 CURVE SMOOTH",
"326 1274 OFFCURVE",
"328 1366 OFFCURVE",
"516 1366 CURVE",
"516 1434 LINE",
"-12 1434 LINE",
"-12 1343 LINE",
"115 1348 LINE",
"125 1296 OFFCURVE",
"156 1225 OFFCURVE",
"226 1116 CURVE SMOOTH",
"581 553 LINE",
"580 319 LINE SMOOTH",
"580 180 OFFCURVE",
"594 74 OFFCURVE",
"441 68 CURVE",
"441 0 LINE",
"922 0 LINE",
"922 90 LINE",
"752 82 LINE",
"756 117 OFFCURVE",
"758 170 OFFCURVE",
"758 244 CURVE SMOOTH",
"756 245 OFFCURVE",
"758 514 OFFCURVE",
"759 614 CURVE",
"839 765 OFFCURVE",
"923 925 OFFCURVE",
"1018 1102 CURVE SMOOTH",
"1112 1276 OFFCURVE",
"1184 1358 OFFCURVE",
"1319 1366 CURVE",
"1319 1434 LINE"
);
}
);
width = 1298;
},
{
anchors = (
{
name = top;
position = "{707, 1434}";
}
);
layerId = "4C2B4986-1645-43C1-94B7-5E4C57EFF0D9";
name = Bold;
paths = (
{
closed = 1;
nodes = (
"905 1434 LINE",
"905 1276 LINE",
"934 1277 OFFCURVE",
"1018 1281 OFFCURVE",
"1062 1284 CURVE",
"1062 1282 LINE",
"1027 1240 OFFCURVE",
"975 1139 OFFCURVE",
"954 1096 CURVE SMOOTH",
"848 887 LINE SMOOTH",
"798 783 OFFCURVE",
"765 718 OFFCURVE",
"752 687 CURVE",
"749 687 LINE",
"727 745 OFFCURVE",
"664 852 OFFCURVE",
"646 884 CURVE SMOOTH",
"489 1141 LINE SMOOTH",
"424 1254 OFFCURVE",
"491 1306 OFFCURVE",
"610 1299 CURVE",
"610 1434 LINE",
"7 1434 LINE",
"7 1276 LINE",
"36 1277 OFFCURVE",
"62 1279 OFFCURVE",
"106 1282 CURVE",
"106 1238 OFFCURVE",
"145 1150 OFFCURVE",
"184 1087 CURVE SMOOTH",
"562 492 LINE",
"562 313 LINE SMOOTH",
"562 148 OFFCURVE",
"508 140 OFFCURVE",
"416 135 CURVE",
"416 0 LINE",
"1014 0 LINE",
"1014 158 LINE",
"985 157 OFFCURVE",
"894 155 OFFCURVE",
"850 152 CURVE",
"855 187 OFFCURVE",
"858 262 OFFCURVE",
"858 336 CURVE SMOOTH",
"858 568 LINE",
"1125 1080 LINE SMOOTH",
"1205 1228 OFFCURVE",
"1262 1284 OFFCURVE",
"1357 1299 CURVE",
"1357 1434 LINE"
);
}
);
width = 1365;
}
);
leftKerningGroup = Y;
rightKerningGroup = Y;
unicode = 0059;
},
{
color = 4;
glyphname = Z;
lastChange = "2013-05-24 22:53:36 +0400";
layers = (
{
anchors = (
{
name = top;
position = "{625, 1434}";
}
);
layerId = UUID0;
name = Regular;
paths = (
{
closed = 1;
nodes = (
"125 1434 LINE",
"113 1010 LINE",
"183 1010 LINE",
"183 1243 OFFCURVE",
"262 1343 OFFCURVE",
"424 1350 CURVE SMOOTH",
"946 1358 LINE",
"895 1298 OFFCURVE",
"854 1235 OFFCURVE",
"815 1174 CURVE SMOOTH",
"477 635 OFFCURVE",
"242 309 OFFCURVE",
"88 94 CURVE",
"88 0 LINE",
"1139 0 LINE",
"1151 420 LINE",
"1082 420 LINE",
"1082 190 OFFCURVE",
"944 86 OFFCURVE",
"764 84 CURVE SMOOTH",
"266 76 LINE",
"309 115 OFFCURVE",
"346 158 OFFCURVE",
"406 246 CURVE SMOOTH",
"1141 1362 LINE",
"1141 1434 LINE"
);
}
);
width = 1249;
},
{
anchors = (
{
name = top;
position = "{643, 1434}";
}
);
layerId = "4C2B4986-1645-43C1-94B7-5E4C57EFF0D9";
name = Bold;
paths = (
{
closed = 1;
nodes = (
"105 1434 LINE",
"93 997 LINE",
"228 997 LINE",
"228 1219 OFFCURVE",
"335 1304 OFFCURVE",
"487 1300 CURVE SMOOTH",
"838 1291 LINE",
"838 1289 LINE",
"787 1226 OFFCURVE",
"745 1165 OFFCURVE",
"695 1088 CURVE SMOOTH",
"82 154 LINE",
"82 0 LINE",
"1137 0 LINE",
"1149 438 LINE",
"1014 438 LINE",
"1014 216 OFFCURVE",
"907 133 OFFCURVE",
"755 136 CURVE SMOOTH",
"381 144 LINE",
"381 146 LINE",
"442 218 OFFCURVE",
"500 302 OFFCURVE",
"557 388 CURVE SMOOTH",
"1147 1280 LINE",
"1147 1434 LINE"
);
}
);
width = 1237;
}
);
leftKerningGroup = Z;
rightKerningGroup = Z;
unicode = 005A;
},
{
color = 4;
glyphname = a;
lastChange = "2013-05-24 22:53:37 +0400";
layers = (
{
anchors = (
{
name = ogonek;
position = "{961, 10}";
},
{
name = top;
position = "{514, 1024}";
}
);
layerId = UUID0;
name = Regular;
paths = (
{
closed = 1;
nodes = (
"302 1057 OFFCURVE",
"132 948 OFFCURVE",
"132 811 CURVE SMOOTH",
"132 756 OFFCURVE",
"162 711 OFFCURVE",
"219 710 CURVE SMOOTH",
"287 708 OFFCURVE",
"311 764 OFFCURVE",
"311 797 CURVE SMOOTH",
"311 822 OFFCURVE",
"305 851 OFFCURVE",
"285 874 CURVE",
"324 952 OFFCURVE",
"418 984 OFFCURVE",
"498 982 CURVE SMOOTH",
"676 976 OFFCURVE",
"695 840 OFFCURVE",
"695 699 CURVE SMOOTH",
"695 571 LINE",
"421 576 OFFCURVE",
"70 463 OFFCURVE",
"70 210 CURVE SMOOTH",
"70 73 OFFCURVE",
"170 -33 OFFCURVE",
"376 -33 CURVE SMOOTH",
"497 -33 OFFCURVE",
"607 25 OFFCURVE",
"699 116 CURVE",
"702 78 OFFCURVE",
"705 47 OFFCURVE",
"713 0 CURVE",
"1006 0 LINE",
"1006 86 LINE",
"861 78 LINE",
"867 133 OFFCURVE",
"869 174 OFFCURVE",
"869 217 CURVE SMOOTH",
"871 677 LINE SMOOTH",
"873 941 OFFCURVE",
"766 1057 OFFCURVE",
"537 1057 CURVE SMOOTH"
);
},
{
closed = 1;
nodes = (
"694 406 OFFCURVE",
"693 321 OFFCURVE",
"693 310 CURVE SMOOTH",
"693 271 OFFCURVE",
"693 235 OFFCURVE",
"694 204 CURVE",
"612 128 OFFCURVE",
"534 84 OFFCURVE",
"424 84 CURVE SMOOTH",
"339 84 OFFCURVE",
"269 134 OFFCURVE",
"265 235 CURVE SMOOTH",
"258 428 OFFCURVE",
"506 495 OFFCURVE",
"694 501 CURVE"
);
}
);
width = 1057;
},
{
anchors = (
{
name = ogonek;
position = "{967, 10}";
},
{
name = top;
position = "{516, 1024}";
}
);
layerId = "4C2B4986-1645-43C1-94B7-5E4C57EFF0D9";
name = Bold;
paths = (
{
closed = 1;
nodes = (
"298 1057 OFFCURVE",
"106 948 OFFCURVE",
"106 787 CURVE SMOOTH",
"106 712 OFFCURVE",
"152 649 OFFCURVE",
"233 647 CURVE SMOOTH",
"329 645 OFFCURVE",
"371 718 OFFCURVE",
"371 775 CURVE SMOOTH",
"371 795 OFFCURVE",
"367 828 OFFCURVE",
"346 851 CURVE",
"380 887 OFFCURVE",
"432 908 OFFCURVE",
"486 910 CURVE SMOOTH",
"598 914 OFFCURVE",
"632 829 OFFCURVE",
"632 723 CURVE SMOOTH",
"632 616 LINE",
"358 605 OFFCURVE",
"61 499 OFFCURVE",
"61 240 CURVE SMOOTH",
"61 84 OFFCURVE",
"164 -33 OFFCURVE",
"340 -33 CURVE SMOOTH",
"447 -33 OFFCURVE",
"551 1 OFFCURVE",
"643 94 CURVE",
"645 94 LINE",
"647 59 OFFCURVE",
"648 39 OFFCURVE",
"653 0 CURVE",
"1040 0 LINE",
"1040 156 LINE",
"1011 155 OFFCURVE",
"952 153 OFFCURVE",
"908 150 CURVE",
"913 211 OFFCURVE",
"915 290 OFFCURVE",
"915 329 CURVE SMOOTH",
"915 469 OFFCURVE",
"917 526 OFFCURVE",
"917 665 CURVE SMOOTH",
"917 938 OFFCURVE",
"778 1057 OFFCURVE",
"538 1057 CURVE SMOOTH"
);
},
{
closed = 1;
nodes = (
"630 242 LINE",
"588 196 OFFCURVE",
"531 167 OFFCURVE",
"468 167 CURVE SMOOTH",
"410 167 OFFCURVE",
"355 198 OFFCURVE",
"353 274 CURVE SMOOTH",
"350 391 OFFCURVE",
"478 456 OFFCURVE",
"631 471 CURVE"
);
}
);
width = 1074;
}
);
leftKerningGroup = a;
rightKerningGroup = a;
unicode = 0061;
},
{
color = 4;
glyphname = ae;
lastChange = "2013-05-24 22:53:39 +0400";
layers = (
{
layerId = UUID0;
name = Regular;
paths = (
{
closed = 1;
nodes = (
"987 1057 OFFCURVE",
"875 984 OFFCURVE",
"799 880 CURVE",
"750 990 OFFCURVE",
"653 1057 OFFCURVE",
"516 1057 CURVE SMOOTH",
"280 1057 OFFCURVE",
"136 927 OFFCURVE",
"136 804 CURVE SMOOTH",
"136 743 OFFCURVE",
"170 707 OFFCURVE",
"221 706 CURVE SMOOTH",
"286 705 OFFCURVE",
"310 761 OFFCURVE",
"310 793 CURVE SMOOTH",
"310 809 OFFCURVE",
"301 843 OFFCURVE",
"282 860 CURVE",
"311 934 OFFCURVE",
"396 982 OFFCURVE",
"486 982 CURVE SMOOTH",
"671 982 OFFCURVE",
"689 834 OFFCURVE",
"689 688 CURVE SMOOTH",
"689 563 LINE",
"416 567 OFFCURVE",
"70 457 OFFCURVE",
"70 205 CURVE SMOOTH",
"70 68 OFFCURVE",
"183 -33 OFFCURVE",
"369 -33 CURVE SMOOTH",
"516 -33 OFFCURVE",
"653 19 OFFCURVE",
"757 161 CURVE",
"759 161 LINE",
"835 25 OFFCURVE",
"964 -33 OFFCURVE",
"1125 -33 CURVE SMOOTH",
"1264 -33 OFFCURVE",
"1395 31 OFFCURVE",
"1508 201 CURVE",
"1457 242 LINE",
"1389 145 OFFCURVE",
"1301 72 OFFCURVE",
"1174 72 CURVE SMOOTH",
"986 72 OFFCURVE",
"846 256 OFFCURVE",
"871 592 CURVE",
"1496 604 LINE",
"1494 930 OFFCURVE",
"1340 1057 OFFCURVE",
"1133 1057 CURVE SMOOTH"
);
},
{
closed = 1;
nodes = (
"689 414 OFFCURVE",
"700 275 OFFCURVE",
"707 219 CURVE",
"627 129 OFFCURVE",
"530 76 OFFCURVE",
"408 84 CURVE SMOOTH",
"343 88 OFFCURVE",
"269 129 OFFCURVE",
"265 230 CURVE SMOOTH",
"258 421 OFFCURVE",
"499 486 OFFCURVE",
"686 493 CURVE"
);
},
{
closed = 1;
nodes = (
"1285 977 OFFCURVE",
"1311 823 OFFCURVE",
"1311 678 CURVE",
"885 678 LINE",
"904 840 OFFCURVE",
"965 977 OFFCURVE",
"1125 977 CURVE SMOOTH"
);
}
);
width = 1591;
},
{
layerId = "4C2B4986-1645-43C1-94B7-5E4C57EFF0D9";
name = Bold;
paths = (
{
closed = 1;
nodes = (
"967 1057 OFFCURVE",
"876 1009 OFFCURVE",
"801 884 CURVE",
"799 884 LINE",
"763 1012 OFFCURVE",
"662 1057 OFFCURVE",
"523 1057 CURVE SMOOTH",
"283 1057 OFFCURVE",
"105 938 OFFCURVE",
"105 787 CURVE SMOOTH",
"105 712 OFFCURVE",
"151 649 OFFCURVE",
"232 647 CURVE SMOOTH",
"328 645 OFFCURVE",
"370 718 OFFCURVE",
"370 775 CURVE SMOOTH",
"370 795 OFFCURVE",
"366 834 OFFCURVE",
"345 857 CURVE",
"379 893 OFFCURVE",
"437 909 OFFCURVE",
"491 911 CURVE SMOOTH",
"593 915 OFFCURVE",
"633 833 OFFCURVE",
"633 727 CURVE SMOOTH",
"633 616 LINE",
"359 605 OFFCURVE",
"60 499 OFFCURVE",
"60 240 CURVE SMOOTH",
"60 84 OFFCURVE",
"167 -33 OFFCURVE",
"343 -33 CURVE SMOOTH",
"477 -33 OFFCURVE",
"632 -5 OFFCURVE",
"758 139 CURVE",
"827 47 OFFCURVE",
"934 -33 OFFCURVE",
"1087 -33 CURVE SMOOTH",
"1226 -33 OFFCURVE",
"1390 6 OFFCURVE",
"1537 217 CURVE",
"1445 304 LINE",
"1351 189 OFFCURVE",
"1247 150 OFFCURVE",
"1164 150 CURVE SMOOTH",
"964 150 OFFCURVE",
"916 315 OFFCURVE",
"915 539 CURVE",
"1496 551 LINE",
"1500 926 OFFCURVE",
"1305 1055 OFFCURVE",
"1124 1057 CURVE SMOOTH"
);
},
{
closed = 1;
nodes = (
"633 398 OFFCURVE",
"634 323 OFFCURVE",
"640 245 CURVE",
"598 199 OFFCURVE",
"536 167 OFFCURVE",
"473 167 CURVE SMOOTH",
"415 167 OFFCURVE",
"352 198 OFFCURVE",
"350 274 CURVE SMOOTH",
"347 391 OFFCURVE",
"479 456 OFFCURVE",
"632 471 CURVE"
);
},
{
closed = 1;
nodes = (
"1156 911 OFFCURVE",
"1220 852 OFFCURVE",
"1225 683 CURVE",
"928 683 LINE",
"938 804 OFFCURVE",
"979 911 OFFCURVE",
"1090 911 CURVE SMOOTH"
);
}
);
width = 1577;
}
);
leftKerningGroup = a;
rightKerningGroup = e;
unicode = 00E6;
},
{
color = 4;
glyphname = b;
lastChange = "2013-05-24 22:53:37 +0400";
layers = (
{
layerId = UUID0;
name = Regular;
paths = (
{
closed = 1;
nodes = (
"272 1546 LINE",
"241 1518 OFFCURVE",
"196 1491 OFFCURVE",
"16 1491 CURVE",
"16 1405 LINE",
"161 1413 LINE",
"155 1358 OFFCURVE",
"155 1323 OFFCURVE",
"155 1280 CURVE SMOOTH",
"151 0 LINE",
"223 0 LINE",
"272 92 LINE",
"358 -6 OFFCURVE",
"481 -33 OFFCURVE",
"573 -33 CURVE SMOOTH",
"849 -33 OFFCURVE",
"1105 187 OFFCURVE",
"1105 536 CURVE SMOOTH",
"1105 857 OFFCURVE",
"903 1057 OFFCURVE",
"642 1057 CURVE SMOOTH",
"514 1057 OFFCURVE",
"407 1011 OFFCURVE",
"331 935 CURVE",
"331 1546 LINE"
);
},
{
closed = 1;
nodes = (
"792 956 OFFCURVE",
"894 761 OFFCURVE",
"894 486 CURVE SMOOTH",
"894 228 OFFCURVE",
"771 51 OFFCURVE",
"573 51 CURVE SMOOTH",
"448 51 OFFCURVE",
"331 104 OFFCURVE",
"331 322 CURVE SMOOTH",
"331 840 LINE",
"394 910 OFFCURVE",
"489 956 OFFCURVE",
"579 956 CURVE SMOOTH"
);
}
);
width = 1192;
},
{
layerId = "4C2B4986-1645-43C1-94B7-5E4C57EFF0D9";
name = Bold;
paths = (
{
closed = 1;
nodes = (
"307 1546 LINE",
"279 1520 OFFCURVE",
"182 1485 OFFCURVE",
"-8 1485 CURVE",
"-8 1330 LINE",
"21 1331 OFFCURVE",
"92 1333 OFFCURVE",
"136 1336 CURVE",
"130 1275 OFFCURVE",
"128 1206 OFFCURVE",
"128 1157 CURVE SMOOTH",
"128 0 LINE",
"252 0 LINE",
"311 91 LINE",
"313 91 LINE",
"410 -13 OFFCURVE",
"536 -33 OFFCURVE",
"610 -33 CURVE SMOOTH",
"919 -33 OFFCURVE",
"1107 208 OFFCURVE",
"1107 538 CURVE SMOOTH",
"1107 855 OFFCURVE",
"940 1057 OFFCURVE",
"694 1057 CURVE SMOOTH",
"609 1057 OFFCURVE",
"510 1029 OFFCURVE",
"418 947 CURVE",
"418 1546 LINE"
);
},
{
closed = 1;
nodes = (
"741 877 OFFCURVE",
"807 695 OFFCURVE",
"807 507 CURVE SMOOTH",
"807 306 OFFCURVE",
"752 111 OFFCURVE",
"568 117 CURVE SMOOTH",
"495 119 OFFCURVE",
"418 167 OFFCURVE",
"418 307 CURVE SMOOTH",
"418 785 LINE",
"454 836 OFFCURVE",
"517 870 OFFCURVE",
"583 872 CURVE SMOOTH"
);
}
);
width = 1173;
}
);
leftKerningGroup = b;
rightKerningGroup = o;
unicode = 0062;
},
{
color = 4;
glyphname = c;
lastChange = "2013-05-24 22:53:36 +0400";
layers = (
{
anchors = (
{
name = bottom;
position = "{700, 0}";
},
{
name = top;
position = "{597, 1024}";
}
);
layerId = UUID0;
name = Regular;
paths = (
{
closed = 1;
nodes = (
"301 1057 OFFCURVE",
"84 777 OFFCURVE",
"84 494 CURVE SMOOTH",
"84 161 OFFCURVE",
"313 -33 OFFCURVE",
"590 -33 CURVE SMOOTH",
"729 -33 OFFCURVE",
"911 39 OFFCURVE",
"1020 209 CURVE",
"967 250 LINE",
"901 152 OFFCURVE",
"772 74 OFFCURVE",
"645 74 CURVE SMOOTH",
"434 74 OFFCURVE",
"293 271 OFFCURVE",
"293 544 CURVE SMOOTH",
"293 828 OFFCURVE",
"436 981 OFFCURVE",
"623 981 CURVE SMOOTH",
"680 981 OFFCURVE",
"802 967 OFFCURVE",
"838 871 CURVE",
"814 846 OFFCURVE",
"807 815 OFFCURVE",
"807 788 CURVE SMOOTH",
"807 753 OFFCURVE",
"831 694 OFFCURVE",
"902 696 CURVE SMOOTH",
"963 697 OFFCURVE",
"997 746 OFFCURVE",
"997 804 CURVE SMOOTH",
"997 937 OFFCURVE",
"846 1057 OFFCURVE",
"618 1057 CURVE SMOOTH"
);
}
);
width = 1090;
},
{
anchors = (
{
name = bottom;
position = "{642, 0}";
},
{
name = top;
position = "{615, 1024}";
}
);
layerId = "4C2B4986-1645-43C1-94B7-5E4C57EFF0D9";
name = Bold;
paths = (
{
closed = 1;
nodes = (
"280 1057 OFFCURVE",
"63 798 OFFCURVE",
"63 490 CURVE SMOOTH",
"63 158 OFFCURVE",
"290 -33 OFFCURVE",
"567 -33 CURVE SMOOTH",
"716 -33 OFFCURVE",
"885 10 OFFCURVE",
"1035 216 CURVE",
"941 307 LINE",
"865 209 OFFCURVE",
"747 146 OFFCURVE",
"633 150 CURVE SMOOTH",
"432 157 OFFCURVE",
"363 345 OFFCURVE",
"363 548 CURVE SMOOTH",
"363 780 OFFCURVE",
"456 905 OFFCURVE",
"588 913 CURVE SMOOTH",
"625 915 OFFCURVE",
"706 905 OFFCURVE",
"738 845 CURVE",
"721 818 OFFCURVE",
"713 780 OFFCURVE",
"713 756 CURVE SMOOTH",
"713 699 OFFCURVE",
"747 620 OFFCURVE",
"852 623 CURVE SMOOTH",
"940 625 OFFCURVE",
"990 696 OFFCURVE",
"990 776 CURVE SMOOTH",
"990 919 OFFCURVE",
"857 1057 OFFCURVE",
"596 1057 CURVE SMOOTH"
);
}
);
width = 1060;
}
);
leftKerningGroup = o;
rightKerningGroup = c;
unicode = 0063;
},
{
color = 4;
glyphname = ccedilla;
lastChange = "2014-06-18 13:38:29 +0400";
layers = (
{
components = (
{
name = c;
transform = "{1, 0, 0, 1, 0, 0}";
},
{
name = cedilla;
transform = "{1, 0, 0, 1, 401, 0}";
}
);
layerId = UUID0;
name = Regular;
width = 1090;
},
{
background = {
paths = (
{
closed = 1;
nodes = (
"605 -108 OFFCURVE",
"536 -123 OFFCURVE",
"502 -141 CURVE",
"500 -141 LINE",
"541 -31 LINE",
"550 -31 OFFCURVE",
"559 -32 OFFCURVE",
"569 -32 CURVE SMOOTH",
"718 -32 OFFCURVE",
"887 10 OFFCURVE",
"1037 216 CURVE",
"943 307 LINE",
"867 209 OFFCURVE",
"749 146 OFFCURVE",
"635 150 CURVE SMOOTH",
"434 157 OFFCURVE",
"365 345 OFFCURVE",
"365 548 CURVE SMOOTH",
"365 780 OFFCURVE",
"458 905 OFFCURVE",
"590 913 CURVE SMOOTH",
"627 915 OFFCURVE",
"708 905 OFFCURVE",
"740 845 CURVE",
"723 818 OFFCURVE",
"715 780 OFFCURVE",
"715 756 CURVE SMOOTH",
"715 699 OFFCURVE",
"749 620 OFFCURVE",
"854 623 CURVE SMOOTH",
"942 625 OFFCURVE",
"992 696 OFFCURVE",
"992 776 CURVE SMOOTH",
"992 919 OFFCURVE",
"859 1057 OFFCURVE",
"598 1057 CURVE SMOOTH",
"282 1057 OFFCURVE",
"65 798 OFFCURVE",
"65 490 CURVE SMOOTH",
"65 230 OFFCURVE",
"204 57 OFFCURVE",
"398 -5 CURVE",
"341 -240 LINE",
"417 -272 LINE",
"457 -239 OFFCURVE",
"556 -224 OFFCURVE",
"556 -294 CURVE SMOOTH",
"556 -378 OFFCURVE",
"375 -412 OFFCURVE",
"310 -424 CURVE",
"326 -530 LINE",
"484 -508 OFFCURVE",
"791 -443 OFFCURVE",
"791 -252 CURVE SMOOTH",
"791 -154 OFFCURVE",
"727 -111 OFFCURVE",
"642 -109 CURVE SMOOTH"
);
}
);
};
components = (
{
name = c;
transform = "{1, 0, 0, 1, 0, 0}";
},
{
name = cedilla;
transform = "{1, 0, 0, 1, 399, 0}";
}
);
layerId = "4C2B4986-1645-43C1-94B7-5E4C57EFF0D9";
name = Bold;
width = 1060;
}
);
leftKerningGroup = o;
rightKerningGroup = c;
unicode = 00E7;
},
{
color = 4;
glyphname = d;
lastChange = "2013-05-24 22:53:39 +0400";
layers = (
{
anchors = (
{
name = center;
position = "{613, 512}";
},
{
name = topright;
position = "{1205, 1024}";
}
);
layerId = UUID0;
name = Regular;
paths = (
{
closed = 1;
nodes = (
"967 1546 LINE",
"936 1518 OFFCURVE",
"893 1491 OFFCURVE",
"713 1491 CURVE",
"713 1405 LINE",
"858 1413 LINE",
"852 1358 OFFCURVE",
"852 1323 OFFCURVE",
"852 1280 CURVE SMOOTH",
"851 1000 LINE",
"798 1029 OFFCURVE",
"703 1057 OFFCURVE",
"612 1057 CURVE SMOOTH",
"308 1057 OFFCURVE",
"86 817 OFFCURVE",
"86 483 CURVE SMOOTH",
"86 166 OFFCURVE",
"276 -33 OFFCURVE",
"528 -33 CURVE SMOOTH",
"664 -33 OFFCURVE",
"779 22 OFFCURVE",
"857 107 CURVE",
"859 74 OFFCURVE",
"863 40 OFFCURVE",
"870 0 CURVE",
"1163 0 LINE",
"1163 86 LINE",
"1018 78 LINE",
"1024 133 OFFCURVE",
"1026 174 OFFCURVE",
"1026 217 CURVE SMOOTH",
"1026 1546 LINE"
);
},
{
closed = 1;
nodes = (
"706 976 OFFCURVE",
"786 955 OFFCURVE",
"851 905 CURVE",
"850 315 LINE SMOOTH",
"850 272 OFFCURVE",
"850 235 OFFCURVE",
"851 202 CURVE",
"791 124 OFFCURVE",
"693 68 OFFCURVE",
"602 68 CURVE SMOOTH",
"410 68 OFFCURVE",
"305 250 OFFCURVE",
"297 502 CURVE SMOOTH",
"287 786 OFFCURVE",
"420 976 OFFCURVE",
"625 976 CURVE SMOOTH"
);
}
);
width = 1225;
},
{
anchors = (
{
name = center;
position = "{611, 512}";
},
{
name = topright;
position = "{1201, 1024}";
}
);
layerId = "4C2B4986-1645-43C1-94B7-5E4C57EFF0D9";
name = Bold;
paths = (
{
closed = 1;
nodes = (
"934 1546 LINE",
"906 1520 OFFCURVE",
"809 1485 OFFCURVE",
"619 1485 CURVE",
"619 1329 LINE",
"648 1330 OFFCURVE",
"719 1332 OFFCURVE",
"763 1335 CURVE",
"757 1274 OFFCURVE",
"755 1195 OFFCURVE",
"755 1156 CURVE SMOOTH",
"755 1020 LINE",
"705 1039 OFFCURVE",
"647 1057 OFFCURVE",
"573 1057 CURVE SMOOTH",
"269 1057 OFFCURVE",
"66 816 OFFCURVE",
"66 486 CURVE SMOOTH",
"66 169 OFFCURVE",
"233 -33 OFFCURVE",
"479 -33 CURVE SMOOTH",
"581 -33 OFFCURVE",
"678 0 OFFCURVE",
"768 95 CURVE",
"770 95 LINE",
"781 0 LINE",
"1170 0 LINE",
"1170 156 LINE",
"1141 155 OFFCURVE",
"1081 153 OFFCURVE",
"1037 150 CURVE",
"1043 211 OFFCURVE",
"1045 290 OFFCURVE",
"1045 329 CURVE SMOOTH",
"1045 1546 LINE"
);
},
{
closed = 1;
nodes = (
"668 906 OFFCURVE",
"727 887 OFFCURVE",
"755 867 CURVE",
"755 251 LINE",
"719 194 OFFCURVE",
"655 154 OFFCURVE",
"586 154 CURVE SMOOTH",
"428 154 OFFCURVE",
"366 341 OFFCURVE",
"366 517 CURVE SMOOTH",
"366 708 OFFCURVE",
"421 901 OFFCURVE",
"610 905 CURVE SMOOTH"
);
}
);
width = 1221;
}
);
leftKerningGroup = d;
unicode = 0064;
},
{
color = 4;
glyphname = eth;
lastChange = "2013-05-24 22:53:37 +0400";
layers = (
{
layerId = UUID0;
name = Regular;
paths = (
{
closed = 1;
nodes = (
"485 1494 LINE",
"404 1528 OFFCURVE",
"317 1551 OFFCURVE",
"220 1556 CURVE",
"211 1470 LINE",
"287 1464 OFFCURVE",
"356 1443 OFFCURVE",
"418 1415 CURVE",
"299 1274 LINE",
"373 1212 LINE",
"498 1370 LINE",
"681 1250 OFFCURVE",
"789 1045 OFFCURVE",
"829 881 CURVE",
"825 881 LINE",
"760 985 OFFCURVE",
"629 1020 OFFCURVE",
"526 1016 CURVE SMOOTH",
"252 1006 OFFCURVE",
"88 745 OFFCURVE",
"88 455 CURVE SMOOTH",
"88 152 OFFCURVE",
"285 -33 OFFCURVE",
"530 -33 CURVE SMOOTH",
"878 -33 OFFCURVE",
"1030 233 OFFCURVE",
"1028 557 CURVE SMOOTH",
"1026 938 OFFCURVE",
"859 1289 OFFCURVE",
"565 1455 CURVE",
"655 1569 LINE",
"596 1624 LINE"
);
},
{
closed = 1;
nodes = (
"786 922 OFFCURVE",
"848 659 OFFCURVE",
"846 469 CURVE SMOOTH",
"844 190 OFFCURVE",
"713 49 OFFCURVE",
"563 49 CURVE SMOOTH",
"409 49 OFFCURVE",
"293 207 OFFCURVE",
"293 498 CURVE SMOOTH",
"293 735 OFFCURVE",
"395 940 OFFCURVE",
"579 932 CURVE SMOOTH"
);
}
);
width = 1145;
},
{
layerId = "4C2B4986-1645-43C1-94B7-5E4C57EFF0D9";
name = Bold;
paths = (
{
closed = 1;
nodes = (
"458 1481 LINE",
"395 1512 OFFCURVE",
"303 1545 OFFCURVE",
"183 1556 CURVE",
"153 1406 LINE",
"226 1392 OFFCURVE",
"291 1370 OFFCURVE",
"341 1341 CURVE",
"241 1224 LINE",
"365 1115 LINE",
"483 1260 LINE",
"570 1203 OFFCURVE",
"688 1065 OFFCURVE",
"717 957 CURVE",
"715 957 LINE",
"657 1005 OFFCURVE",
"582 1015 OFFCURVE",
"535 1015 CURVE SMOOTH",
"215 1016 OFFCURVE",
"62 727 OFFCURVE",
"67 461 CURVE SMOOTH",
"73 143 OFFCURVE",
"270 -33 OFFCURVE",
"537 -33 CURVE SMOOTH",
"859 -33 OFFCURVE",
"1015 233 OFFCURVE",
"1015 553 CURVE SMOOTH",
"1015 929 OFFCURVE",
"845 1240 OFFCURVE",
"595 1409 CURVE",
"682 1512 LINE",
"563 1618 LINE"
);
},
{
closed = 1;
nodes = (
"701 856 OFFCURVE",
"751 650 OFFCURVE",
"751 490 CURVE SMOOTH",
"751 261 OFFCURVE",
"661 142 OFFCURVE",
"551 142 CURVE SMOOTH",
"440 142 OFFCURVE",
"351 275 OFFCURVE",
"351 505 CURVE SMOOTH",
"351 688 OFFCURVE",
"424 854 OFFCURVE",
"550 855 CURVE SMOOTH"
);
}
);
width = 1110;
}
);
unicode = 00F0;
},
{
color = 4;
glyphname = dcroat;
lastChange = "2013-05-24 22:53:37 +0400";
layers = (
{
components = (
{
name = d;
transform = "{1, 0, 0, 1, 0, 0}";
}
);
layerId = UUID0;
name = Regular;
paths = (
{
closed = 1;
nodes = (
"522 1286 LINE",
"522 1193 LINE",
"1185 1201 LINE",
"1185 1286 LINE"
);
}
);
width = 1225;
},
{
background = {
paths = (
{
closed = 1;
nodes = (
"34 1060 LINE",
"66 1060 OFFCURVE",
"126 1062 OFFCURVE",
"174 1062 CURVE",
"171 568 LINE SMOOTH",
"169 226 OFFCURVE",
"355 174 OFFCURVE",
"489 174 CURVE SMOOTH",
"562 174 OFFCURVE",
"723 178 OFFCURVE",
"871 396 CURVE",
"772 488 LINE",
"694 380 OFFCURVE",
"622 365 OFFCURVE",
"586 365 CURVE SMOOTH",
"481 365 OFFCURVE",
"462 469 OFFCURVE",
"462 564 CURVE SMOOTH",
"462 574 OFFCURVE",
"463 681 OFFCURVE",
"465 1068 CURVE",
"726 1073 LINE",
"726 1231 LINE",
"465 1231 LINE",
"466 1488 LINE",
"315 1488 LINE",
"284 1383 OFFCURVE",
"175 1233 OFFCURVE",
"34 1231 CURVE"
);
}
);
};
layerId = "4C2B4986-1645-43C1-94B7-5E4C57EFF0D9";
name = Bold;
paths = (
{
closed = 1;
nodes = (
"934 1546 LINE",
"906 1520 OFFCURVE",
"809 1485 OFFCURVE",
"619 1485 CURVE",
"619 1329 LINE",
"648 1330 OFFCURVE",
"719 1332 OFFCURVE",
"763 1335 CURVE",
"757 1274 OFFCURVE",
"755 1195 OFFCURVE",
"755 1156 CURVE SMOOTH",
"755 920 LINE",
"705 939 OFFCURVE",
"648 957 OFFCURVE",
"573 957 CURVE SMOOTH",
"269 957 OFFCURVE",
"66 732 OFFCURVE",
"66 426 CURVE SMOOTH",
"66 169 OFFCURVE",
"233 -33 OFFCURVE",
"479 -33 CURVE SMOOTH",
"581 -33 OFFCURVE",
"678 0 OFFCURVE",
"768 95 CURVE",
"770 95 LINE",
"781 0 LINE",
"1170 0 LINE",
"1170 156 LINE",
"1141 155 OFFCURVE",
"1081 153 OFFCURVE",
"1037 150 CURVE",
"1043 211 OFFCURVE",
"1045 290 OFFCURVE",
"1045 329 CURVE SMOOTH",
"1045 1546 LINE"
);
},
{
closed = 1;
nodes = (
"668 805 OFFCURVE",
"727 787 OFFCURVE",
"755 767 CURVE",
"755 251 LINE",
"719 194 OFFCURVE",
"655 154 OFFCURVE",
"586 154 CURVE SMOOTH",
"428 154 OFFCURVE",
"366 281 OFFCURVE",
"366 457 CURVE SMOOTH",
"366 641 OFFCURVE",
"443 805 OFFCURVE",
"610 805 CURVE SMOOTH"
);
},
{
closed = 1;
nodes = (
"419 1230 LINE",
"419 1072 LINE",
"1201 1079 LINE",
"1201 1230 LINE"
);
}
);
width = 1221;
}
);
unicode = 0111;
userData = {
public.markColor = "0.75,0.75,0.75,1";
};
},
{
color = 4;
glyphname = e;
lastChange = "2013-05-24 22:53:37 +0400";
layers = (
{
anchors = (
{
name = bottom;
position = "{665, 0}";
},
{
name = ogonek;
position = "{796, 10}";
},
{
name = top;
position = "{573, 1024}";
}
);
layerId = UUID0;
name = Regular;
paths = (
{
closed = 1;
nodes = (
"293 1057 OFFCURVE",
"86 797 OFFCURVE",
"86 510 CURVE SMOOTH",
"86 178 OFFCURVE",
"303 -33 OFFCURVE",
"586 -33 CURVE SMOOTH",
"725 -33 OFFCURVE",
"917 31 OFFCURVE",
"1030 201 CURVE",
"980 242 LINE",
"912 145 OFFCURVE",
"762 72 OFFCURVE",
"635 72 CURVE SMOOTH",
"395 72 OFFCURVE",
"295 278 OFFCURVE",
"297 592 CURVE",
"1018 604 LINE",
"1018 909 OFFCURVE",
"829 1057 OFFCURVE",
"602 1057 CURVE SMOOTH"
);
},
{
closed = 1;
nodes = (
"764 977 OFFCURVE",
"825 823 OFFCURVE",
"825 678 CURVE",
"303 678 LINE",
"336 889 OFFCURVE",
"444 977 OFFCURVE",
"604 977 CURVE SMOOTH"
);
}
);
width = 1110;
},
{
anchors = (
{
name = bottom;
position = "{691, 0}";
},
{
name = ogonek;
position = "{806, 10}";
},
{
name = top;
position = "{581, 1024}";
}
);
layerId = "4C2B4986-1645-43C1-94B7-5E4C57EFF0D9";
name = Bold;
paths = (
{
closed = 1;
nodes = (
"266 1057 OFFCURVE",
"63 797 OFFCURVE",
"63 510 CURVE SMOOTH",
"63 178 OFFCURVE",
"268 -33 OFFCURVE",
"569 -33 CURVE SMOOTH",
"708 -33 OFFCURVE",
"899 6 OFFCURVE",
"1046 217 CURVE",
"954 304 LINE",
"860 189 OFFCURVE",
"736 150 OFFCURVE",
"653 150 CURVE SMOOTH",
"440 150 OFFCURVE",
"365 315 OFFCURVE",
"364 539 CURVE",
"1037 551 LINE",
"1040 946 OFFCURVE",
"802 1057 OFFCURVE",
"575 1057 CURVE SMOOTH"
);
},
{
closed = 1;
nodes = (
"681 913 OFFCURVE",
"749 852 OFFCURVE",
"754 683 CURVE",
"377 683 LINE",
"397 819 OFFCURVE",
"464 913 OFFCURVE",
"585 913 CURVE SMOOTH"
);
}
);
width = 1102;
}
);
leftKerningGroup = o;
rightKerningGroup = e;
unicode = 0065;
},
{
color = 4;
glyphname = f;
lastChange = "2013-05-24 22:53:36 +0400";
layers = (
{
layerId = UUID0;
name = Regular;
paths = (
{
closed = 1;
nodes = (
"318 1556 OFFCURVE",
"219 1370 OFFCURVE",
"219 1067 CURVE SMOOTH",
"219 1024 LINE",
"51 1024 LINE",
"51 932 LINE",
"219 935 LINE",
"221 311 LINE SMOOTH",
"221 164 OFFCURVE",
"226 61 OFFCURVE",
"101 61 CURVE",
"101 0 LINE",
"518 0 LINE",
"518 84 LINE",
"389 78 LINE",
"398 125 OFFCURVE",
"398 162 OFFCURVE",
"398 217 CURVE SMOOTH",
"396 939 LINE",
"672 944 LINE",
"672 1024 LINE",
"396 1024 LINE",
"396 1239 LINE SMOOTH",
"396 1356 OFFCURVE",
"430 1483 OFFCURVE",
"557 1483 CURVE SMOOTH",
"586 1483 OFFCURVE",
"625 1473 OFFCURVE",
"645 1447 CURVE",
"637 1430 OFFCURVE",
"634 1413 OFFCURVE",
"634 1397 CURVE SMOOTH",
"634 1365 OFFCURVE",
"657 1310 OFFCURVE",
"722 1312 CURVE SMOOTH",
"776 1313 OFFCURVE",
"807 1354 OFFCURVE",
"807 1405 CURVE SMOOTH",
"807 1512 OFFCURVE",
"676 1556 OFFCURVE",
"588 1556 CURVE SMOOTH"
);
}
);
width = 692;
},
{
layerId = "4C2B4986-1645-43C1-94B7-5E4C57EFF0D9";
name = Bold;
paths = (
{
closed = 1;
nodes = (
"366 1546 OFFCURVE",
"210 1414 OFFCURVE",
"210 1084 CURVE SMOOTH",
"210 1024 LINE",
"62 1024 LINE",
"62 853 LINE",
"210 856 LINE",
"210 315 LINE SMOOTH",
"210 207 OFFCURVE",
"202 133 OFFCURVE",
"88 133 CURVE",
"88 0 LINE",
"635 0 LINE",
"635 156 LINE",
"606 155 OFFCURVE",
"536 153 OFFCURVE",
"492 150 CURVE",
"498 211 OFFCURVE",
"500 294 OFFCURVE",
"500 333 CURVE SMOOTH",
"497 861 LINE",
"725 866 LINE",
"725 1024 LINE",
"496 1024 LINE",
"495 1276 LINE SMOOTH",
"495 1335 OFFCURVE",
"510 1400 OFFCURVE",
"578 1403 CURVE SMOOTH",
"589 1403 OFFCURVE",
"611 1400 OFFCURVE",
"624 1386 CURVE",
"604 1296 OFFCURVE",
"652 1226 OFFCURVE",
"745 1228 CURVE SMOOTH",
"828 1230 OFFCURVE",
"873 1294 OFFCURVE",
"873 1366 CURVE SMOOTH",
"873 1451 OFFCURVE",
"805 1546 OFFCURVE",
"612 1546 CURVE SMOOTH"
);
}
);
width = 755;
}
);
leftKerningGroup = f;
unicode = 0066;
},
{
color = 4;
glyphname = g;
lastChange = "2013-05-24 22:53:37 +0400";
layers = (
{
anchors = (
{
name = top;
position = "{541, 1024}";
}
);
layerId = UUID0;
name = Regular;
paths = (
{
closed = 1;
nodes = (
"949 1180 OFFCURVE",
"849 1096 OFFCURVE",
"808 980 CURVE",
"732 1030 OFFCURVE",
"639 1057 OFFCURVE",
"548 1057 CURVE SMOOTH",
"335 1057 OFFCURVE",
"117 898 OFFCURVE",
"117 652 CURVE SMOOTH",
"117 509 OFFCURVE",
"199 399 OFFCURVE",
"323 340 CURVE",
"203 320 OFFCURVE",
"119 225 OFFCURVE",
"119 129 CURVE SMOOTH",
"119 42 OFFCURVE",
"173 -5 OFFCURVE",
"261 -32 CURVE",
"178 -68 OFFCURVE",
"72 -153 OFFCURVE",
"72 -278 CURVE SMOOTH",
"72 -414 OFFCURVE",
"214 -555 OFFCURVE",
"583 -555 CURVE SMOOTH",
"825 -555 OFFCURVE",
"1085 -434 OFFCURVE",
"1085 -213 CURVE SMOOTH",
"1085 8 OFFCURVE",
"896 80 OFFCURVE",
"581 94 CURVE SMOOTH",
"393 102 OFFCURVE",
"277 111 OFFCURVE",
"257 176 CURVE SMOOTH",
"236 244 OFFCURVE",
"311 301 OFFCURVE",
"411 301 CURVE SMOOTH",
"465 301 OFFCURVE",
"497 291 OFFCURVE",
"548 291 CURVE SMOOTH",
"778 291 OFFCURVE",
"982 455 OFFCURVE",
"982 686 CURVE SMOOTH",
"982 780 OFFCURVE",
"939 868 OFFCURVE",
"872 930 CURVE",
"886 992 OFFCURVE",
"922 1055 OFFCURVE",
"992 1065 CURVE",
"1000 1025 OFFCURVE",
"1031 994 OFFCURVE",
"1077 993 CURVE SMOOTH",
"1142 991 OFFCURVE",
"1166 1046 OFFCURVE",
"1166 1078 CURVE SMOOTH",
"1166 1141 OFFCURVE",
"1126 1180 OFFCURVE",
"1057 1180 CURVE SMOOTH"
);
},
{
closed = 1;
nodes = (
"415 -61 OFFCURVE",
"487 -65 OFFCURVE",
"562 -67 CURVE SMOOTH",
"788 -74 OFFCURVE",
"954 -104 OFFCURVE",
"954 -256 CURVE SMOOTH",
"954 -373 OFFCURVE",
"816 -475 OFFCURVE",
"581 -475 CURVE SMOOTH",
"370 -475 OFFCURVE",
"233 -389 OFFCURVE",
"233 -254 CURVE SMOOTH",
"233 -175 OFFCURVE",
"276 -100 OFFCURVE",
"351 -51 CURVE"
);
},
{
closed = 1;
nodes = (
"702 985 OFFCURVE",
"782 825 OFFCURVE",
"782 645 CURVE SMOOTH",
"782 485 OFFCURVE",
"706 365 OFFCURVE",
"554 365 CURVE SMOOTH",
"401 365 OFFCURVE",
"313 500 OFFCURVE",
"313 696 CURVE SMOOTH",
"313 860 OFFCURVE",
"397 985 OFFCURVE",
"544 985 CURVE SMOOTH"
);
}
);
width = 1133;
},
{
anchors = (
{
name = top;
position = "{539, 1024}";
}
);
layerId = "4C2B4986-1645-43C1-94B7-5E4C57EFF0D9";
name = Bold;
paths = (
{
closed = 1;
nodes = (
"929 1241 OFFCURVE",
"844 1118 OFFCURVE",
"799 993 CURVE",
"731 1040 OFFCURVE",
"625 1057 OFFCURVE",
"554 1057 CURVE SMOOTH",
"319 1057 OFFCURVE",
"89 883 OFFCURVE",
"98 637 CURVE SMOOTH",
"103 498 OFFCURVE",
"185 395 OFFCURVE",
"300 351 CURVE",
"300 349 LINE",
"149 303 OFFCURVE",
"100 199 OFFCURVE",
"100 129 CURVE SMOOTH",
"100 51 OFFCURVE",
"140 -21 OFFCURVE",
"252 -52 CURVE",
"104 -107 OFFCURVE",
"58 -202 OFFCURVE",
"58 -287 CURVE SMOOTH",
"58 -425 OFFCURVE",
"170 -555 OFFCURVE",
"525 -555 CURVE SMOOTH",
"797 -555 OFFCURVE",
"1104 -428 OFFCURVE",
"1104 -195 CURVE SMOOTH",
"1104 42 OFFCURVE",
"893 113 OFFCURVE",
"579 131 CURVE SMOOTH",
"387 142 OFFCURVE",
"317 156 OFFCURVE",
"317 207 CURVE SMOOTH",
"317 246 OFFCURVE",
"364 269 OFFCURVE",
"423 269 CURVE SMOOTH",
"464 269 OFFCURVE",
"510 262 OFFCURVE",
"547 262 CURVE SMOOTH",
"787 262 OFFCURVE",
"1012 430 OFFCURVE",
"1012 668 CURVE SMOOTH",
"1012 771 OFFCURVE",
"968 865 OFFCURVE",
"890 932 CURVE",
"898 976 OFFCURVE",
"937 1055 OFFCURVE",
"975 1064 CURVE",
"984 1020 OFFCURVE",
"1032 986 OFFCURVE",
"1074 985 CURVE SMOOTH",
"1172 983 OFFCURVE",
"1201 1061 OFFCURVE",
"1201 1109 CURVE SMOOTH",
"1201 1189 OFFCURVE",
"1151 1241 OFFCURVE",
"1059 1241 CURVE SMOOTH"
);
},
{
closed = 1;
nodes = (
"435 -108 OFFCURVE",
"523 -111 OFFCURVE",
"583 -114 CURVE SMOOTH",
"783 -123 OFFCURVE",
"879 -166 OFFCURVE",
"879 -249 CURVE SMOOTH",
"879 -326 OFFCURVE",
"776 -413 OFFCURVE",
"583 -413 CURVE SMOOTH",
"411 -413 OFFCURVE",
"304 -343 OFFCURVE",
"309 -232 CURVE SMOOTH",
"311 -185 OFFCURVE",
"333 -131 OFFCURVE",
"375 -98 CURVE"
);
},
{
closed = 1;
nodes = (
"669 919 OFFCURVE",
"725 774 OFFCURVE",
"725 631 CURVE SMOOTH",
"725 518 OFFCURVE",
"666 400 OFFCURVE",
"556 400 CURVE SMOOTH",
"443 400 OFFCURVE",
"381 533 OFFCURVE",
"381 677 CURVE SMOOTH",
"381 803 OFFCURVE",
"445 919 OFFCURVE",
"553 919 CURVE SMOOTH"
);
}
);
width = 1140;
}
);
unicode = 0067;
},
{
color = 4;
glyphname = h;
lastChange = "2013-05-24 22:53:36 +0400";
layers = (
{
anchors = (
{
name = center;
position = "{614, 512}";
},
{
name = top;
position = "{306, 1439}";
}
);
layerId = UUID0;
name = Regular;
paths = (
{
closed = 1;
nodes = (
"309 1546 LINE",
"278 1518 OFFCURVE",
"233 1491 OFFCURVE",
"53 1491 CURVE",
"53 1405 LINE",
"198 1413 LINE",
"192 1358 OFFCURVE",
"192 1323 OFFCURVE",
"192 1280 CURVE SMOOTH",
"192 311 LINE SMOOTH",
"192 164 OFFCURVE",
"194 61 OFFCURVE",
"69 61 CURVE",
"69 0 LINE",
"487 0 LINE",
"487 84 LINE",
"358 78 LINE",
"366 125 OFFCURVE",
"368 162 OFFCURVE",
"368 217 CURVE SMOOTH",
"368 822 LINE",
"429 894 OFFCURVE",
"534 947 OFFCURVE",
"634 949 CURVE SMOOTH",
"796 951 OFFCURVE",
"868 832 OFFCURVE",
"868 597 CURVE SMOOTH",
"868 311 LINE SMOOTH",
"868 164 OFFCURVE",
"872 61 OFFCURVE",
"747 61 CURVE",
"747 0 LINE",
"1165 0 LINE",
"1165 84 LINE",
"1036 78 LINE",
"1044 125 OFFCURVE",
"1044 162 OFFCURVE",
"1044 217 CURVE SMOOTH",
"1042 599 LINE SMOOTH",
"1040 912 OFFCURVE",
"942 1057 OFFCURVE",
"704 1057 CURVE SMOOTH",
"587 1057 OFFCURVE",
"458 998 OFFCURVE",
"368 922 CURVE",
"368 1546 LINE"
);
}
);
width = 1227;
},
{
anchors = (
{
name = center;
position = "{636, 512}";
},
{
name = top;
position = "{349, 1442}";
}
);
layerId = "4C2B4986-1645-43C1-94B7-5E4C57EFF0D9";
name = Bold;
paths = (
{
closed = 1;
nodes = (
"352 1546 LINE",
"324 1520 OFFCURVE",
"227 1485 OFFCURVE",
"37 1485 CURVE",
"37 1330 LINE",
"66 1331 OFFCURVE",
"137 1333 OFFCURVE",
"181 1336 CURVE",
"175 1275 OFFCURVE",
"173 1206 OFFCURVE",
"173 1157 CURVE SMOOTH",
"173 315 LINE SMOOTH",
"173 207 OFFCURVE",
"165 133 OFFCURVE",
"51 133 CURVE",
"51 0 LINE",
"588 0 LINE",
"588 156 LINE",
"559 155 OFFCURVE",
"499 153 OFFCURVE",
"455 150 CURVE",
"461 211 OFFCURVE",
"463 290 OFFCURVE",
"463 329 CURVE SMOOTH",
"463 793 LINE",
"508 834 OFFCURVE",
"582 868 OFFCURVE",
"650 868 CURVE SMOOTH",
"763 868 OFFCURVE",
"815 785 OFFCURVE",
"816 607 CURVE SMOOTH",
"817 315 LINE SMOOTH",
"817 207 OFFCURVE",
"809 133 OFFCURVE",
"695 133 CURVE",
"695 0 LINE",
"1232 0 LINE",
"1232 156 LINE",
"1203 155 OFFCURVE",
"1143 153 OFFCURVE",
"1099 150 CURVE",
"1105 211 OFFCURVE",
"1107 290 OFFCURVE",
"1107 329 CURVE SMOOTH",
"1107 604 LINE SMOOTH",
"1106 920 OFFCURVE",
"1011 1057 OFFCURVE",
"761 1057 CURVE SMOOTH",
"678 1057 OFFCURVE",
"543 1006 OFFCURVE",
"463 943 CURVE",
"463 1546 LINE"
);
}
);
width = 1271;
}
);
leftKerningGroup = h;
rightKerningGroup = n;
unicode = 0068;
},
{
color = 4;
glyphname = i;
lastChange = "2013-05-24 22:53:37 +0400";
layers = (
{
components = (
{
name = period;
transform = "{0.920, 0, 0, 0.920, 64, 1278}";
}
);
layerId = UUID0;
name = Regular;
paths = (
{
closed = 1;
nodes = (
"328 1044 LINE",
"297 1016 OFFCURVE",
"254 989 OFFCURVE",
"74 989 CURVE",
"74 903 LINE",
"219 911 LINE",
"213 856 OFFCURVE",
"211 821 OFFCURVE",
"211 778 CURVE SMOOTH",
"211 311 LINE SMOOTH",
"211 164 OFFCURVE",
"215 61 OFFCURVE",
"90 61 CURVE",
"90 0 LINE",
"508 0 LINE",
"508 84 LINE",
"379 78 LINE",
"387 125 OFFCURVE",
"387 162 OFFCURVE",
"387 217 CURVE SMOOTH",
"387 1044 LINE"
);
}
);
width = 575;
},
{
layerId = "4C2B4986-1645-43C1-94B7-5E4C57EFF0D9";
name = Bold;
paths = (
{
closed = 1;
nodes = (
"384 1044 LINE",
"356 1018 OFFCURVE",
"259 983 OFFCURVE",
"69 983 CURVE",
"69 828 LINE",
"98 829 OFFCURVE",
"169 831 OFFCURVE",
"213 834 CURVE",
"207 773 OFFCURVE",
"205 704 OFFCURVE",
"205 655 CURVE SMOOTH",
"205 315 LINE SMOOTH",
"205 207 OFFCURVE",
"197 133 OFFCURVE",
"83 133 CURVE",
"83 0 LINE",
"620 0 LINE",
"620 156 LINE",
"591 155 OFFCURVE",
"531 153 OFFCURVE",
"487 150 CURVE",
"493 211 OFFCURVE",
"495 290 OFFCURVE",
"495 329 CURVE SMOOTH",
"495 1044 LINE"
);
},
{
closed = 1;
nodes = (
"287 1562 OFFCURVE",
"214 1487 OFFCURVE",
"214 1393 CURVE SMOOTH",
"214 1301 OFFCURVE",
"279 1226 OFFCURVE",
"373 1226 CURVE SMOOTH",
"465 1226 OFFCURVE",
"525 1301 OFFCURVE",
"525 1393 CURVE SMOOTH",
"525 1487 OFFCURVE",
"459 1562 OFFCURVE",
"370 1562 CURVE SMOOTH"
);
}
);
width = 670;
}
);
leftKerningGroup = i;
rightKerningGroup = i;
unicode = 0069;
},
{
color = 4;
glyphname = dotlessi;
lastChange = "2013-05-24 22:53:36 +0400";
layers = (
{
layerId = UUID0;
name = Regular;
paths = (
{
closed = 1;
nodes = (
"328 1044 LINE",
"297 1016 OFFCURVE",
"254 989 OFFCURVE",
"74 989 CURVE",
"74 903 LINE",
"219 911 LINE",
"213 856 OFFCURVE",
"211 821 OFFCURVE",
"211 778 CURVE SMOOTH",
"211 311 LINE SMOOTH",
"211 164 OFFCURVE",
"215 61 OFFCURVE",
"90 61 CURVE",
"90 0 LINE",
"508 0 LINE",
"508 84 LINE",
"379 78 LINE",
"387 125 OFFCURVE",
"387 162 OFFCURVE",
"387 217 CURVE SMOOTH",
"387 1044 LINE"
);
}
);
width = 575;
},
{
layerId = "4C2B4986-1645-43C1-94B7-5E4C57EFF0D9";
name = Bold;
paths = (
{
closed = 1;
nodes = (
"384 1044 LINE",
"356 1018 OFFCURVE",
"259 983 OFFCURVE",
"69 983 CURVE",
"69 828 LINE",
"98 829 OFFCURVE",
"169 831 OFFCURVE",
"213 834 CURVE",
"207 773 OFFCURVE",
"205 704 OFFCURVE",
"205 655 CURVE SMOOTH",
"205 315 LINE SMOOTH",
"205 207 OFFCURVE",
"197 133 OFFCURVE",
"83 133 CURVE",
"83 0 LINE",
"620 0 LINE",
"620 156 LINE",
"591 155 OFFCURVE",
"531 153 OFFCURVE",
"487 150 CURVE",
"493 211 OFFCURVE",
"495 290 OFFCURVE",
"495 329 CURVE SMOOTH",
"495 1044 LINE"
);
}
);
width = 670;
}
);
leftKerningGroup = i;
rightKerningGroup = i;
unicode = 0131;
},
{
color = 4;
glyphname = icircumflex;
lastChange = "2013-05-24 22:53:37 +0400";
layers = (
{
components = (
{
name = dotlessi;
transform = "{1, 0, 0, 1, 1, 0}";
}
);
layerId = UUID0;
name = Regular;
paths = (
{
closed = 1;
nodes = (
"295 1593 LINE",
"0 1268 LINE",
"51 1208 LINE",
"285 1407 LINE",
"289 1407 LINE",
"518 1194 LINE",
"574 1260 LINE",
"299 1593 LINE"
);
}
);
width = 575;
},
{
layerId = "4C2B4986-1645-43C1-94B7-5E4C57EFF0D9";
name = Bold;
paths = (
{
closed = 1;
nodes = (
"384 1044 LINE",
"356 1018 OFFCURVE",
"259 983 OFFCURVE",
"69 983 CURVE",
"69 828 LINE",
"98 829 OFFCURVE",
"169 831 OFFCURVE",
"213 834 CURVE",
"207 773 OFFCURVE",
"205 704 OFFCURVE",
"205 655 CURVE SMOOTH",
"205 315 LINE SMOOTH",
"205 207 OFFCURVE",
"197 133 OFFCURVE",
"83 133 CURVE",
"83 0 LINE",
"620 0 LINE",
"620 156 LINE",
"591 155 OFFCURVE",
"531 153 OFFCURVE",
"487 150 CURVE",
"493 211 OFFCURVE",
"495 290 OFFCURVE",
"495 329 CURVE SMOOTH",
"495 1044 LINE"
);
},
{
closed = 1;
nodes = (
"338 1603 LINE",
"18 1264 LINE",
"104 1166 LINE",
"336 1365 LINE",
"338 1365 LINE",
"569 1151 LINE",
"657 1256 LINE",
"359 1603 LINE"
);
}
);
width = 669;
}
);
leftKerningGroup = i;
rightKerningGroup = i;
unicode = 00EE;
},
{
color = 4;
glyphname = idieresis;
lastChange = "2013-05-24 22:53:37 +0400";
layers = (
{
components = (
{
name = dotlessi;
transform = "{1, 0, 0, 1, 0, 0}";
},
{
name = period;
transform = "{0.850, 0, 0, 0.920, -73, 1278}";
},
{
name = period;
transform = "{0.850, 0, 0, 0.920, 214, 1278}";
}
);
layerId = UUID0;
name = Regular;
width = 575;
},
{
layerId = "4C2B4986-1645-43C1-94B7-5E4C57EFF0D9";
name = Bold;
paths = (
{
closed = 1;
nodes = (
"384 1044 LINE",
"356 1018 OFFCURVE",
"259 983 OFFCURVE",
"69 983 CURVE",
"69 828 LINE",
"98 829 OFFCURVE",
"169 831 OFFCURVE",
"213 834 CURVE",
"207 773 OFFCURVE",
"205 704 OFFCURVE",
"205 655 CURVE SMOOTH",
"205 315 LINE SMOOTH",
"205 207 OFFCURVE",
"197 133 OFFCURVE",
"83 133 CURVE",
"83 0 LINE",
"620 0 LINE",
"620 156 LINE",
"591 155 OFFCURVE",
"531 153 OFFCURVE",
"487 150 CURVE",
"493 211 OFFCURVE",
"495 290 OFFCURVE",
"495 329 CURVE SMOOTH",
"495 1044 LINE"
);
},
{
closed = 1;
nodes = (
"100 1538 OFFCURVE",
"43 1467 OFFCURVE",
"43 1382 CURVE SMOOTH",
"43 1296 OFFCURVE",
"98 1228 OFFCURVE",
"172 1228 CURVE SMOOTH",
"245 1228 OFFCURVE",
"301 1296 OFFCURVE",
"301 1382 CURVE SMOOTH",
"301 1467 OFFCURVE",
"251 1538 OFFCURVE",
"173 1538 CURVE SMOOTH"
);
},
{
closed = 1;
nodes = (
"436 1538 OFFCURVE",
"379 1467 OFFCURVE",
"379 1382 CURVE SMOOTH",
"379 1296 OFFCURVE",
"434 1228 OFFCURVE",
"508 1228 CURVE SMOOTH",
"581 1228 OFFCURVE",
"637 1296 OFFCURVE",
"637 1382 CURVE SMOOTH",
"637 1467 OFFCURVE",
"587 1538 OFFCURVE",
"509 1538 CURVE SMOOTH"
);
}
);
width = 670;
}
);
leftKerningGroup = i;
rightKerningGroup = i;
unicode = 00EF;
},
{
color = 4;
glyphname = j;
lastChange = "2013-05-26 14:08:21 +0400";
layers = (
{
components = (
{
name = period;
transform = "{0.920, 0, 0, 0.920, 40, 1278}";
}
);
layerId = UUID0;
name = Regular;
paths = (
{
closed = 1;
nodes = (
"312 1044 LINE",
"281 1015 OFFCURVE",
"236 989 OFFCURVE",
"56 989 CURVE",
"56 903 LINE",
"201 911 LINE",
"195 856 OFFCURVE",
"195 821 OFFCURVE",
"195 778 CURVE SMOOTH",
"191 -177 LINE SMOOTH",
"191 -291 OFFCURVE",
"177 -383 OFFCURVE",
"132 -426 CURVE SMOOTH",
"101 -457 OFFCURVE",
"49 -473 OFFCURVE",
"-4 -449 CURVE",
"-3 -443 OFFCURVE",
"-3 -436 OFFCURVE",
"-3 -430 CURVE SMOOTH",
"-3 -397 OFFCURVE",
"-25 -342 OFFCURVE",
"-92 -344 CURVE SMOOTH",
"-147 -345 OFFCURVE",
"-180 -391 OFFCURVE",
"-180 -441 CURVE SMOOTH",
"-180 -500 OFFCURVE",
"-131 -555 OFFCURVE",
"-18 -555 CURVE SMOOTH",
"203 -555 OFFCURVE",
"371 -389 OFFCURVE",
"371 -7 CURVE SMOOTH",
"371 1044 LINE"
);
}
);
width = 526;
},
{
layerId = "4C2B4986-1645-43C1-94B7-5E4C57EFF0D9";
name = Bold;
paths = (
{
closed = 1;
nodes = (
"364 1044 LINE",
"336 1018 OFFCURVE",
"239 983 OFFCURVE",
"49 983 CURVE",
"49 828 LINE",
"78 829 OFFCURVE",
"149 831 OFFCURVE",
"193 834 CURVE",
"187 773 OFFCURVE",
"185 704 OFFCURVE",
"185 655 CURVE SMOOTH",
"190 -259 LINE SMOOTH",
"190 -318 OFFCURVE",
"180 -412 OFFCURVE",
"105 -412 CURVE SMOOTH",
"94 -412 OFFCURVE",
"75 -408 OFFCURVE",
"69 -403 CURVE",
"89 -313 OFFCURVE",
"34 -245 OFFCURVE",
"-51 -247 CURVE SMOOTH",
"-134 -249 OFFCURVE",
"-180 -315 OFFCURVE",
"-180 -387 CURVE SMOOTH",
"-180 -472 OFFCURVE",
"-110 -555 OFFCURVE",
"43 -555 CURVE SMOOTH",
"289 -555 OFFCURVE",
"475 -375 OFFCURVE",
"475 4 CURVE SMOOTH",
"475 1044 LINE"
);
},
{
closed = 1;
nodes = (
"256 1562 OFFCURVE",
"183 1487 OFFCURVE",
"183 1393 CURVE SMOOTH",
"183 1301 OFFCURVE",
"248 1226 OFFCURVE",
"342 1226 CURVE SMOOTH",
"434 1226 OFFCURVE",
"494 1301 OFFCURVE",
"494 1393 CURVE SMOOTH",
"494 1487 OFFCURVE",
"428 1562 OFFCURVE",
"339 1562 CURVE SMOOTH"
);
}
);
width = 603;
}
);
unicode = 006A;
},
{
color = 4;
glyphname = k;
lastChange = "2013-05-24 23:15:00 +0400";
layers = (
{
anchors = (
{
name = bottom;
position = "{550, 0}";
}
);
layerId = UUID0;
name = Regular;
paths = (
{
closed = 1;
nodes = (
"307 1546 LINE",
"276 1518 OFFCURVE",
"233 1491 OFFCURVE",
"53 1491 CURVE",
"53 1405 LINE",
"198 1413 LINE",
"192 1358 OFFCURVE",
"192 1323 OFFCURVE",
"192 1280 CURVE SMOOTH",
"192 350 OFFCURVE",
"190 313 OFFCURVE",
"190 311 CURVE SMOOTH",
"190 164 OFFCURVE",
"196 61 OFFCURVE",
"71 61 CURVE",
"71 0 LINE",
"489 0 LINE",
"489 84 LINE",
"358 78 LINE",
"366 125 OFFCURVE",
"366 162 OFFCURVE",
"366 217 CURVE SMOOTH",
"366 498 LINE",
"450 502 LINE",
"503 451 OFFCURVE",
"575 339 OFFCURVE",
"683 193 CURVE SMOOTH",
"757 95 OFFCURVE",
"824 0 OFFCURVE",
"899 0 CURVE SMOOTH",
"1085 0 LINE",
"1085 61 LINE",
"991 61 OFFCURVE",
"862 250 OFFCURVE",
"837 283 CURVE SMOOTH",
"692 469 LINE SMOOTH",
"654 517 OFFCURVE",
"618 555 OFFCURVE",
"565 580 CURVE",
"724 748 LINE SMOOTH",
"798 823 OFFCURVE",
"913 948 OFFCURVE",
"1052 963 CURVE",
"1052 1024 LINE",
"679 1024 LINE",
"679 942 LINE",
"819 948 LINE",
"780 924 OFFCURVE",
"743 887 OFFCURVE",
"698 840 CURVE SMOOTH",
"448 578 LINE",
"366 578 LINE",
"366 1546 LINE"
);
}
);
width = 1100;
},
{
anchors = (
{
name = bottom;
position = "{693, 0}";
}
);
layerId = "4C2B4986-1645-43C1-94B7-5E4C57EFF0D9";
name = Bold;
paths = (
{
closed = 1;
nodes = (
"353 1546 LINE",
"325 1520 OFFCURVE",
"228 1485 OFFCURVE",
"38 1485 CURVE",
"38 1330 LINE",
"67 1331 OFFCURVE",
"138 1333 OFFCURVE",
"182 1336 CURVE",
"176 1275 OFFCURVE",
"174 1206 OFFCURVE",
"174 1157 CURVE SMOOTH",
"174 315 LINE SMOOTH",
"174 207 OFFCURVE",
"166 133 OFFCURVE",
"52 133 CURVE",
"52 0 LINE",
"589 0 LINE",
"589 156 LINE",
"560 155 OFFCURVE",
"500 153 OFFCURVE",
"456 150 CURVE",
"462 211 OFFCURVE",
"464 290 OFFCURVE",
"464 329 CURVE SMOOTH",
"464 467 LINE",
"511 469 LINE",
"552 412 OFFCURVE",
"643 276 OFFCURVE",
"716 179 CURVE SMOOTH",
"801 64 OFFCURVE",
"857 0 OFFCURVE",
"944 0 CURVE SMOOTH",
"1179 0 LINE",
"1179 133 LINE",
"1095 133 OFFCURVE",
"1023 235 OFFCURVE",
"991 277 CURVE SMOOTH",
"854 456 LINE SMOOTH",
"796 532 OFFCURVE",
"762 563 OFFCURVE",
"720 584 CURVE",
"720 586 LINE",
"851 732 LINE SMOOTH",
"910 797 OFFCURVE",
"997 877 OFFCURVE",
"1143 893 CURVE",
"1143 1024 LINE",
"681 1024 LINE",
"681 868 LINE",
"790 870 LINE",
"790 868 LINE",
"765 845 OFFCURVE",
"745 822 OFFCURVE",
"710 782 CURVE SMOOTH",
"564 612 LINE",
"464 612 LINE",
"464 1546 LINE"
);
}
);
width = 1216;
}
);
leftKerningGroup = h;
unicode = 006B;
},
{
color = 4;
glyphname = l;
lastChange = "2013-05-24 23:14:56 +0400";
layers = (
{
anchors = (
{
name = bottom;
position = "{279, 0}";
},
{
name = top;
position = "{279, 1437}";
},
{
name = topright;
position = "{537, 1024}";
}
);
layerId = UUID0;
name = Regular;
paths = (
{
closed = 1;
nodes = (
"307 1546 LINE",
"276 1518 OFFCURVE",
"231 1491 OFFCURVE",
"51 1491 CURVE",
"51 1405 LINE",
"196 1413 LINE",
"190 1358 OFFCURVE",
"190 1323 OFFCURVE",
"190 1280 CURVE SMOOTH",
"190 311 LINE SMOOTH",
"190 164 OFFCURVE",
"194 61 OFFCURVE",
"69 61 CURVE",
"69 0 LINE",
"487 0 LINE",
"487 84 LINE",
"358 78 LINE",
"366 125 OFFCURVE",
"368 162 OFFCURVE",
"368 217 CURVE SMOOTH",
"366 1546 LINE"
);
}
);
width = 557;
},
{
anchors = (
{
name = bottom;
position = "{398, 0}";
},
{
name = top;
position = "{320, 1433}";
},
{
name = topright;
position = "{619, 1024}";
}
);
layerId = "4C2B4986-1645-43C1-94B7-5E4C57EFF0D9";
name = Bold;
paths = (
{
closed = 1;
nodes = (
"352 1546 LINE",
"324 1520 OFFCURVE",
"227 1485 OFFCURVE",
"37 1485 CURVE",
"37 1330 LINE",
"66 1331 OFFCURVE",
"137 1333 OFFCURVE",
"181 1336 CURVE",
"175 1275 OFFCURVE",
"173 1206 OFFCURVE",
"173 1157 CURVE SMOOTH",
"173 315 LINE SMOOTH",
"173 207 OFFCURVE",
"165 133 OFFCURVE",
"51 133 CURVE",
"51 0 LINE",
"588 0 LINE",
"588 156 LINE",
"559 155 OFFCURVE",
"499 153 OFFCURVE",
"455 150 CURVE",
"461 211 OFFCURVE",
"463 290 OFFCURVE",
"463 329 CURVE SMOOTH",
"463 1546 LINE"
);
}
);
width = 639;
}
);
leftKerningGroup = l;
rightKerningGroup = l;
unicode = 006C;
},
{
color = 4;
glyphname = lslash;
lastChange = "2013-05-24 22:53:36 +0400";
layers = (
{
components = (
{
name = l;
transform = "{1, 0, 0, 1, 40, 0}";
}
);
layerId = UUID0;
name = Regular;
paths = (
{
closed = 1;
nodes = (
"54 584 LINE",
"54 463 LINE",
"566 836 LINE",
"566 952 LINE"
);
}
);
width = 600;
},
{
layerId = "4C2B4986-1645-43C1-94B7-5E4C57EFF0D9";
name = Bold;
paths = (
{
closed = 1;
nodes = (
"365 1546 LINE",
"337 1520 OFFCURVE",
"240 1485 OFFCURVE",
"50 1485 CURVE",
"50 1330 LINE",
"79 1331 OFFCURVE",
"150 1333 OFFCURVE",
"194 1336 CURVE",
"188 1275 OFFCURVE",
"186 1206 OFFCURVE",
"186 1157 CURVE SMOOTH",
"186 708 LINE",
"35 602 LINE",
"35 371 LINE",
"186 479 LINE",
"186 315 LINE SMOOTH",
"186 207 OFFCURVE",
"178 133 OFFCURVE",
"64 133 CURVE",
"64 0 LINE",
"601 0 LINE",
"601 156 LINE",
"572 155 OFFCURVE",
"512 153 OFFCURVE",
"468 150 CURVE",
"474 211 OFFCURVE",
"476 290 OFFCURVE",
"476 329 CURVE SMOOTH",
"476 686 LINE",
"607 780 LINE",
"607 1006 LINE",
"476 913 LINE",
"476 1546 LINE"
);
}
);
width = 657;
}
);
leftKerningGroup = l;
rightKerningGroup = l;
unicode = 0142;
},
{
color = 4;
glyphname = m;
lastChange = "2013-05-24 22:53:36 +0400";
layers = (
{
layerId = UUID0;
name = Regular;
paths = (
{
closed = 1;
nodes = (
"1187 1057 OFFCURVE",
"1056 996 OFFCURVE",
"965 919 CURVE",
"913 1003 OFFCURVE",
"822 1057 OFFCURVE",
"684 1057 CURVE SMOOTH",
"578 1057 OFFCURVE",
"465 1005 OFFCURVE",
"383 935 CURVE",
"381 984 OFFCURVE",
"378 1017 OFFCURVE",
"375 1044 CURVE",
"316 1044 LINE",
"285 1016 OFFCURVE",
"254 989 OFFCURVE",
"74 989 CURVE",
"74 903 LINE",
"219 911 LINE",
"211 864 OFFCURVE",
"211 821 OFFCURVE",
"211 778 CURVE SMOOTH",
"211 311 LINE SMOOTH",
"211 164 OFFCURVE",
"215 61 OFFCURVE",
"90 61 CURVE",
"90 0 LINE",
"508 0 LINE",
"508 84 LINE",
"379 78 LINE",
"387 125 OFFCURVE",
"387 162 OFFCURVE",
"387 217 CURVE SMOOTH",
"387 744 LINE SMOOTH",
"387 785 OFFCURVE",
"386 822 OFFCURVE",
"386 854 CURVE",
"443 912 OFFCURVE",
"528 952 OFFCURVE",
"615 953 CURVE SMOOTH",
"776 955 OFFCURVE",
"842 832 OFFCURVE",
"840 597 CURVE SMOOTH",
"838 311 LINE SMOOTH",
"836 164 OFFCURVE",
"842 61 OFFCURVE",
"717 61 CURVE",
"717 0 LINE",
"1135 0 LINE",
"1135 84 LINE",
"1006 78 LINE",
"1014 125 OFFCURVE",
"1014 162 OFFCURVE",
"1014 217 CURVE SMOOTH",
"1018 699 LINE SMOOTH",
"1018 752 OFFCURVE",
"1011 802 OFFCURVE",
"997 848 CURVE",
"1059 905 OFFCURVE",
"1148 948 OFFCURVE",
"1235 949 CURVE SMOOTH",
"1397 951 OFFCURVE",
"1469 832 OFFCURVE",
"1469 597 CURVE SMOOTH",
"1469 311 LINE SMOOTH",
"1469 164 OFFCURVE",
"1473 61 OFFCURVE",
"1348 61 CURVE",
"1348 0 LINE",
"1766 0 LINE",
"1766 84 LINE",
"1637 78 LINE",
"1645 125 OFFCURVE",
"1645 162 OFFCURVE",
"1645 217 CURVE SMOOTH",
"1647 599 LINE SMOOTH",
"1653 922 OFFCURVE",
"1542 1057 OFFCURVE",
"1305 1057 CURVE SMOOTH"
);
}
);
width = 1831;
},
{
layerId = "4C2B4986-1645-43C1-94B7-5E4C57EFF0D9";
name = Bold;
paths = (
{
closed = 1;
nodes = (
"1275 1057 OFFCURVE",
"1149 1004 OFFCURVE",
"1051 922 CURVE",
"1002 1012 OFFCURVE",
"921 1057 OFFCURVE",
"797 1057 CURVE SMOOTH",
"691 1057 OFFCURVE",
"577 1005 OFFCURVE",
"497 943 CURVE",
"494 943 LINE",
"492 968 OFFCURVE",
"489 1016 OFFCURVE",
"485 1044 CURVE",
"384 1044 LINE",
"356 1018 OFFCURVE",
"259 983 OFFCURVE",
"69 983 CURVE",
"69 828 LINE",
"98 829 OFFCURVE",
"169 831 OFFCURVE",
"213 834 CURVE",
"207 773 OFFCURVE",
"205 709 OFFCURVE",
"205 660 CURVE SMOOTH",
"205 315 LINE SMOOTH",
"205 207 OFFCURVE",
"197 133 OFFCURVE",
"83 133 CURVE",
"83 0 LINE",
"610 0 LINE",
"610 156 LINE",
"581 155 OFFCURVE",
"531 153 OFFCURVE",
"487 150 CURVE",
"493 211 OFFCURVE",
"495 290 OFFCURVE",
"495 329 CURVE SMOOTH",
"495 793 LINE",
"540 834 OFFCURVE",
"602 869 OFFCURVE",
"670 868 CURVE SMOOTH",
"761 866 OFFCURVE",
"817 813 OFFCURVE",
"818 635 CURVE SMOOTH",
"819 315 LINE SMOOTH",
"819 207 OFFCURVE",
"811 133 OFFCURVE",
"707 133 CURVE",
"707 0 LINE",
"1234 0 LINE",
"1234 156 LINE",
"1205 155 OFFCURVE",
"1145 153 OFFCURVE",
"1101 150 CURVE",
"1107 211 OFFCURVE",
"1109 290 OFFCURVE",
"1109 329 CURVE SMOOTH",
"1109 604 LINE SMOOTH",
"1109 678 OFFCURVE",
"1103 743 OFFCURVE",
"1092 799 CURVE",
"1140 837 OFFCURVE",
"1202 868 OFFCURVE",
"1273 866 CURVE SMOOTH",
"1366 863 OFFCURVE",
"1428 807 OFFCURVE",
"1429 629 CURVE SMOOTH",
"1430 315 LINE SMOOTH",
"1430 207 OFFCURVE",
"1422 133 OFFCURVE",
"1328 133 CURVE",
"1328 0 LINE",
"1845 0 LINE",
"1845 156 LINE",
"1816 155 OFFCURVE",
"1756 153 OFFCURVE",
"1712 150 CURVE",
"1718 211 OFFCURVE",
"1720 290 OFFCURVE",
"1720 329 CURVE SMOOTH",
"1720 631 LINE SMOOTH",
"1720 945 OFFCURVE",
"1605 1057 OFFCURVE",
"1385 1057 CURVE SMOOTH"
);
}
);
width = 1885;
}
);
leftKerningGroup = n;
rightKerningGroup = n;
unicode = 006D;
},
{
color = 4;
glyphname = n;
lastChange = "2013-05-26 10:57:44 +0400";
layers = (
{
anchors = (
{
name = bottom;
position = "{622, 0}";
},
{
name = top;
position = "{653, 1024}";
}
);
layerId = UUID0;
name = Regular;
paths = (
{
closed = 1;
nodes = (
"601 1057 OFFCURVE",
"473 997 OFFCURVE",
"386 920 CURVE",
"383 976 OFFCURVE",
"380 1014 OFFCURVE",
"377 1044 CURVE",
"318 1044 LINE",
"287 1016 OFFCURVE",
"256 989 OFFCURVE",
"76 989 CURVE",
"76 903 LINE",
"221 911 LINE",
"213 864 OFFCURVE",
"213 821 OFFCURVE",
"213 778 CURVE SMOOTH",
"211 311 LINE SMOOTH",
"209 164 OFFCURVE",
"215 61 OFFCURVE",
"90 61 CURVE",
"90 0 LINE",
"508 0 LINE",
"508 84 LINE",
"379 78 LINE",
"387 125 OFFCURVE",
"387 162 OFFCURVE",
"387 217 CURVE SMOOTH",
"389 740 LINE SMOOTH",
"389 768 OFFCURVE",
"389 796 OFFCURVE",
"388 820 CURVE",
"448 894 OFFCURVE",
"550 951 OFFCURVE",
"649 953 CURVE SMOOTH",
"811 955 OFFCURVE",
"883 832 OFFCURVE",
"885 597 CURVE SMOOTH",
"885 311 LINE SMOOTH",
"885 164 OFFCURVE",
"889 61 OFFCURVE",
"764 61 CURVE",
"764 0 LINE",
"1182 0 LINE",
"1182 84 LINE",
"1053 78 LINE",
"1061 125 OFFCURVE",
"1061 162 OFFCURVE",
"1061 217 CURVE SMOOTH",
"1061 599 LINE SMOOTH",
"1061 912 OFFCURVE",
"957 1057 OFFCURVE",
"719 1057 CURVE SMOOTH"
);
}
);
width = 1243;
},
{
anchors = (
{
name = bottom;
position = "{732, 0}";
},
{
name = top;
position = "{704, 1024}";
}
);
layerId = "4C2B4986-1645-43C1-94B7-5E4C57EFF0D9";
name = Bold;
paths = (
{
closed = 1;
nodes = (
"711 1057 OFFCURVE",
"577 1005 OFFCURVE",
"497 943 CURVE",
"494 943 LINE",
"492 968 OFFCURVE",
"489 1016 OFFCURVE",
"485 1044 CURVE",
"384 1044 LINE",
"356 1018 OFFCURVE",
"259 983 OFFCURVE",
"69 983 CURVE",
"69 828 LINE",
"98 829 OFFCURVE",
"169 831 OFFCURVE",
"213 834 CURVE",
"207 773 OFFCURVE",
"205 709 OFFCURVE",
"205 660 CURVE SMOOTH",
"205 315 LINE SMOOTH",
"205 207 OFFCURVE",
"197 133 OFFCURVE",
"83 133 CURVE",
"83 0 LINE",
"620 0 LINE",
"620 156 LINE",
"591 155 OFFCURVE",
"531 153 OFFCURVE",
"487 150 CURVE",
"493 211 OFFCURVE",
"495 290 OFFCURVE",
"495 329 CURVE SMOOTH",
"495 793 LINE",
"540 834 OFFCURVE",
"614 868 OFFCURVE",
"682 868 CURVE SMOOTH",
"802 868 OFFCURVE",
"847 785 OFFCURVE",
"848 607 CURVE SMOOTH",
"849 315 LINE SMOOTH",
"849 207 OFFCURVE",
"841 133 OFFCURVE",
"727 133 CURVE",
"727 0 LINE",
"1264 0 LINE",
"1264 156 LINE",
"1235 155 OFFCURVE",
"1175 153 OFFCURVE",
"1131 150 CURVE",
"1137 211 OFFCURVE",
"1139 290 OFFCURVE",
"1139 329 CURVE SMOOTH",
"1139 604 LINE SMOOTH",
"1138 920 OFFCURVE",
"1043 1057 OFFCURVE",
"793 1057 CURVE SMOOTH"
);
}
);
width = 1303;
}
);
leftKerningGroup = n;
rightKerningGroup = n;
unicode = 006E;
},
{
color = 4;
glyphname = o;
lastChange = "2013-05-24 22:53:37 +0400";
layers = (
{
anchors = (
{
name = top;
position = "{599, 1024}";
}
);
layerId = UUID0;
name = Regular;
paths = (
{
closed = 1;
nodes = (
"307 1057 OFFCURVE",
"84 811 OFFCURVE",
"84 487 CURVE SMOOTH",
"84 184 OFFCURVE",
"311 -33 OFFCURVE",
"598 -33 CURVE SMOOTH",
"889 -33 OFFCURVE",
"1114 219 OFFCURVE",
"1114 537 CURVE SMOOTH",
"1114 834 OFFCURVE",
"885 1057 OFFCURVE",
"598 1057 CURVE SMOOTH"
);
},
{
closed = 1;
nodes = (
"817 979 OFFCURVE",
"905 723 OFFCURVE",
"905 477 CURVE SMOOTH",
"905 260 OFFCURVE",
"829 49 OFFCURVE",
"614 49 CURVE SMOOTH",
"397 49 OFFCURVE",
"293 293 OFFCURVE",
"293 547 CURVE SMOOTH",
"293 770 OFFCURVE",
"383 979 OFFCURVE",
"598 979 CURVE SMOOTH"
);
}
);
width = 1198;
},
{
anchors = (
{
name = top;
position = "{580, 1024}";
}
);
layerId = "4C2B4986-1645-43C1-94B7-5E4C57EFF0D9";
name = Bold;
paths = (
{
closed = 1;
nodes = (
"298 1057 OFFCURVE",
"63 830 OFFCURVE",
"63 489 CURVE SMOOTH",
"63 167 OFFCURVE",
"288 -33 OFFCURVE",
"585 -33 CURVE SMOOTH",
"885 -33 OFFCURVE",
"1095 186 OFFCURVE",
"1095 531 CURVE SMOOTH",
"1095 858 OFFCURVE",
"873 1057 OFFCURVE",
"579 1057 CURVE SMOOTH"
);
},
{
closed = 1;
nodes = (
"742 917 OFFCURVE",
"793 681 OFFCURVE",
"793 480 CURVE SMOOTH",
"793 305 OFFCURVE",
"755 115 OFFCURVE",
"593 112 CURVE SMOOTH",
"427 109 OFFCURVE",
"364 336 OFFCURVE",
"364 544 CURVE SMOOTH",
"364 723 OFFCURVE",
"416 909 OFFCURVE",
"575 913 CURVE SMOOTH"
);
}
);
width = 1159;
}
);
leftKerningGroup = o;
rightKerningGroup = o;
unicode = 006F;
},
{
color = 4;
glyphname = oslash;
lastChange = "2013-05-24 22:53:37 +0400";
layers = (
{
components = (
{
name = o;
transform = "{1, 0, 0, 1, 0, 0}";
}
);
layerId = UUID0;
name = Regular;
paths = (
{
closed = 1;
nodes = (
"164 -98 LINE",
"240 -154 LINE",
"1051 1094 LINE",
"954 1157 LINE"
);
}
);
width = 1198;
},
{
layerId = "4C2B4986-1645-43C1-94B7-5E4C57EFF0D9";
name = Bold;
paths = (
{
closed = 1;
nodes = (
"806 1011 LINE",
"738 1041 OFFCURVE",
"661 1057 OFFCURVE",
"579 1057 CURVE SMOOTH",
"298 1057 OFFCURVE",
"63 830 OFFCURVE",
"63 489 CURVE SMOOTH",
"63 322 OFFCURVE",
"123 189 OFFCURVE",
"222 98 CURVE",
"112 -74 LINE",
"238 -170 LINE",
"356 12 LINE",
"424 -17 OFFCURVE",
"502 -33 OFFCURVE",
"585 -33 CURVE SMOOTH",
"885 -33 OFFCURVE",
"1095 186 OFFCURVE",
"1095 531 CURVE SMOOTH",
"1095 697 OFFCURVE",
"1037 831 OFFCURVE",
"942 922 CURVE",
"1049 1088 LINE",
"912 1176 LINE"
);
},
{
closed = 1;
nodes = (
"789 607 OFFCURVE",
"793 541 OFFCURVE",
"793 480 CURVE SMOOTH",
"793 305 OFFCURVE",
"755 115 OFFCURVE",
"593 112 CURVE SMOOTH",
"538 111 OFFCURVE",
"495 135 OFFCURVE",
"461 175 CURVE",
"776 667 LINE",
"778 667 LINE"
);
},
{
closed = 1;
nodes = (
"629 914 OFFCURVE",
"671 890 OFFCURVE",
"703 850 CURVE",
"385 350 LINE",
"383 350 LINE",
"369 412 OFFCURVE",
"364 479 OFFCURVE",
"364 544 CURVE SMOOTH",
"364 723 OFFCURVE",
"416 909 OFFCURVE",
"575 913 CURVE SMOOTH"
);
}
);
width = 1159;
}
);
leftKerningGroup = o;
rightKerningGroup = o;
unicode = 00F8;
},
{
color = 4;
glyphname = oe;
lastChange = "2013-05-30 21:29:24 +0400";
layers = (
{
background = {
paths = (
{
closed = 1;
nodes = (
"328 1057 OFFCURVE",
"114 811 OFFCURVE",
"114 487 CURVE SMOOTH",
"114 184 OFFCURVE",
"329 -33 OFFCURVE",
"598 -33 CURVE SMOOTH",
"767 -33 OFFCURVE",
"895 73 OFFCURVE",
"979 237 CURVE",
"1005 765 LINE",
"924 942 OFFCURVE",
"782 1057 OFFCURVE",
"598 1057 CURVE SMOOTH"
);
},
{
closed = 1;
nodes = (
"797 979 OFFCURVE",
"879 723 OFFCURVE",
"880 477 CURVE SMOOTH",
"877 260 OFFCURVE",
"808 49 OFFCURVE",
"614 49 CURVE SMOOTH",
"421 49 OFFCURVE",
"323 293 OFFCURVE",
"323 547 CURVE SMOOTH",
"323 770 OFFCURVE",
"404 979 OFFCURVE",
"598 979 CURVE SMOOTH"
);
},
{
closed = 1;
nodes = (
"1170 1057 OFFCURVE",
"1029 940 OFFCURVE",
"949 772 CURVE",
"946 239 LINE",
"1025 68 OFFCURVE",
"1167 -33 OFFCURVE",
"1335 -33 CURVE SMOOTH",
"1471 -33 OFFCURVE",
"1649 31 OFFCURVE",
"1769 201 CURVE",
"1719 242 LINE",
"1644 145 OFFCURVE",
"1506 72 OFFCURVE",
"1384 72 CURVE SMOOTH",
"1159 72 OFFCURVE",
"1065 278 OFFCURVE",
"1066 592 CURVE",
"1757 604 LINE",
"1747 909 OFFCURVE",
"1572 1057 OFFCURVE",
"1351 1057 CURVE SMOOTH"
);
},
{
closed = 1;
nodes = (
"1506 977 OFFCURVE",
"1553 823 OFFCURVE",
"1564 678 CURVE",
"1072 678 LINE",
"1102 889 OFFCURVE",
"1203 977 OFFCURVE",
"1353 977 CURVE SMOOTH"
);
}
);
};
layerId = UUID0;
name = Regular;
paths = (
{
closed = 1;
nodes = (
"1152 1057 OFFCURVE",
"1019 962 OFFCURVE",
"943 840 CURVE",
"941 840 LINE",
"855 979 OFFCURVE",
"731 1057 OFFCURVE",
"567 1057 CURVE SMOOTH",
"276 1057 OFFCURVE",
"84 811 OFFCURVE",
"84 487 CURVE SMOOTH",
"84 184 OFFCURVE",
"281 -33 OFFCURVE",
"567 -33 CURVE SMOOTH",
"723 -33 OFFCURVE",
"846 49 OFFCURVE",
"926 176 CURVE",
"928 176 LINE",
"1003 39 OFFCURVE",
"1146 -33 OFFCURVE",
"1307 -33 CURVE SMOOTH",
"1446 -33 OFFCURVE",
"1616 31 OFFCURVE",
"1728 201 CURVE",
"1677 242 LINE",
"1610 145 OFFCURVE",
"1483 72 OFFCURVE",
"1356 72 CURVE SMOOTH",
"1124 72 OFFCURVE",
"1038 276 OFFCURVE",
"1038 590 CURVE",
"1706 602 LINE",
"1706 907 OFFCURVE",
"1544 1057 OFFCURVE",
"1317 1057 CURVE SMOOTH"
);
},
{
closed = 1;
nodes = (
"760 979 OFFCURVE",
"838 764 OFFCURVE",
"848 508 CURVE",
"848 293 OFFCURVE",
"806 49 OFFCURVE",
"581 49 CURVE SMOOTH",
"372 49 OFFCURVE",
"293 293 OFFCURVE",
"293 547 CURVE SMOOTH",
"293 770 OFFCURVE",
"364 979 OFFCURVE",
"569 979 CURVE SMOOTH"
);
},
{
closed = 1;
nodes = (
"1462 974 OFFCURVE",
"1510 832 OFFCURVE",
"1513 676 CURVE",
"1044 676 LINE",
"1074 873 OFFCURVE",
"1160 980 OFFCURVE",
"1307 977 CURVE SMOOTH"
);
}
);
width = 1808;
},
{
background = {
paths = (
{
closed = 1;
nodes = (
"308 1057 OFFCURVE",
"83 830 OFFCURVE",
"83 489 CURVE SMOOTH",
"83 167 OFFCURVE",
"298 -33 OFFCURVE",
"582 -33 CURVE SMOOTH",
"782 -33 OFFCURVE",
"939 113 OFFCURVE",
"1010 353 CURVE",
"1014 729 LINE",
"932 935 OFFCURVE",
"773 1057 OFFCURVE",
"579 1057 CURVE SMOOTH"
);
},
{
closed = 1;
nodes = (
"741 917 OFFCURVE",
"793 681 OFFCURVE",
"793 480 CURVE SMOOTH",
"793 305 OFFCURVE",
"755 115 OFFCURVE",
"593 112 CURVE SMOOTH",
"440 109 OFFCURVE",
"383 336 OFFCURVE",
"384 544 CURVE SMOOTH",
"386 723 OFFCURVE",
"432 909 OFFCURVE",
"575 913 CURVE SMOOTH"
);
},
{
closed = 1;
nodes = (
"1035 1057 OFFCURVE",
"890 903 OFFCURVE",
"821 687 CURVE",
"834 386 LINE",
"887 96 OFFCURVE",
"1065 -33 OFFCURVE",
"1237 -33 CURVE SMOOTH",
"1367 -33 OFFCURVE",
"1526 6 OFFCURVE",
"1664 217 CURVE",
"1572 304 LINE",
"1487 189 OFFCURVE",
"1375 150 OFFCURVE",
"1301 150 CURVE SMOOTH",
"1109 150 OFFCURVE",
"1043 315 OFFCURVE",
"1042 539 CURVE",
"1655 551 LINE",
"1658 946 OFFCURVE",
"1435 1057 OFFCURVE",
"1223 1057 CURVE SMOOTH"
);
},
{
closed = 1;
nodes = (
"1311 913 OFFCURVE",
"1367 852 OFFCURVE",
"1372 683 CURVE",
"1055 683 LINE",
"1072 819 OFFCURVE",
"1130 913 OFFCURVE",
"1233 913 CURVE SMOOTH"
);
}
);
};
layerId = "4C2B4986-1645-43C1-94B7-5E4C57EFF0D9";
name = Bold;
paths = (
{
closed = 1;
nodes = (
"1125 1057 OFFCURVE",
"1033 989.999 OFFCURVE",
"944 891 CURVE",
"941 891 LINE",
"857 994.999 OFFCURVE",
"765 1057 OFFCURVE",
"579 1057 CURVE SMOOTH",
"298 1057 OFFCURVE",
"63 830 OFFCURVE",
"63 489 CURVE SMOOTH",
"63 167 OFFCURVE",
"288 -33 OFFCURVE",
"585 -33 CURVE SMOOTH",
"723 -33 OFFCURVE",
"845 25 OFFCURVE",
"929 127 CURVE",
"931 127 LINE",
"1010 24 OFFCURVE",
"1145 -33 OFFCURVE",
"1286 -33 CURVE SMOOTH",
"1425 -33 OFFCURVE",
"1616 6 OFFCURVE",
"1763 217 CURVE",
"1671 304 LINE",
"1577 189 OFFCURVE",
"1453 150 OFFCURVE",
"1370 150 CURVE SMOOTH",
"1146 150 OFFCURVE",
"1072 343 OFFCURVE",
"1071 539 CURVE",
"1747 551 LINE",
"1750 939 OFFCURVE",
"1520 1057 OFFCURVE",
"1297 1057 CURVE SMOOTH"
);
},
{
closed = 1;
nodes = (
"742 917 OFFCURVE",
"788 683 OFFCURVE",
"792 510 CURVE SMOOTH",
"796 353 OFFCURVE",
"777 115 OFFCURVE",
"593 112 CURVE SMOOTH",
"427 109 OFFCURVE",
"364 336 OFFCURVE",
"364 544 CURVE SMOOTH",
"364 723 OFFCURVE",
"416 909 OFFCURVE",
"575 913 CURVE SMOOTH"
);
},
{
closed = 1;
nodes = (
"1391 913 OFFCURVE",
"1459 852 OFFCURVE",
"1464 683 CURVE",
"1087 683 LINE",
"1107 819 OFFCURVE",
"1174 913 OFFCURVE",
"1295 913 CURVE SMOOTH"
);
}
);
width = 1819;
}
);
leftKerningGroup = o;
leftMetricsKey = o;
rightKerningGroup = e;
rightMetricsKey = e;
unicode = 0153;
},
{
color = 4;
glyphname = p;
lastChange = "2013-05-24 22:53:37 +0400";
layers = (
{
layerId = UUID0;
name = Regular;
paths = (
{
closed = 1;
nodes = (
"572 1057 OFFCURVE",
"451 1007 OFFCURVE",
"368 934 CURVE",
"366 982 OFFCURVE",
"363 1017 OFFCURVE",
"360 1044 CURVE",
"300 1044 LINE",
"270 1016 OFFCURVE",
"239 989 OFFCURVE",
"59 989 CURVE",
"59 903 LINE",
"204 911 LINE",
"196 864 OFFCURVE",
"196 821 OFFCURVE",
"196 778 CURVE SMOOTH",
"192 -211 LINE SMOOTH",
"190 -358 OFFCURVE",
"196 -461 OFFCURVE",
"71 -461 CURVE",
"71 -522 LINE",
"489 -522 LINE",
"489 -438 LINE",
"360 -444 LINE",
"368 -397 OFFCURVE",
"368 -360 OFFCURVE",
"368 -305 CURVE SMOOTH",
"369 34 LINE",
"438 -11 OFFCURVE",
"518 -33 OFFCURVE",
"614 -33 CURVE SMOOTH",
"890 -33 OFFCURVE",
"1136 199 OFFCURVE",
"1136 548 CURVE SMOOTH",
"1136 865 OFFCURVE",
"924 1057 OFFCURVE",
"686 1057 CURVE SMOOTH"
);
},
{
closed = 1;
nodes = (
"836 957 OFFCURVE",
"925 738 OFFCURVE",
"925 517 CURVE SMOOTH",
"925 246 OFFCURVE",
"804 49 OFFCURVE",
"610 49 CURVE SMOOTH",
"521 49 OFFCURVE",
"438 78 OFFCURVE",
"370 129 CURVE",
"372 778 OFFCURVE",
"372 812 OFFCURVE",
"371 842 CURVE",
"428 903 OFFCURVE",
"518 957 OFFCURVE",
"613 957 CURVE SMOOTH"
);
}
);
width = 1223;
},
{
layerId = "4C2B4986-1645-43C1-94B7-5E4C57EFF0D9";
name = Bold;
paths = (
{
closed = 1;
nodes = (
"667 1057 OFFCURVE",
"571 1029 OFFCURVE",
"478 946 CURVE",
"475 946 LINE",
"473 971 OFFCURVE",
"469 1016 OFFCURVE",
"465 1044 CURVE",
"364 1044 LINE",
"336 1018 OFFCURVE",
"240 983 OFFCURVE",
"50 983 CURVE",
"50 828 LINE",
"79 829 OFFCURVE",
"150 831 OFFCURVE",
"194 834 CURVE",
"188 773 OFFCURVE",
"186 709 OFFCURVE",
"186 660 CURVE SMOOTH",
"186 -207 LINE SMOOTH",
"186 -315 OFFCURVE",
"178 -389 OFFCURVE",
"64 -389 CURVE",
"64 -522 LINE",
"601 -522 LINE",
"601 -366 LINE",
"572 -367 OFFCURVE",
"512 -369 OFFCURVE",
"468 -372 CURVE",
"474 -311 OFFCURVE",
"476 -232 OFFCURVE",
"476 -193 CURVE SMOOTH",
"476 4 LINE",
"526 -15 OFFCURVE",
"584 -33 OFFCURVE",
"658 -33 CURVE SMOOTH",
"962 -33 OFFCURVE",
"1165 208 OFFCURVE",
"1165 538 CURVE SMOOTH",
"1165 855 OFFCURVE",
"998 1057 OFFCURVE",
"752 1057 CURVE SMOOTH"
);
},
{
closed = 1;
nodes = (
"799 877 OFFCURVE",
"865 695 OFFCURVE",
"865 507 CURVE SMOOTH",
"865 306 OFFCURVE",
"813 124 OFFCURVE",
"624 120 CURVE SMOOTH",
"566 119 OFFCURVE",
"504 138 OFFCURVE",
"476 158 CURVE",
"476 783 LINE",
"512 835 OFFCURVE",
"574 870 OFFCURVE",
"641 872 CURVE SMOOTH"
);
}
);
width = 1231;
}
);
rightKerningGroup = o;
unicode = 0070;
},
{
color = 4;
glyphname = thorn;
lastChange = "2013-05-24 22:53:37 +0400";
layers = (
{
layerId = UUID0;
name = Regular;
paths = (
{
closed = 1;
nodes = (
"270 1546 LINE",
"239 1518 OFFCURVE",
"198 1491 OFFCURVE",
"18 1491 CURVE",
"18 1405 LINE",
"163 1413 LINE",
"155 1366 OFFCURVE",
"155 1323 OFFCURVE",
"155 1280 CURVE SMOOTH",
"151 -211 LINE SMOOTH",
"149 -358 OFFCURVE",
"155 -461 OFFCURVE",
"30 -461 CURVE",
"30 -522 LINE",
"448 -522 LINE",
"448 -438 LINE",
"319 -444 LINE",
"327 -397 OFFCURVE",
"327 -360 OFFCURVE",
"327 -305 CURVE SMOOTH",
"327 31 LINE",
"395 -13 OFFCURVE",
"476 -33 OFFCURVE",
"571 -33 CURVE SMOOTH",
"857 -33 OFFCURVE",
"1093 192 OFFCURVE",
"1093 541 CURVE SMOOTH",
"1093 858 OFFCURVE",
"884 1057 OFFCURVE",
"636 1057 CURVE SMOOTH",
"523 1057 OFFCURVE",
"411 1013 OFFCURVE",
"328 947 CURVE",
"329 1546 LINE"
);
},
{
closed = 1;
nodes = (
"790 957 OFFCURVE",
"882 731 OFFCURVE",
"882 510 CURVE SMOOTH",
"882 239 OFFCURVE",
"761 49 OFFCURVE",
"567 49 CURVE SMOOTH",
"478 49 OFFCURVE",
"395 76 OFFCURVE",
"327 127 CURVE",
"328 852 LINE",
"387 914 OFFCURVE",
"473 957 OFFCURVE",
"567 957 CURVE SMOOTH"
);
}
);
width = 1182;
},
{
layerId = "4C2B4986-1645-43C1-94B7-5E4C57EFF0D9";
name = Bold;
paths = (
{
closed = 1;
nodes = (
"307 1546 LINE",
"279 1520 OFFCURVE",
"182 1485 OFFCURVE",
"-8 1485 CURVE",
"-8 1330 LINE",
"21 1331 OFFCURVE",
"92 1333 OFFCURVE",
"136 1336 CURVE",
"130 1275 OFFCURVE",
"128 1206 OFFCURVE",
"128 1157 CURVE SMOOTH",
"128 -207 LINE SMOOTH",
"128 -315 OFFCURVE",
"120 -389 OFFCURVE",
"6 -389 CURVE",
"6 -522 LINE",
"543 -522 LINE",
"543 -366 LINE",
"514 -367 OFFCURVE",
"454 -369 OFFCURVE",
"410 -372 CURVE",
"416 -311 OFFCURVE",
"418 -232 OFFCURVE",
"418 -193 CURVE SMOOTH",
"418 4 LINE",
"468 -15 OFFCURVE",
"526 -33 OFFCURVE",
"600 -33 CURVE SMOOTH",
"904 -33 OFFCURVE",
"1107 208 OFFCURVE",
"1107 538 CURVE SMOOTH",
"1107 855 OFFCURVE",
"940 1057 OFFCURVE",
"694 1057 CURVE SMOOTH",
"609 1057 OFFCURVE",
"514 1029 OFFCURVE",
"421 946 CURVE",
"418 946 LINE",
"418 1546 LINE"
);
},
{
closed = 1;
nodes = (
"741 877 OFFCURVE",
"807 695 OFFCURVE",
"807 507 CURVE SMOOTH",
"807 306 OFFCURVE",
"755 124 OFFCURVE",
"566 120 CURVE SMOOTH",
"508 119 OFFCURVE",
"446 138 OFFCURVE",
"418 158 CURVE",
"418 783 LINE",
"454 835 OFFCURVE",
"516 870 OFFCURVE",
"583 872 CURVE SMOOTH"
);
}
);
width = 1173;
}
);
leftKerningGroup = b;
rightKerningGroup = o;
unicode = 00FE;
},
{
color = 4;
glyphname = q;
lastChange = "2013-05-24 22:53:37 +0400";
layers = (
{
layerId = UUID0;
name = Regular;
paths = (
{
closed = 1;
nodes = (
"321 1057 OFFCURVE",
"86 831 OFFCURVE",
"86 489 CURVE SMOOTH",
"86 172 OFFCURVE",
"289 -33 OFFCURVE",
"545 -33 CURVE SMOOTH",
"675 -33 OFFCURVE",
"780 15 OFFCURVE",
"852 96 CURVE",
"852 -211 LINE SMOOTH",
"852 -358 OFFCURVE",
"856 -461 OFFCURVE",
"731 -461 CURVE",
"731 -522 LINE",
"1149 -522 LINE",
"1149 -438 LINE",
"1020 -444 LINE",
"1028 -397 OFFCURVE",
"1028 -360 OFFCURVE",
"1028 -305 CURVE SMOOTH",
"1026 1044 LINE",
"969 1044 LINE",
"896 963 OFFCURVE",
"779 1057 OFFCURVE",
"612 1057 CURVE SMOOTH"
);
},
{
closed = 1;
nodes = (
"792 982 OFFCURVE",
"852 900 OFFCURVE",
"852 735 CURVE SMOOTH",
"852 198 LINE",
"796 120 OFFCURVE",
"708 68 OFFCURVE",
"618 68 CURVE SMOOTH",
"416 68 OFFCURVE",
"297 276 OFFCURVE",
"297 539 CURVE SMOOTH",
"297 803 OFFCURVE",
"417 982 OFFCURVE",
"617 982 CURVE SMOOTH"
);
}
);
width = 1180;
},
{
layerId = "4C2B4986-1645-43C1-94B7-5E4C57EFF0D9";
name = Bold;
paths = (
{
closed = 1;
nodes = (
"268 1057 OFFCURVE",
"66 816 OFFCURVE",
"66 486 CURVE SMOOTH",
"66 169 OFFCURVE",
"233 -33 OFFCURVE",
"479 -33 CURVE SMOOTH",
"576 -33 OFFCURVE",
"669 -3 OFFCURVE",
"756 82 CURVE",
"758 82 LINE",
"756 -207 LINE SMOOTH",
"755 -315 OFFCURVE",
"748 -389 OFFCURVE",
"634 -389 CURVE",
"634 -522 LINE",
"1171 -522 LINE",
"1171 -366 LINE",
"1142 -367 OFFCURVE",
"1082 -369 OFFCURVE",
"1038 -372 CURVE",
"1044 -311 OFFCURVE",
"1046 -232 OFFCURVE",
"1046 -193 CURVE SMOOTH",
"1046 1044 LINE",
"935 1044 LINE",
"919 1023 OFFCURVE",
"885 1011 OFFCURVE",
"865 1011 CURVE SMOOTH",
"810 1011 OFFCURVE",
"729 1057 OFFCURVE",
"578 1057 CURVE SMOOTH"
);
},
{
closed = 1;
nodes = (
"666 907 OFFCURVE",
"756 881 OFFCURVE",
"756 728 CURVE SMOOTH",
"756 247 LINE",
"720 191 OFFCURVE",
"654 152 OFFCURVE",
"586 152 CURVE SMOOTH",
"428 152 OFFCURVE",
"369 341 OFFCURVE",
"366 517 CURVE SMOOTH",
"363 708 OFFCURVE",
"417 906 OFFCURVE",
"597 907 CURVE SMOOTH"
);
}
);
width = 1174;
}
);
leftKerningGroup = d;
unicode = 0071;
},
{
color = 4;
glyphname = r;
lastChange = "2013-05-24 22:53:36 +0400";
layers = (
{
anchors = (
{
name = bottom;
position = "{444, 0}";
},
{
name = top;
position = "{523, 1024}";
}
);
layerId = UUID0;
name = Regular;
paths = (
{
closed = 1;
nodes = (
"582 1057 OFFCURVE",
"447 943 OFFCURVE",
"385 842 CURVE",
"383 941 OFFCURVE",
"379 1001 OFFCURVE",
"375 1044 CURVE",
"316 1044 LINE",
"285 1016 OFFCURVE",
"254 989 OFFCURVE",
"137 989 CURVE SMOOTH",
"74 989 LINE",
"74 905 LINE",
"219 911 LINE",
"211 864 OFFCURVE",
"211 822 OFFCURVE",
"211 779 CURVE SMOOTH",
"211 311 LINE SMOOTH",
"211 164 OFFCURVE",
"215 61 OFFCURVE",
"90 61 CURVE",
"90 0 LINE",
"510 0 LINE",
"510 84 LINE",
"381 78 LINE",
"389 125 OFFCURVE",
"389 162 OFFCURVE",
"389 217 CURVE SMOOTH",
"387 720 LINE",
"459 855 OFFCURVE",
"574 949 OFFCURVE",
"678 945 CURVE",
"670 885 OFFCURVE",
"710 831 OFFCURVE",
"771 830 CURVE SMOOTH",
"844 828 OFFCURVE",
"873 892 OFFCURVE",
"873 928 CURVE SMOOTH",
"873 1018 OFFCURVE",
"805 1057 OFFCURVE",
"729 1057 CURVE SMOOTH"
);
}
);
width = 887;
},
{
anchors = (
{
name = bottom;
position = "{492, 0}";
},
{
name = top;
position = "{589, 1024}";
}
);
layerId = "4C2B4986-1645-43C1-94B7-5E4C57EFF0D9";
name = Bold;
paths = (
{
closed = 1;
nodes = (
"651 1057 OFFCURVE",
"550 940 OFFCURVE",
"497 868 CURVE",
"494 868 LINE",
"494 926 OFFCURVE",
"489 1016 OFFCURVE",
"485 1044 CURVE",
"384 1044 LINE",
"356 1018 OFFCURVE",
"259 983 OFFCURVE",
"69 983 CURVE",
"69 828 LINE",
"98 829 OFFCURVE",
"169 831 OFFCURVE",
"213 834 CURVE",
"207 773 OFFCURVE",
"205 709 OFFCURVE",
"205 660 CURVE SMOOTH",
"205 315 LINE SMOOTH",
"205 207 OFFCURVE",
"197 133 OFFCURVE",
"83 133 CURVE",
"83 0 LINE",
"620 0 LINE",
"620 156 LINE",
"591 155 OFFCURVE",
"531 153 OFFCURVE",
"487 150 CURVE",
"493 211 OFFCURVE",
"495 290 OFFCURVE",
"495 329 CURVE SMOOTH",
"495 663 LINE",
"520 739 OFFCURVE",
"612 863 OFFCURVE",
"695 863 CURVE",
"703 767 OFFCURVE",
"772 744 OFFCURVE",
"827 743 CURVE SMOOTH",
"931 741 OFFCURVE",
"971 825 OFFCURVE",
"971 887 CURVE SMOOTH",
"971 1006 OFFCURVE",
"888 1057 OFFCURVE",
"792 1057 CURVE SMOOTH"
);
}
);
width = 984;
}
);
leftKerningGroup = n;
unicode = 0072;
},
{
color = 4;
glyphname = s;
lastChange = "2014-06-18 13:41:49 +0400";
layers = (
{
anchors = (
{
name = bottom;
position = "{569, 0}";
},
{
name = top;
position = "{468, 1024}";
}
);
layerId = UUID0;
name = Regular;
paths = (
{
closed = 1;
nodes = (
"181 1057 OFFCURVE",
"106 874 OFFCURVE",
"106 760 CURVE SMOOTH",
"106 391 OFFCURVE",
"698 471 OFFCURVE",
"698 209 CURVE SMOOTH",
"698 98 OFFCURVE",
"577 47 OFFCURVE",
"474 47 CURVE SMOOTH",
"315 47 OFFCURVE",
"179 168 OFFCURVE",
"169 338 CURVE",
"106 338 LINE",
"118 -14 LINE",
"204 -14 LINE",
"197 57 LINE",
"264 10 OFFCURVE",
"372 -33 OFFCURVE",
"510 -33 CURVE SMOOTH",
"684 -33 OFFCURVE",
"865 62 OFFCURVE",
"865 268 CURVE SMOOTH",
"865 619 OFFCURVE",
"267 559 OFFCURVE",
"267 825 CURVE SMOOTH",
"267 907 OFFCURVE",
"339 980 OFFCURVE",
"466 980 CURVE SMOOTH",
"642 980 OFFCURVE",
"718 829 OFFCURVE",
"728 688 CURVE",
"792 688 LINE",
"792 1047 LINE",
"706 1047 LINE",
"711 969 LINE",
"627 1037 OFFCURVE",
"530 1057 OFFCURVE",
"456 1057 CURVE SMOOTH"
);
}
);
width = 948;
},
{
anchors = (
{
name = bottom;
position = "{512, 0}";
},
{
name = top;
position = "{481, 1024}";
}
);
layerId = "4C2B4986-1645-43C1-94B7-5E4C57EFF0D9";
name = Bold;
paths = (
{
closed = 1;
nodes = (
"196 1057 OFFCURVE",
"79 885 OFFCURVE",
"79 727 CURVE SMOOTH",
"79 506 OFFCURVE",
"276 445 OFFCURVE",
"446 379 CURVE SMOOTH",
"601 319 OFFCURVE",
"683 294 OFFCURVE",
"684 217 CURVE SMOOTH",
"685 146 OFFCURVE",
"611 115 OFFCURVE",
"543 115 CURVE SMOOTH",
"368 115 OFFCURVE",
"237 212 OFFCURVE",
"225 338 CURVE",
"93 338 LINE",
"101 -14 LINE",
"257 -14 LINE",
"250 48 LINE",
"252 48 LINE",
"316 0 OFFCURVE",
"437 -33 OFFCURVE",
"555 -33 CURVE SMOOTH",
"746 -33 OFFCURVE",
"928 70 OFFCURVE",
"928 283 CURVE SMOOTH",
"928 476 OFFCURVE",
"774 569 OFFCURVE",
"567 640 CURVE SMOOTH",
"426 688 OFFCURVE",
"317 709 OFFCURVE",
"317 804 CURVE SMOOTH",
"317 883 OFFCURVE",
"382 913 OFFCURVE",
"452 913 CURVE SMOOTH",
"600 913 OFFCURVE",
"709 825 OFFCURVE",
"734 684 CURVE",
"866 684 LINE",
"866 1046 LINE",
"710 1046 LINE",
"713 988 LINE",
"711 988 LINE",
"645 1035 OFFCURVE",
"539 1057 OFFCURVE",
"465 1057 CURVE SMOOTH"
);
}
);
width = 993;
}
);
leftKerningGroup = s;
rightKerningGroup = s;
unicode = 0073;
},
{
color = 4;
glyphname = germandbls;
lastChange = "2013-05-24 22:53:36 +0400";
layers = (
{
layerId = UUID0;
name = Regular;
paths = (
{
closed = 1;
nodes = (
"386 1556 OFFCURVE",
"219 1330 OFFCURVE",
"219 1026 CURVE SMOOTH",
"219 1024 LINE",
"51 1024 LINE",
"51 932 LINE",
"219 935 LINE",
"221 311 LINE SMOOTH",
"221 164 OFFCURVE",
"226 61 OFFCURVE",
"101 61 CURVE",
"101 0 LINE",
"518 0 LINE",
"518 84 LINE",
"389 78 LINE",
"398 125 OFFCURVE",
"398 162 OFFCURVE",
"398 217 CURVE SMOOTH",
"396 938 LINE SMOOTH",
"396 1094 OFFCURVE",
"406 1217 OFFCURVE",
"451 1309 CURVE SMOOTH",
"500 1407 OFFCURVE",
"582 1466 OFFCURVE",
"705 1469 CURVE SMOOTH",
"811 1471 OFFCURVE",
"1016 1452 OFFCURVE",
"1009 1057 CURVE",
"768 1062 OFFCURVE",
"637 944 OFFCURVE",
"637 760 CURVE SMOOTH",
"637 424 OFFCURVE",
"1166 455 OFFCURVE",
"1166 213 CURVE SMOOTH",
"1166 104 OFFCURVE",
"1078 47 OFFCURVE",
"986 47 CURVE SMOOTH",
"827 47 OFFCURVE",
"735 166 OFFCURVE",
"725 336 CURVE",
"662 336 LINE",
"674 -16 LINE",
"760 -16 LINE",
"754 33 LINE",
"825 -11 OFFCURVE",
"930 -33 OFFCURVE",
"990 -33 CURVE SMOOTH",
"1197 -33 OFFCURVE",
"1338 63 OFFCURVE",
"1338 270 CURVE SMOOTH",
"1338 584 OFFCURVE",
"799 580 OFFCURVE",
"799 825 CURVE SMOOTH",
"799 1010 OFFCURVE",
"1057 987 OFFCURVE",
"1180 979 CURVE",
"1183 1003 OFFCURVE",
"1185 1023 OFFCURVE",
"1186 1039 CURVE SMOOTH",
"1204 1487 OFFCURVE",
"867 1556 OFFCURVE",
"712 1556 CURVE SMOOTH"
);
}
);
width = 1395;
},
{
layerId = "4C2B4986-1645-43C1-94B7-5E4C57EFF0D9";
name = Bold;
paths = (
{
closed = 1;
nodes = (
"481 1546 OFFCURVE",
"243 1431 OFFCURVE",
"212 1024 CURVE",
"61 1024 LINE",
"61 853 LINE",
"209 858 LINE",
"209 315 LINE SMOOTH",
"209 207 OFFCURVE",
"201 133 OFFCURVE",
"87 133 CURVE",
"87 0 LINE",
"634 0 LINE",
"634 156 LINE",
"605 155 OFFCURVE",
"535 153 OFFCURVE",
"491 150 CURVE",
"497 211 OFFCURVE",
"500 294 OFFCURVE",
"499 333 CURVE",
"499 997 LINE SMOOTH",
"499 1311 OFFCURVE",
"631 1388 OFFCURVE",
"754 1392 CURVE SMOOTH",
"857 1395 OFFCURVE",
"1010 1362 OFFCURVE",
"1011 1048 CURVE",
"826 1011 OFFCURVE",
"752 874 OFFCURVE",
"752 737 CURVE SMOOTH",
"752 516 OFFCURVE",
"909 453 OFFCURVE",
"1079 387 CURVE SMOOTH",
"1234 327 OFFCURVE",
"1306 294 OFFCURVE",
"1307 217 CURVE SMOOTH",
"1308 151 OFFCURVE",
"1234 115 OFFCURVE",
"1176 115 CURVE SMOOTH",
"1001 115 OFFCURVE",
"910 212 OFFCURVE",
"898 338 CURVE",
"766 338 LINE",
"774 -14 LINE",
"930 -14 LINE",
"923 48 LINE",
"925 48 LINE",
"989 0 OFFCURVE",
"1070 -33 OFFCURVE",
"1188 -33 CURVE SMOOTH",
"1379 -33 OFFCURVE",
"1551 70 OFFCURVE",
"1551 283 CURVE SMOOTH",
"1551 476 OFFCURVE",
"1407 577 OFFCURVE",
"1200 648 CURVE SMOOTH",
"1059 696 OFFCURVE",
"989 720 OFFCURVE",
"990 804 CURVE SMOOTH",
"991 912 OFFCURVE",
"1141 919 OFFCURVE",
"1277 909 CURVE",
"1337 1505 OFFCURVE",
"922 1546 OFFCURVE",
"767 1546 CURVE SMOOTH"
);
}
);
width = 1579;
}
);
leftKerningGroup = f;
unicode = 00DF;
},
{
color = 4;
glyphname = t;
lastChange = "2014-06-18 13:41:25 +0400";
layers = (
{
anchors = (
{
name = bottom;
position = "{518, 0}";
},
{
name = center;
position = "{397, 512}";
}
);
layerId = UUID0;
name = Regular;
paths = (
{
closed = 1;
nodes = (
"311 1311 LINE",
"276 1194 OFFCURVE",
"188 1026 OFFCURVE",
"43 1024 CURVE",
"43 936 LINE",
"200 937 LINE",
"196 345 LINE SMOOTH",
"194 16 OFFCURVE",
"352 -33 OFFCURVE",
"475 -33 CURVE SMOOTH",
"544 -33 OFFCURVE",
"663 -19 OFFCURVE",
"784 161 CURVE",
"729 206 LINE",
"676 128 OFFCURVE",
"602 83 OFFCURVE",
"532 83 CURVE SMOOTH",
"413 83 OFFCURVE",
"377 184 OFFCURVE",
"377 370 CURVE SMOOTH",
"377 373 OFFCURVE",
"378 407 OFFCURVE",
"380 940 CURVE",
"725 944 LINE",
"725 1024 LINE",
"380 1024 LINE",
"380 1108 OFFCURVE",
"381 1202 OFFCURVE",
"381 1311 CURVE"
);
}
);
width = 793;
},
{
anchors = (
{
name = bottom;
position = "{506, 0}";
},
{
name = center;
position = "{423, 512}";
}
);
layerId = "4C2B4986-1645-43C1-94B7-5E4C57EFF0D9";
name = Bold;
paths = (
{
closed = 1;
nodes = (
"315 1281 LINE",
"284 1176 OFFCURVE",
"175 1026 OFFCURVE",
"34 1024 CURVE",
"34 853 LINE",
"66 853 OFFCURVE",
"126 855 OFFCURVE",
"174 855 CURVE",
"171 361 LINE SMOOTH",
"169 19 OFFCURVE",
"355 -33 OFFCURVE",
"489 -33 CURVE SMOOTH",
"562 -33 OFFCURVE",
"723 -29 OFFCURVE",
"871 189 CURVE",
"772 281 LINE",
"694 173 OFFCURVE",
"622 158 OFFCURVE",
"586 158 CURVE SMOOTH",
"481 158 OFFCURVE",
"462 262 OFFCURVE",
"462 357 CURVE SMOOTH",
"462 367 OFFCURVE",
"463 474 OFFCURVE",
"465 861 CURVE",
"726 866 LINE",
"726 1024 LINE",
"465 1024 LINE",
"466 1281 LINE"
);
}
);
width = 846;
}
);
unicode = 0074;
},
{
color = 4;
glyphname = u;
lastChange = "2013-05-24 22:53:36 +0400";
layers = (
{
anchors = (
{
name = ogonek;
position = "{1162, 0}";
},
{
name = top;
position = "{585, 1024}";
}
);
layerId = UUID0;
name = Regular;
paths = (
{
closed = 1;
nodes = (
"967 1044 LINE",
"936 1016 OFFCURVE",
"893 989 OFFCURVE",
"776 989 CURVE SMOOTH",
"713 989 LINE",
"713 905 LINE",
"860 911 LINE",
"852 864 OFFCURVE",
"850 821 OFFCURVE",
"850 755 CURVE SMOOTH",
"850 230 LINE",
"793 146 OFFCURVE",
"691 73 OFFCURVE",
"588 72 CURVE SMOOTH",
"426 70 OFFCURVE",
"366 184 OFFCURVE",
"366 420 CURVE SMOOTH",
"366 1044 LINE",
"307 1044 LINE",
"276 1016 OFFCURVE",
"233 989 OFFCURVE",
"117 989 CURVE SMOOTH",
"53 989 LINE",
"53 905 LINE",
"194 911 LINE",
"186 864 OFFCURVE",
"186 821 OFFCURVE",
"186 778 CURVE SMOOTH",
"186 414 LINE SMOOTH",
"186 76 OFFCURVE",
"299 -33 OFFCURVE",
"522 -33 CURVE SMOOTH",
"642 -33 OFFCURVE",
"772 38 OFFCURVE",
"856 123 CURVE",
"859 85 OFFCURVE",
"863 47 OFFCURVE",
"870 0 CURVE",
"1163 0 LINE",
"1163 86 LINE",
"1016 78 LINE",
"1022 133 OFFCURVE",
"1024 227 OFFCURVE",
"1024 270 CURVE SMOOTH",
"1026 1044 LINE"
);
}
);
width = 1223;
},
{
anchors = (
{
name = ogonek;
position = "{1217, 1}";
},
{
name = top;
position = "{626, 1024}";
}
);
layerId = "4C2B4986-1645-43C1-94B7-5E4C57EFF0D9";
name = Bold;
paths = (
{
closed = 1;
nodes = (
"979 1044 LINE",
"951 1018 OFFCURVE",
"855 983 OFFCURVE",
"665 983 CURVE",
"665 828 LINE",
"694 829 OFFCURVE",
"765 831 OFFCURVE",
"809 834 CURVE",
"803 773 OFFCURVE",
"801 704 OFFCURVE",
"801 655 CURVE SMOOTH",
"801 254 LINE",
"753 200 OFFCURVE",
"673 156 OFFCURVE",
"605 156 CURVE SMOOTH",
"501 156 OFFCURVE",
"458 239 OFFCURVE",
"458 417 CURVE SMOOTH",
"458 1044 LINE",
"346 1044 LINE",
"318 1018 OFFCURVE",
"221 983 OFFCURVE",
"31 983 CURVE",
"31 828 LINE",
"60 829 OFFCURVE",
"131 831 OFFCURVE",
"175 834 CURVE",
"169 773 OFFCURVE",
"167 704 OFFCURVE",
"167 655 CURVE SMOOTH",
"167 420 LINE SMOOTH",
"168 104 OFFCURVE",
"263 -33 OFFCURVE",
"507 -33 CURVE SMOOTH",
"638 -33 OFFCURVE",
"732 35 OFFCURVE",
"814 107 CURVE",
"816 107 LINE",
"827 0 LINE",
"1216 0 LINE",
"1216 156 LINE",
"1187 155 OFFCURVE",
"1127 153 OFFCURVE",
"1083 150 CURVE",
"1089 211 OFFCURVE",
"1091 290 OFFCURVE",
"1091 329 CURVE SMOOTH",
"1091 1044 LINE"
);
}
);
width = 1266;
}
);
leftKerningGroup = u;
rightKerningGroup = u;
unicode = 0075;
},
{
color = 4;
glyphname = v;
lastChange = "2013-05-24 22:53:36 +0400";
layers = (
{
layerId = UUID0;
name = Regular;
paths = (
{
closed = 1;
nodes = (
"704 1024 LINE",
"704 940 LINE",
"835 946 LINE",
"823 922 OFFCURVE",
"797 870 OFFCURVE",
"774 805 CURVE SMOOTH",
"611 356 LINE SMOOTH",
"595 311 OFFCURVE",
"577 264 OFFCURVE",
"563 224 CURVE",
"561 224 LINE",
"540 276 OFFCURVE",
"520 328 OFFCURVE",
"499 375 CURVE SMOOTH",
"342 735 LINE SMOOTH",
"290 854 OFFCURVE",
"264 963 OFFCURVE",
"389 963 CURVE",
"389 1024 LINE",
"12 1024 LINE",
"12 940 LINE",
"100 946 LINE",
"102 899 OFFCURVE",
"119 817 OFFCURVE",
"186 662 CURVE SMOOTH",
"479 -6 LINE",
"561 -6 LINE",
"829 686 LINE SMOOTH",
"901 870 OFFCURVE",
"938 963 OFFCURVE",
"1028 963 CURVE",
"1028 1024 LINE"
);
}
);
width = 1034;
},
{
layerId = "4C2B4986-1645-43C1-94B7-5E4C57EFF0D9";
name = Bold;
paths = (
{
closed = 1;
nodes = (
"707 1024 LINE",
"707 868 LINE",
"834 876 LINE",
"834 874 LINE",
"809 834 OFFCURVE",
"790 798 OFFCURVE",
"766 731 CURVE SMOOTH",
"617 309 LINE",
"615 309 LINE",
"443 733 LINE SMOOTH",
"413 815 OFFCURVE",
"406 889 OFFCURVE",
"492 893 CURVE",
"492 1024 LINE",
"12 1024 LINE",
"12 868 LINE",
"88 872 LINE",
"98 823 OFFCURVE",
"97 805 OFFCURVE",
"141 704 CURVE SMOOTH",
"465 -6 LINE",
"644 -6 LINE",
"906 648 LINE SMOOTH",
"938 730 OFFCURVE",
"999 877 OFFCURVE",
"1095 893 CURVE",
"1095 1024 LINE"
);
}
);
width = 1101;
}
);
unicode = 0076;
},
{
color = 4;
glyphname = w;
lastChange = "2013-05-24 22:53:36 +0400";
layers = (
{
anchors = (
{
name = top;
position = "{820, 1024}";
}
);
layerId = UUID0;
name = Regular;
paths = (
{
closed = 1;
nodes = (
"1282 1024 LINE",
"1282 940 LINE",
"1401 947 LINE",
"1376 916 OFFCURVE",
"1358 864 OFFCURVE",
"1339 809 CURVE SMOOTH",
"1143 242 LINE",
"870 1024 LINE",
"786 1024 LINE",
"729 846 OFFCURVE",
"621 529 OFFCURVE",
"529 257 CURVE",
"368 741 LINE SMOOTH",
"324 872 OFFCURVE",
"323 958 OFFCURVE",
"446 963 CURVE",
"446 1024 LINE",
"12 1024 LINE",
"12 940 LINE",
"121 946 LINE",
"128 914 OFFCURVE",
"144 866 OFFCURVE",
"174 780 CURVE SMOOTH",
"442 -6 LINE",
"520 -6 LINE",
"786 769 LINE",
"1054 -6 LINE",
"1136 -6 LINE",
"1431 800 LINE SMOOTH",
"1467 898 OFFCURVE",
"1497 954 OFFCURVE",
"1638 963 CURVE",
"1638 1024 LINE"
);
}
);
width = 1640;
},
{
anchors = (
{
name = top;
position = "{856, 1024}";
}
);
layerId = "4C2B4986-1645-43C1-94B7-5E4C57EFF0D9";
name = Bold;
paths = (
{
closed = 1;
nodes = (
"1265 1024 LINE",
"1265 868 LINE",
"1383 876 LINE",
"1383 874 LINE",
"1358 828 OFFCURVE",
"1345 787 OFFCURVE",
"1322 712 CURVE SMOOTH",
"1243 453 LINE SMOOTH",
"1227 401 OFFCURVE",
"1205 328 OFFCURVE",
"1196 274 CURVE",
"1194 274 LINE",
"1179 329 OFFCURVE",
"1161 402 OFFCURVE",
"1144 459 CURVE SMOOTH",
"980 1024 LINE",
"758 1024 LINE",
"608 510 LINE SMOOTH",
"578 408 OFFCURVE",
"567 347 OFFCURVE",
"554 288 CURVE",
"552 288 LINE",
"543 354 OFFCURVE",
"527 423 OFFCURVE",
"510 483 CURVE SMOOTH",
"441 733 LINE SMOOTH",
"418 817 OFFCURVE",
"421 889 OFFCURVE",
"507 893 CURVE",
"507 1024 LINE",
"16 1024 LINE",
"16 868 LINE",
"96 872 LINE",
"106 823 OFFCURVE",
"111 808 OFFCURVE",
"147 704 CURVE SMOOTH",
"395 -6 LINE",
"598 -6 LINE",
"711 331 LINE SMOOTH",
"726 377 OFFCURVE",
"785 568 OFFCURVE",
"804 682 CURVE",
"806 682 LINE",
"830 595 OFFCURVE",
"864 475 OFFCURVE",
"879 431 CURVE SMOOTH",
"1020 -6 LINE",
"1237 -6 LINE",
"1470 671 LINE SMOOTH",
"1488 724 OFFCURVE",
"1546 893 OFFCURVE",
"1654 893 CURVE",
"1654 1024 LINE"
);
}
);
width = 1660;
}
);
unicode = 0077;
},
{
color = 4;
glyphname = x;
lastChange = "2013-05-24 22:53:36 +0400";
layers = (
{
layerId = UUID0;
name = Regular;
paths = (
{
closed = 1;
nodes = (
"684 1024 LINE",
"684 940 LINE",
"825 948 LINE",
"796 920 OFFCURVE",
"774 889 OFFCURVE",
"733 840 CURVE SMOOTH",
"547 614 LINE",
"428 776 LINE SMOOTH",
"326 915 OFFCURVE",
"344 958 OFFCURVE",
"467 963 CURVE",
"467 1024 LINE",
"45 1024 LINE",
"45 940 LINE",
"141 945 LINE",
"155 907 OFFCURVE",
"180 851 OFFCURVE",
"245 766 CURVE SMOOTH",
"284 715 OFFCURVE",
"389 571 OFFCURVE",
"448 494 CURVE",
"243 227 LINE SMOOTH",
"168 129 OFFCURVE",
"133 82 OFFCURVE",
"49 61 CURVE",
"49 0 LINE",
"393 0 LINE",
"393 84 LINE",
"236 78 LINE",
"277 120 OFFCURVE",
"288 137 OFFCURVE",
"329 192 CURVE SMOOTH",
"501 428 LINE",
"717 162 LINE SMOOTH",
"774 90 OFFCURVE",
"733 61 OFFCURVE",
"667 61 CURVE",
"667 0 LINE",
"1063 0 LINE",
"1063 84 LINE",
"970 78 LINE",
"940 129 OFFCURVE",
"912 164 OFFCURVE",
"880 204 CURVE SMOOTH",
"598 555 LINE",
"755 743 LINE SMOOTH",
"866 877 OFFCURVE",
"907 930 OFFCURVE",
"1020 963 CURVE",
"1020 1024 LINE"
);
}
);
width = 1085;
},
{
layerId = "4C2B4986-1645-43C1-94B7-5E4C57EFF0D9";
name = Bold;
paths = (
{
closed = 1;
nodes = (
"664 1024 LINE",
"664 868 LINE",
"763 876 LINE",
"763 874 LINE",
"728 842 OFFCURVE",
"696 803 OFFCURVE",
"663 763 CURVE SMOOTH",
"586 670 LINE",
"584 670 LINE",
"489 780 LINE SMOOTH",
"440 837 OFFCURVE",
"420 889 OFFCURVE",
"496 893 CURVE",
"496 1024 LINE",
"42 1024 LINE",
"42 868 LINE",
"99 872 LINE",
"116 823 OFFCURVE",
"182 745 OFFCURVE",
"216 705 CURVE SMOOTH",
"416 469 LINE",
"238 265 LINE SMOOTH",
"182 201 OFFCURVE",
"138 153 OFFCURVE",
"82 131 CURVE",
"82 0 LINE",
"421 0 LINE",
"421 156 LINE",
"328 148 LINE",
"328 150 LINE",
"352 165 OFFCURVE",
"406 228 OFFCURVE",
"420 246 CURVE SMOOTH",
"515 360 LINE",
"517 360 LINE",
"638 232 LINE SMOOTH",
"688 177 OFFCURVE",
"691 135 OFFCURVE",
"605 131 CURVE",
"605 0 LINE",
"1088 0 LINE",
"1088 156 LINE",
"1018 152 LINE",
"991 201 OFFCURVE",
"957 242 OFFCURVE",
"920 285 CURVE SMOOTH",
"682 562 LINE",
"819 730 LINE SMOOTH",
"879 804 OFFCURVE",
"943 859 OFFCURVE",
"1025 893 CURVE",
"1025 1024 LINE"
);
}
);
width = 1122;
}
);
unicode = 0078;
},
{
color = 4;
glyphname = y;
lastChange = "2013-05-24 22:53:36 +0400";
layers = (
{
anchors = (
{
name = top;
position = "{588, 1024}";
}
);
layerId = UUID0;
name = Regular;
paths = (
{
closed = 1;
nodes = (
"752 1024 LINE",
"752 940 LINE",
"893 948 LINE",
"864 926 OFFCURVE",
"823 811 OFFCURVE",
"793 721 CURVE SMOOTH",
"735 551 OFFCURVE",
"678 381 OFFCURVE",
"617 207 CURVE",
"377 721 LINE SMOOTH",
"304 878 OFFCURVE",
"309 954 OFFCURVE",
"423 962 CURVE SMOOTH",
"432 963 LINE",
"432 1024 LINE",
"8 1024 LINE",
"8 940 LINE",
"107 945 LINE",
"116 899 OFFCURVE",
"143 816 OFFCURVE",
"215 662 CURVE SMOOTH",
"535 -23 LINE",
"475 -188 OFFCURVE",
"426 -313 OFFCURVE",
"391 -372 CURVE SMOOTH",
"352 -438 OFFCURVE",
"300 -464 OFFCURVE",
"264 -448 CURVE",
"266 -439 OFFCURVE",
"267 -428 OFFCURVE",
"267 -420 CURVE SMOOTH",
"267 -388 OFFCURVE",
"247 -329 OFFCURVE",
"182 -331 CURVE SMOOTH",
"128 -332 OFFCURVE",
"94 -380 OFFCURVE",
"94 -431 CURVE SMOOTH",
"94 -514 OFFCURVE",
"163 -555 OFFCURVE",
"248 -555 CURVE SMOOTH",
"430 -555 OFFCURVE",
"503 -363 OFFCURVE",
"627 -18 CURVE SMOOTH",
"883 696 LINE SMOOTH",
"934 836 OFFCURVE",
"971 924 OFFCURVE",
"1073 963 CURVE",
"1073 1024 LINE"
);
}
);
width = 1081;
},
{
anchors = (
{
name = top;
position = "{604, 1024}";
}
);
layerId = "4C2B4986-1645-43C1-94B7-5E4C57EFF0D9";
name = Bold;
paths = (
{
closed = 1;
nodes = (
"756 1024 LINE",
"756 868 LINE",
"873 876 LINE",
"873 874 LINE",
"835 829 OFFCURVE",
"803 733 OFFCURVE",
"786 683 CURVE SMOOTH",
"727 505 OFFCURVE",
"681 344 OFFCURVE",
"657 274 CURVE",
"655 274 LINE",
"455 733 LINE SMOOTH",
"422 803 OFFCURVE",
"416 881 OFFCURVE",
"520 893 CURVE",
"520 1024 LINE",
"10 1024 LINE",
"10 868 LINE",
"104 872 LINE",
"112 812 OFFCURVE",
"124 748 OFFCURVE",
"202 595 CURVE SMOOTH",
"527 -54 LINE",
"480 -226 OFFCURVE",
"407 -390 OFFCURVE",
"352 -390 CURVE",
"352 -388 LINE",
"367 -302 OFFCURVE",
"311 -244 OFFCURVE",
"246 -246 CURVE SMOOTH",
"171 -248 OFFCURVE",
"117 -314 OFFCURVE",
"117 -387 CURVE SMOOTH",
"117 -488 OFFCURVE",
"198 -555 OFFCURVE",
"304 -555 CURVE SMOOTH",
"489 -555 OFFCURVE",
"570 -406 OFFCURVE",
"684 -72 CURVE SMOOTH",
"941 659 LINE SMOOTH",
"983 782 OFFCURVE",
"1036 872 OFFCURVE",
"1120 893 CURVE",
"1120 1024 LINE"
);
}
);
width = 1128;
}
);
leftKerningGroup = y;
rightKerningGroup = y;
unicode = 0079;
},
{
color = 4;
glyphname = z;
lastChange = "2013-05-24 22:53:36 +0400";
layers = (
{
anchors = (
{
name = top;
position = "{545, 1024}";
}
);
layerId = UUID0;
name = Regular;
paths = (
{
closed = 1;
nodes = (
"137 1024 LINE",
"113 657 LINE",
"176 657 LINE",
"199 815 OFFCURVE",
"232 944 OFFCURVE",
"385 946 CURVE SMOOTH",
"770 952 LINE",
"744 936 OFFCURVE",
"696 874 OFFCURVE",
"653 819 CURVE SMOOTH",
"82 84 LINE",
"82 0 LINE",
"932 0 LINE",
"957 373 LINE",
"897 373 LINE",
"873 209 OFFCURVE",
"821 76 OFFCURVE",
"651 78 CURVE SMOOTH",
"256 84 LINE",
"307 127 OFFCURVE",
"328 154 OFFCURVE",
"363 199 CURVE SMOOTH",
"940 958 LINE",
"940 1024 LINE"
);
}
);
width = 1047;
},
{
anchors = (
{
name = top;
position = "{546, 1024}";
}
);
layerId = "4C2B4986-1645-43C1-94B7-5E4C57EFF0D9";
name = Bold;
paths = (
{
closed = 1;
nodes = (
"119 1024 LINE",
"90 629 LINE",
"217 629 LINE",
"238 771 OFFCURVE",
"276 885 OFFCURVE",
"371 887 CURVE SMOOTH",
"648 891 LINE",
"648 889 LINE",
"637 878 OFFCURVE",
"588 828 OFFCURVE",
"542 769 CURVE SMOOTH",
"72 148 LINE",
"72 0 LINE",
"955 0 LINE",
"985 402 LINE",
"858 402 LINE",
"837 257 OFFCURVE",
"794 138 OFFCURVE",
"665 141 CURVE SMOOTH",
"377 148 LINE",
"377 150 LINE",
"413 182 OFFCURVE",
"452 222 OFFCURVE",
"492 275 CURVE SMOOTH",
"949 894 LINE",
"949 1024 LINE"
);
}
);
width = 1053;
}
);
leftKerningGroup = z;
rightKerningGroup = z;
unicode = 007A;
},
{
color = 4;
glyphname = fi;
lastChange = "2013-05-24 22:53:36 +0400";
layers = (
{
layerId = UUID0;
name = Regular;
paths = (
{
closed = 1;
nodes = (
"367 1556 OFFCURVE",
"219 1345 OFFCURVE",
"219 1028 CURVE SMOOTH",
"219 1024 LINE",
"145 1025 OFFCURVE",
"85 1024 OFFCURVE",
"51 1024 CURVE",
"51 932 LINE",
"219 936 LINE",
"223 311 LINE SMOOTH",
"223 164 OFFCURVE",
"228 61 OFFCURVE",
"103 61 CURVE",
"103 0 LINE",
"518 0 LINE",
"518 84 LINE",
"389 78 LINE",
"398 125 OFFCURVE",
"398 160 OFFCURVE",
"398 215 CURVE SMOOTH",
"396 941 LINE",
"916 952 LINE",
"910 897 OFFCURVE",
"908 862 OFFCURVE",
"908 819 CURVE SMOOTH",
"908 311 LINE SMOOTH",
"908 164 OFFCURVE",
"912 61 OFFCURVE",
"787 61 CURVE",
"787 0 LINE",
"1204 0 LINE",
"1204 84 LINE",
"1075 78 LINE",
"1084 125 OFFCURVE",
"1084 162 OFFCURVE",
"1084 217 CURVE SMOOTH",
"1084 1044 LINE",
"1024 1044 LINE",
"1014 1036 OFFCURVE",
"957 1024 OFFCURVE",
"864 1024 CURVE SMOOTH",
"396 1024 LINE",
"396 1100 LINE SMOOTH",
"396 1356 OFFCURVE",
"527 1479 OFFCURVE",
"713 1479 CURVE SMOOTH",
"799 1479 OFFCURVE",
"866 1457 OFFCURVE",
"914 1422 CURVE",
"906 1404 OFFCURVE",
"903 1384 OFFCURVE",
"903 1367 CURVE SMOOTH",
"903 1334 OFFCURVE",
"928 1277 OFFCURVE",
"996 1279 CURVE SMOOTH",
"1053 1280 OFFCURVE",
"1084 1322 OFFCURVE",
"1084 1376 CURVE SMOOTH",
"1084 1483 OFFCURVE",
"938 1556 OFFCURVE",
"754 1556 CURVE SMOOTH"
);
}
);
width = 1276;
},
{
layerId = "4C2B4986-1645-43C1-94B7-5E4C57EFF0D9";
name = Bold;
paths = (
{
closed = 1;
nodes = (
"433 1546 OFFCURVE",
"227 1400 OFFCURVE",
"211 1024 CURVE",
"62 1024 LINE",
"62 853 LINE",
"210 856 LINE",
"210 315 LINE SMOOTH",
"210 207 OFFCURVE",
"202 133 OFFCURVE",
"88 133 CURVE",
"88 0 LINE",
"635 0 LINE",
"635 156 LINE",
"606 155 OFFCURVE",
"536 153 OFFCURVE",
"492 150 CURVE",
"498 211 OFFCURVE",
"500 294 OFFCURVE",
"500 333 CURVE SMOOTH",
"497 863 LINE",
"910 873 LINE",
"904 812 OFFCURVE",
"902 743 OFFCURVE",
"902 694 CURVE SMOOTH",
"902 315 LINE SMOOTH",
"902 207 OFFCURVE",
"894 133 OFFCURVE",
"780 133 CURVE",
"780 0 LINE",
"1317 0 LINE",
"1317 156 LINE",
"1288 155 OFFCURVE",
"1228 153 OFFCURVE",
"1184 150 CURVE",
"1190 211 OFFCURVE",
"1192 290 OFFCURVE",
"1192 329 CURVE SMOOTH",
"1192 1044 LINE",
"1081 1044 LINE",
"1053 1018 OFFCURVE",
"855 1024 OFFCURVE",
"665 1024 CURVE SMOOTH",
"496 1024 LINE",
"496 1073 LINE SMOOTH",
"495 1235 OFFCURVE",
"519 1401 OFFCURVE",
"741 1401 CURVE SMOOTH",
"876 1401 OFFCURVE",
"924 1348 OFFCURVE",
"934 1336 CURVE",
"907 1244 OFFCURVE",
"965 1168 OFFCURVE",
"1058 1170 CURVE SMOOTH",
"1141 1172 OFFCURVE",
"1182 1237 OFFCURVE",
"1183 1309 CURVE SMOOTH",
"1184 1377 OFFCURVE",
"1127 1546 OFFCURVE",
"742 1546 CURVE SMOOTH"
);
}
);
width = 1367;
}
);
unicode = FB01;
},
{
color = 4;
glyphname = fl;
lastChange = "2013-05-24 22:53:36 +0400";
layers = (
{
layerId = UUID0;
name = Regular;
paths = (
{
closed = 1;
nodes = (
"371 1556 OFFCURVE",
"219 1395 OFFCURVE",
"219 1087 CURVE SMOOTH",
"219 1024 LINE",
"51 1024 LINE",
"51 932 LINE",
"219 935 LINE",
"221 311 LINE SMOOTH",
"221 164 OFFCURVE",
"226 61 OFFCURVE",
"101 61 CURVE",
"101 0 LINE",
"518 0 LINE",
"518 84 LINE",
"389 78 LINE",
"398 125 OFFCURVE",
"398 162 OFFCURVE",
"398 217 CURVE SMOOTH",
"396 939 LINE",
"672 944 LINE",
"672 1024 LINE",
"396 1024 LINE",
"396 1180 LINE SMOOTH",
"396 1364 OFFCURVE",
"451 1470 OFFCURVE",
"637 1470 CURVE SMOOTH",
"713 1470 OFFCURVE",
"850 1450 OFFCURVE",
"938 1397 CURVE",
"938 311 LINE SMOOTH",
"938 164 OFFCURVE",
"942 61 OFFCURVE",
"817 61 CURVE",
"817 0 LINE",
"1235 0 LINE",
"1235 84 LINE",
"1106 78 LINE",
"1114 125 OFFCURVE",
"1112 162 OFFCURVE",
"1112 217 CURVE SMOOTH",
"1112 1546 LINE",
"1053 1546 LINE",
"914 1468 OFFCURVE",
"826 1556 OFFCURVE",
"596 1556 CURVE SMOOTH"
);
}
);
width = 1305;
},
{
layerId = "4C2B4986-1645-43C1-94B7-5E4C57EFF0D9";
name = Bold;
paths = (
{
closed = 1;
nodes = (
"1095 1546 LINE",
"1062 1517 OFFCURVE",
"1030 1502 OFFCURVE",
"975 1502 CURVE SMOOTH",
"871 1502 OFFCURVE",
"776 1546 OFFCURVE",
"622 1546 CURVE SMOOTH",
"376 1546 OFFCURVE",
"210 1408 OFFCURVE",
"210 1054 CURVE SMOOTH",
"210 1024 LINE",
"62 1024 LINE",
"62 853 LINE",
"210 856 LINE",
"210 315 LINE SMOOTH",
"210 207 OFFCURVE",
"202 133 OFFCURVE",
"88 133 CURVE",
"88 0 LINE",
"635 0 LINE",
"635 156 LINE",
"606 155 OFFCURVE",
"536 153 OFFCURVE",
"492 150 CURVE",
"498 211 OFFCURVE",
"500 294 OFFCURVE",
"500 333 CURVE SMOOTH",
"497 861 LINE",
"725 866 LINE",
"725 1024 LINE",
"496 1024 LINE",
"495 1171 LINE SMOOTH",
"494 1283 OFFCURVE",
"541 1391 OFFCURVE",
"675 1391 CURVE SMOOTH",
"786 1391 OFFCURVE",
"834 1368 OFFCURVE",
"916 1323 CURVE",
"916 315 LINE SMOOTH",
"916 207 OFFCURVE",
"908 133 OFFCURVE",
"794 133 CURVE",
"794 0 LINE",
"1331 0 LINE",
"1331 156 LINE",
"1302 155 OFFCURVE",
"1242 153 OFFCURVE",
"1198 150 CURVE",
"1204 211 OFFCURVE",
"1206 290 OFFCURVE",
"1206 329 CURVE SMOOTH",
"1206 1546 LINE"
);
}
);
width = 1382;
}
);
unicode = FB02;
},
{
color = 4;
glyphname = ordfeminine;
lastChange = "2013-05-24 22:53:37 +0400";
layers = (
{
layerId = UUID0;
name = Regular;
paths = (
{
closed = 1;
nodes = (
"256 1467 OFFCURVE",
"144 1372 OFFCURVE",
"144 1278 CURVE SMOOTH",
"144 1239 OFFCURVE",
"168 1207 OFFCURVE",
"209 1206 CURVE SMOOTH",
"259 1205 OFFCURVE",
"276 1245 OFFCURVE",
"276 1270 CURVE SMOOTH",
"276 1290 OFFCURVE",
"271 1306 OFFCURVE",
"259 1320 CURVE",
"276 1369 OFFCURVE",
"336 1400 OFFCURVE",
"389 1398 CURVE SMOOTH",
"504 1394 OFFCURVE",
"512 1318 OFFCURVE",
"512 1236 CURVE SMOOTH",
"512 1166 LINE",
"334 1168 OFFCURVE",
"111 1095 OFFCURVE",
"111 931 CURVE SMOOTH",
"111 843 OFFCURVE",
"179 779 OFFCURVE",
"312 779 CURVE SMOOTH",
"397 779 OFFCURVE",
"463 815 OFFCURVE",
"513 870 CURVE",
"523 827 OFFCURVE",
"550 783 OFFCURVE",
"623 783 CURVE SMOOTH",
"672 783 OFFCURVE",
"731 818 OFFCURVE",
"754 849 CURVE",
"731 888 LINE",
"717 877 OFFCURVE",
"705 871 OFFCURVE",
"695 871 CURVE SMOOTH",
"658 871 OFFCURVE",
"637 904 OFFCURVE",
"637 994 CURVE SMOOTH",
"639 1222 LINE SMOOTH",
"641 1392 OFFCURVE",
"557 1467 OFFCURVE",
"410 1467 CURVE SMOOTH"
);
},
{
closed = 1;
nodes = (
"510 1037 OFFCURVE",
"508 972 OFFCURVE",
"508 941 CURVE",
"455 889 OFFCURVE",
"392 858 OFFCURVE",
"328 867 CURVE SMOOTH",
"305 871 OFFCURVE",
"260 890 OFFCURVE",
"256 945 CURVE SMOOTH",
"247 1053 OFFCURVE",
"385 1102 OFFCURVE",
"511 1102 CURVE"
);
}
);
width = 838;
},
{
layerId = "4C2B4986-1645-43C1-94B7-5E4C57EFF0D9";
name = Bold;
paths = (
{
closed = 1;
nodes = (
"222 1467 OFFCURVE",
"102 1370 OFFCURVE",
"102 1265 CURVE SMOOTH",
"102 1208 OFFCURVE",
"138 1166 OFFCURVE",
"200 1165 CURVE SMOOTH",
"275 1164 OFFCURVE",
"303 1228 OFFCURVE",
"303 1267 CURVE SMOOTH",
"303 1284 OFFCURVE",
"299 1310 OFFCURVE",
"288 1326 CURVE",
"307 1345 OFFCURVE",
"341 1354 OFFCURVE",
"367 1353 CURVE SMOOTH",
"435 1350 OFFCURVE",
"440 1293 OFFCURVE",
"440 1239 CURVE SMOOTH",
"440 1150 LINE",
"268 1138 OFFCURVE",
"72 1071 OFFCURVE",
"72 916 CURVE SMOOTH",
"72 811 OFFCURVE",
"145 752 OFFCURVE",
"273 752 CURVE SMOOTH",
"331 752 OFFCURVE",
"418 793 OFFCURVE",
"457 869 CURVE",
"459 869 LINE",
"467 789 OFFCURVE",
"526 752 OFFCURVE",
"584 752 CURVE SMOOTH",
"642 752 OFFCURVE",
"708 791 OFFCURVE",
"749 847 CURVE",
"709 907 LINE",
"694 897 OFFCURVE",
"685 896 OFFCURVE",
"674 896 CURVE SMOOTH",
"642 896 OFFCURVE",
"638 941 OFFCURVE",
"638 967 CURVE SMOOTH",
"638 1036 OFFCURVE",
"640 1130 OFFCURVE",
"640 1200 CURVE SMOOTH",
"642 1385 OFFCURVE",
"550 1467 OFFCURVE",
"388 1467 CURVE SMOOTH"
);
},
{
closed = 1;
nodes = (
"440 954 LINE",
"406 920 OFFCURVE",
"372 904 OFFCURVE",
"340 904 CURVE SMOOTH",
"301 904 OFFCURVE",
"284 926 OFFCURVE",
"282 950 CURVE SMOOTH",
"277 1009 OFFCURVE",
"359 1046 OFFCURVE",
"440 1053 CURVE"
);
}
);
width = 790;
}
);
unicode = 00AA;
},
{
color = 4;
glyphname = ordmasculine;
lastChange = "2013-05-24 22:53:37 +0400";
layers = (
{
layerId = UUID0;
name = Regular;
paths = (
{
closed = 1;
nodes = (
"241 1467 OFFCURVE",
"98 1310 OFFCURVE",
"98 1107 CURVE SMOOTH",
"98 916 OFFCURVE",
"241 779 OFFCURVE",
"429 779 CURVE SMOOTH",
"622 779 OFFCURVE",
"763 925 OFFCURVE",
"761 1133 CURVE SMOOTH",
"759 1330 OFFCURVE",
"622 1467 OFFCURVE",
"434 1467 CURVE SMOOTH"
);
},
{
closed = 1;
nodes = (
"563 1402 OFFCURVE",
"618 1254 OFFCURVE",
"618 1101 CURVE SMOOTH",
"618 965 OFFCURVE",
"558 855 OFFCURVE",
"444 851 CURVE SMOOTH",
"309 847 OFFCURVE",
"247 986 OFFCURVE",
"247 1144 CURVE SMOOTH",
"247 1285 OFFCURVE",
"311 1393 OFFCURVE",
"425 1398 CURVE SMOOTH"
);
}
);
width = 858;
},
{
layerId = "4C2B4986-1645-43C1-94B7-5E4C57EFF0D9";
name = Bold;
paths = (
{
closed = 1;
nodes = (
"188 1467 OFFCURVE",
"62 1304 OFFCURVE",
"62 1092 CURVE SMOOTH",
"62 891 OFFCURVE",
"189 746 OFFCURVE",
"386 746 CURVE SMOOTH",
"590 746 OFFCURVE",
"714 899 OFFCURVE",
"712 1117 CURVE SMOOTH",
"710 1323 OFFCURVE",
"589 1467 OFFCURVE",
"391 1467 CURVE SMOOTH"
);
},
{
closed = 1;
nodes = (
"470 1359 OFFCURVE",
"499 1249 OFFCURVE",
"499 1087 CURVE SMOOTH",
"499 941 OFFCURVE",
"461 863 OFFCURVE",
"396 861 CURVE SMOOTH",
"316 858 OFFCURVE",
"281 960 OFFCURVE",
"281 1126 CURVE SMOOTH",
"281 1276 OFFCURVE",
"321 1352 OFFCURVE",
"388 1355 CURVE SMOOTH"
);
}
);
width = 775;
}
);
unicode = 00BA;
},
{
color = 4;
glyphname = "Be-cy";
lastChange = "2013-05-30 21:51:23 +0400";
layers = (
{
layerId = UUID0;
name = Regular;
paths = (
{
closed = 1;
nodes = (
"113 1434 LINE",
"113 1343 LINE",
"261 1352 LINE",
"256 1311 OFFCURVE",
"254 1260 OFFCURVE",
"254 1204 CURVE SMOOTH",
"254 330 LINE SMOOTH",
"254 176 OFFCURVE",
"267 72 OFFCURVE",
"113 68 CURVE",
"113 0 LINE",
"711 0 LINE SMOOTH",
"988 0 OFFCURVE",
"1194 154 OFFCURVE",
"1194 416 CURVE SMOOTH",
"1194 663 OFFCURVE",
"1048 831 OFFCURVE",
"598 818 CURVE SMOOTH",
"433 814 LINE",
"433 1106 LINE SMOOTH",
"433 1247 OFFCURVE",
"421 1354 OFFCURVE",
"574 1358 CURVE SMOOTH",
"723 1362 LINE SMOOTH",
"877 1366 OFFCURVE",
"1006 1317 OFFCURVE",
"1006 1075 CURVE",
"1074 1075 LINE",
"1063 1434 LINE"
);
},
{
closed = 1;
nodes = (
"830 741 OFFCURVE",
"996 671 OFFCURVE",
"996 404 CURVE SMOOTH",
"996 187 OFFCURVE",
"854 78 OFFCURVE",
"643 78 CURVE SMOOTH",
"617 78 OFFCURVE",
"490 76 OFFCURVE",
"426 82 CURVE",
"431 117 OFFCURVE",
"433 168 OFFCURVE",
"433 242 CURVE SMOOTH",
"433 735 LINE",
"498 739 OFFCURVE",
"562 741 OFFCURVE",
"643 741 CURVE SMOOTH"
);
}
);
width = 1274;
},
{
background = {
paths = (
{
closed = 1;
nodes = (
"102 1434 LINE",
"102 1276 LINE",
"131 1277 OFFCURVE",
"212 1279 OFFCURVE",
"256 1282 CURVE",
"251 1247 OFFCURVE",
"248 1172 OFFCURVE",
"248 1098 CURVE",
"544 1121 LINE",
"544 1280 OFFCURVE",
"595 1297 OFFCURVE",
"681 1299 CURVE SMOOTH",
"755 1301 LINE SMOOTH",
"866 1304 OFFCURVE",
"1004 1259 OFFCURVE",
"1004 1037 CURVE",
"1139 1037 LINE",
"1127 1434 LINE"
);
}
);
};
layerId = "4C2B4986-1645-43C1-94B7-5E4C57EFF0D9";
name = Bold;
paths = (
{
closed = 1;
nodes = (
"544 834 LINE",
"544 1121 LINE SMOOTH",
"544 1280 OFFCURVE",
"595 1298 OFFCURVE",
"681 1299 CURVE SMOOTH",
"815 1301 LINE SMOOTH",
"926 1303 OFFCURVE",
"1064 1259 OFFCURVE",
"1064 1037 CURVE",
"1199 1037 LINE",
"1187 1434 LINE",
"102 1434 LINE",
"102 1276 LINE",
"131 1277 OFFCURVE",
"212 1279 OFFCURVE",
"256 1282 CURVE",
"251 1247 OFFCURVE",
"248 1172 OFFCURVE",
"248 1098 CURVE SMOOTH",
"248 313 LINE SMOOTH",
"248 148 OFFCURVE",
"194 140 OFFCURVE",
"102 135 CURVE",
"102 0 LINE",
"799 0 LINE SMOOTH",
"1086 0 OFFCURVE",
"1297 144 OFFCURVE",
"1297 416 CURVE SMOOTH",
"1297 645 OFFCURVE",
"1202 852 OFFCURVE",
"667 837 CURVE SMOOTH"
);
},
{
closed = 1;
nodes = (
"544 689 LINE",
"597 692 OFFCURVE",
"642 691 OFFCURVE",
"710 691 CURVE SMOOTH",
"842 691 OFFCURVE",
"974 634 OFFCURVE",
"974 423 CURVE SMOOTH",
"974 266 OFFCURVE",
"902 156 OFFCURVE",
"736 148 CURVE SMOOTH",
"672 145 OFFCURVE",
"608 145 OFFCURVE",
"536 145 CURVE",
"541 180 OFFCURVE",
"544 252 OFFCURVE",
"544 326 CURVE SMOOTH"
);
}
);
width = 1354;
}
);
unicode = 0411;
userData = {
public.markColor = "0.67,0.95,0.38,1";
};
},
{
color = 4;
glyphname = "Ge-cy";
lastChange = "2013-05-24 23:21:14 +0400";
layers = (
{
layerId = UUID0;
name = Regular;
paths = (
{
closed = 1;
nodes = (
"113 1434 LINE",
"113 1343 LINE",
"261 1352 LINE",
"256 1311 OFFCURVE",
"254 1260 OFFCURVE",
"254 1204 CURVE SMOOTH",
"254 319 LINE SMOOTH",
"254 174 OFFCURVE",
"267 74 OFFCURVE",
"113 68 CURVE",
"113 0 LINE",
"635 0 LINE",
"635 90 LINE",
"426 82 LINE",
"431 117 OFFCURVE",
"433 170 OFFCURVE",
"433 244 CURVE SMOOTH",
"433 1106 LINE SMOOTH",
"433 1247 OFFCURVE",
"421 1354 OFFCURVE",
"574 1358 CURVE SMOOTH",
"723 1362 LINE SMOOTH",
"877 1366 OFFCURVE",
"1006 1317 OFFCURVE",
"1006 1075 CURVE",
"1074 1075 LINE",
"1063 1434 LINE"
);
}
);
width = 1122;
},
{
layerId = "4C2B4986-1645-43C1-94B7-5E4C57EFF0D9";
name = Bold;
paths = (
{
closed = 1;
nodes = (
"102 1434 LINE",
"102 1276 LINE",
"131 1277 OFFCURVE",
"212 1279 OFFCURVE",
"256 1282 CURVE",
"251 1247 OFFCURVE",
"248 1172 OFFCURVE",
"248 1098 CURVE SMOOTH",
"248 313 LINE SMOOTH",
"248 148 OFFCURVE",
"194 140 OFFCURVE",
"102 135 CURVE",
"102 0 LINE",
"718 0 LINE",
"718 158 LINE",
"689 157 OFFCURVE",
"580 155 OFFCURVE",
"536 152 CURVE",
"541 187 OFFCURVE",
"544 262 OFFCURVE",
"544 336 CURVE",
"544 1121 LINE",
"544 1280 OFFCURVE",
"595 1297 OFFCURVE",
"681 1299 CURVE SMOOTH",
"755 1301 LINE SMOOTH",
"866 1304 OFFCURVE",
"1004 1259 OFFCURVE",
"1004 1037 CURVE",
"1139 1037 LINE",
"1127 1434 LINE"
);
}
);
width = 1169;
}
);
unicode = 0413;
userData = {
public.markColor = "0.67,0.95,0.38,1";
};
},
{
color = 4;
glyphname = "Gheupturn-cy";
lastChange = "2013-05-28 17:04:11 +0400";
layers = (
{
layerId = UUID0;
name = Regular;
paths = (
{
closed = 1;
nodes = (
"1063 1360 LINE",
"1074 1719 LINE",
"1006 1719 LINE",
"1006 1477 OFFCURVE",
"877 1434 OFFCURVE",
"723 1434 CURVE SMOOTH",
"665 1434 LINE",
"665 1360 LINE"
);
},
{
closed = 1;
nodes = (
"665 1434 LINE",
"113 1434 LINE",
"113 1343 LINE",
"261 1352 LINE",
"256 1311 OFFCURVE",
"254 1260 OFFCURVE",
"254 1204 CURVE SMOOTH",
"254 319 LINE SMOOTH",
"254 174 OFFCURVE",
"267 74 OFFCURVE",
"113 68 CURVE",
"113 0 LINE",
"635 0 LINE",
"635 90 LINE",
"426 82 LINE",
"431 117 OFFCURVE",
"433 170 OFFCURVE",
"433 244 CURVE SMOOTH",
"433 1106 LINE SMOOTH",
"433 1247 OFFCURVE",
"421 1354 OFFCURVE",
"574 1358 CURVE SMOOTH",
"665 1360 LINE"
);
}
);
width = 1122;
},
{
layerId = "4C2B4986-1645-43C1-94B7-5E4C57EFF0D9";
name = Bold;
paths = (
{
closed = 1;
nodes = (
"1127 1299 LINE",
"1139 1696 LINE",
"1004 1696 LINE",
"1004 1474 OFFCURVE",
"866 1434 OFFCURVE",
"755 1434 CURVE SMOOTH",
"703 1434 LINE",
"703 1299 LINE"
);
},
{
closed = 1;
nodes = (
"703 1434 LINE",
"102 1434 LINE",
"102 1276 LINE",
"131 1277 OFFCURVE",
"212 1279 OFFCURVE",
"256 1282 CURVE",
"251 1247 OFFCURVE",
"248 1172 OFFCURVE",
"248 1098 CURVE SMOOTH",
"248 313 LINE SMOOTH",
"248 148 OFFCURVE",
"194 140 OFFCURVE",
"102 135 CURVE",
"102 0 LINE",
"718 0 LINE",
"718 158 LINE",
"689 157 OFFCURVE",
"580 155 OFFCURVE",
"536 152 CURVE",
"541 187 OFFCURVE",
"544 262 OFFCURVE",
"544 336 CURVE",
"544 1121 LINE",
"544 1280 OFFCURVE",
"595 1299 OFFCURVE",
"681 1299 CURVE SMOOTH",
"703 1299 LINE"
);
}
);
width = 1169;
}
);
unicode = 0490;
},
{
color = 4;
glyphname = "De-cy";
lastChange = "2013-05-30 22:28:13 +0400";
layers = (
{
background = {
paths = (
{
closed = 1;
nodes = (
"267 1434 LINE",
"267 1343 LINE",
"415 1352 LINE",
"960 1353 LINE",
"960 319 LINE SMOOTH",
"960 174 OFFCURVE",
"972 74 OFFCURVE",
"818 68 CURVE",
"818 0 LINE",
"1279 0 LINE",
"1279 90 LINE",
"1132 82 LINE",
"1136 117 OFFCURVE",
"1138 170 OFFCURVE",
"1138 244 CURVE SMOOTH",
"1138 1114 LINE SMOOTH",
"1138 1260 OFFCURVE",
"1126 1360 OFFCURVE",
"1279 1366 CURVE",
"1279 1434 LINE"
);
},
{
closed = 1;
nodes = (
"458 1434 LINE",
"458 1047 LINE SMOOTH",
"458 364 OFFCURVE",
"302 51 OFFCURVE",
"188 51 CURVE SMOOTH",
"175 51 OFFCURVE",
"165 56 OFFCURVE",
"153 67 CURVE",
"169 84 OFFCURVE",
"175 97 OFFCURVE",
"175 122 CURVE SMOOTH",
"175 163 OFFCURVE",
"141 217 OFFCURVE",
"74 214 CURVE SMOOTH",
"15 211 OFFCURVE",
"-27 165 OFFCURVE",
"-27 106 CURVE SMOOTH",
"-27 20 OFFCURVE",
"63 -33 OFFCURVE",
"162 -33 CURVE SMOOTH",
"449 -33 OFFCURVE",
"558 593 OFFCURVE",
"556 1191 CURVE SMOOTH",
"556 1434 LINE"
);
},
{
closed = 1;
nodes = (
"495 1352 LINE",
"482 1289 LINE",
"556 1236 LINE",
"561 1305 OFFCURVE",
"600 1353 OFFCURVE",
"694 1353 CURVE"
);
}
);
};
layerId = UUID0;
name = Regular;
paths = (
{
closed = 1;
nodes = (
"275 1434 LINE",
"275 1343 LINE",
"423 1352 LINE",
"1002 1353 LINE",
"1002 319 LINE SMOOTH",
"1002 174 OFFCURVE",
"1014 81 OFFCURVE",
"860 81 CURVE",
"860 0 LINE",
"1321 0 LINE",
"1321 81 LINE",
"1174 81 LINE",
"1178 116 OFFCURVE",
"1180 170 OFFCURVE",
"1180 244 CURVE SMOOTH",
"1180 1114 LINE SMOOTH",
"1180 1260 OFFCURVE",
"1168 1360 OFFCURVE",
"1321 1366 CURVE",
"1321 1434 LINE"
);
},
{
closed = 1;
nodes = (
"55 81 LINE",
"55 -364 LINE",
"140 -364 LINE",
"140 -130 OFFCURVE",
"175 0 OFFCURVE",
"310 0 CURVE SMOOTH",
"1096 0 LINE SMOOTH",
"1231 0 OFFCURVE",
"1266 -130 OFFCURVE",
"1266 -364 CURVE",
"1351 -364 LINE",
"1351 81 LINE"
);
},
{
closed = 1;
nodes = (
"475 1434 LINE",
"463 906 OFFCURVE",
"454 435 OFFCURVE",
"306 200 CURVE SMOOTH",
"258 125 OFFCURVE",
"201 81 OFFCURVE",
"134 81 CURVE",
"180 0 LINE",
"254 0 OFFCURVE",
"318 51 OFFCURVE",
"372 138 CURVE SMOOTH",
"531 395 OFFCURVE",
"556 892 OFFCURVE",
"577 1434 CURVE"
);
},
{
closed = 1;
nodes = (
"507 1353 LINE",
"494 1290 LINE",
"569 1246 LINE",
"571 1310 OFFCURVE",
"610 1353 OFFCURVE",
"706 1353 CURVE"
);
}
);
width = 1416;
},
{
background = {
paths = (
{
closed = 1;
nodes = (
"1216 1121 LINE SMOOTH",
"1216 1286 OFFCURVE",
"1270 1294 OFFCURVE",
"1362 1299 CURVE",
"1362 1434 LINE",
"231 1434 LINE",
"231 1276 LINE",
"466 1282 LINE",
"460 1044 LINE SMOOTH",
"444 394 OFFCURVE",
"289 133 OFFCURVE",
"214 133 CURVE SMOOTH",
"202 133 OFFCURVE",
"190 135 OFFCURVE",
"183 140 CURVE",
"196 155 OFFCURVE",
"201 171 OFFCURVE",
"201 196 CURVE SMOOTH",
"201 270 OFFCURVE",
"159 329 OFFCURVE",
"62 329 CURVE SMOOTH",
"-54 329 OFFCURVE",
"-106 245 OFFCURVE",
"-106 150 CURVE SMOOTH",
"-106 32 OFFCURVE",
"-8 -33 OFFCURVE",
"138 -33 CURVE SMOOTH",
"381 -33 OFFCURVE",
"600 270 OFFCURVE",
"617 1153 CURVE SMOOTH",
"619 1244 OFFCURVE",
"663 1271 OFFCURVE",
"755 1274 CURVE SMOOTH",
"920 1279 LINE",
"920 313 LINE SMOOTH",
"920 148 OFFCURVE",
"866 140 OFFCURVE",
"774 135 CURVE",
"774 0 LINE",
"1362 0 LINE",
"1362 158 LINE",
"1333 157 OFFCURVE",
"1252 155 OFFCURVE",
"1208 152 CURVE",
"1213 187 OFFCURVE",
"1216 262 OFFCURVE",
"1216 336 CURVE SMOOTH"
);
}
);
};
layerId = "4C2B4986-1645-43C1-94B7-5E4C57EFF0D9";
name = Bold;
paths = (
{
closed = 1;
nodes = (
"1252 1121 LINE SMOOTH",
"1252 1286 OFFCURVE",
"1306 1294 OFFCURVE",
"1398 1299 CURVE",
"1398 1434 LINE",
"250 1434 LINE",
"250 1276 LINE",
"462 1282 LINE",
"463 1143 LINE SMOOTH",
"468 507 OFFCURVE",
"331 152 OFFCURVE",
"132 152 CURVE",
"244 17 LINE",
"416 96 OFFCURVE",
"609 422 OFFCURVE",
"618 1153 CURVE SMOOTH",
"619 1249 OFFCURVE",
"665 1272 OFFCURVE",
"756 1274 CURVE SMOOTH",
"956 1279 LINE",
"956 330 LINE SMOOTH",
"956 165 OFFCURVE",
"867 157 OFFCURVE",
"775 152 CURVE",
"775 0 LINE",
"1398 0 LINE",
"1398 158 LINE",
"1369 157 OFFCURVE",
"1288 155 OFFCURVE",
"1244 152 CURVE",
"1249 187 OFFCURVE",
"1252 262 OFFCURVE",
"1252 336 CURVE SMOOTH"
);
},
{
closed = 1;
nodes = (
"1240 152 LINE",
"55 152 LINE",
"55 -364 LINE",
"203 -364 LINE",
"200 -150 OFFCURVE",
"231 0 OFFCURVE",
"338 0 CURVE SMOOTH",
"1177 0 LINE SMOOTH",
"1284 0 OFFCURVE",
"1315 -150 OFFCURVE",
"1312 -364 CURVE",
"1460 -364 LINE",
"1460 160 LINE"
);
}
);
width = 1525;
}
);
unicode = 0414;
userData = {
public.markColor = "0.67,0.95,0.38,1";
};
},
{
color = 4;
glyphname = "Zhe-cy";
lastChange = "2013-05-30 21:56:40 +0400";
layers = (
{
layerId = UUID0;
name = Regular;
paths = (
{
closed = 1;
nodes = (
"1501 596 LINE SMOOTH",
"1450 678 OFFCURVE",
"1408 723 OFFCURVE",
"1331 770 CURVE",
"1517 1090 LINE SMOOTH",
"1649 1318 OFFCURVE",
"1753 1352 OFFCURVE",
"1925 1366 CURVE",
"1925 1434 LINE",
"1485 1434 LINE",
"1485 1350 LINE",
"1610 1354 LINE",
"1553 1309 OFFCURVE",
"1496 1237 OFFCURVE",
"1464 1182 CURVE SMOOTH",
"1228 778 LINE",
"1075 778 LINE",
"1075 1114 LINE SMOOTH",
"1075 1260 OFFCURVE",
"1062 1360 OFFCURVE",
"1216 1366 CURVE",
"1216 1434 LINE",
"755 1434 LINE",
"755 1343 LINE",
"903 1352 LINE",
"898 1311 OFFCURVE",
"896 1260 OFFCURVE",
"896 1204 CURVE SMOOTH",
"896 778 LINE",
"743 778 LINE",
"507 1182 LINE SMOOTH",
"475 1237 OFFCURVE",
"418 1309 OFFCURVE",
"361 1354 CURVE",
"486 1350 LINE",
"486 1434 LINE",
"46 1434 LINE",
"46 1366 LINE",
"218 1352 OFFCURVE",
"322 1318 OFFCURVE",
"454 1090 CURVE SMOOTH",
"640 770 LINE",
"563 723 OFFCURVE",
"520 678 OFFCURVE",
"470 596 CURVE SMOOTH",
"292 305 LINE SMOOTH",
"170 106 OFFCURVE",
"98 68 OFFCURVE",
"10 68 CURVE",
"10 0 LINE",
"230 0 LINE SMOOTH",
"271 0 OFFCURVE",
"362 70 OFFCURVE",
"441 201 CURVE SMOOTH",
"642 532 LINE SMOOTH",
"680 595 OFFCURVE",
"712 649 OFFCURVE",
"774 698 CURVE",
"896 696 LINE",
"896 319 LINE SMOOTH",
"896 174 OFFCURVE",
"909 74 OFFCURVE",
"755 68 CURVE",
"755 0 LINE",
"1216 0 LINE",
"1216 90 LINE",
"1068 82 LINE",
"1073 117 OFFCURVE",
"1075 170 OFFCURVE",
"1075 244 CURVE SMOOTH",
"1075 696 LINE",
"1197 698 LINE",
"1259 649 OFFCURVE",
"1290 595 OFFCURVE",
"1329 532 CURVE SMOOTH",
"1534 201 LINE SMOOTH",
"1615 71 OFFCURVE",
"1710 0 OFFCURVE",
"1751 0 CURVE SMOOTH",
"1961 0 LINE",
"1961 68 LINE",
"1873 68 OFFCURVE",
"1802 106 OFFCURVE",
"1680 305 CURVE SMOOTH"
);
}
);
width = 1971;
},
{
background = {
paths = (
{
closed = 1;
nodes = (
"1575 1434 LINE",
"1575 1276 LINE",
"1604 1277 OFFCURVE",
"1661 1281 OFFCURVE",
"1705 1284 CURVE",
"1705 1282 LINE",
"1669 1255 OFFCURVE",
"1631 1182 OFFCURVE",
"1558 1077 CURVE SMOOTH",
"1372 809 LINE",
"1222 809 LINE",
"1222 645 LINE",
"1297 646 LINE",
"1334 619 OFFCURVE",
"1379 554 OFFCURVE",
"1417 503 CURVE",
"1619 208 LINE SMOOTH",
"1674 128 OFFCURVE",
"1786 2 OFFCURVE",
"1819 0 CURVE",
"2135 0 LINE",
"2135 135 LINE",
"2043 140 OFFCURVE",
"1949 240 OFFCURVE",
"1866 357 CURVE SMOOTH",
"1655 654 LINE SMOOTH",
"1623 699 OFFCURVE",
"1581 739 OFFCURVE",
"1527 772 CURVE",
"1527 775 LINE",
"1753 1089 LINE SMOOTH",
"1879 1263 OFFCURVE",
"1978 1294 OFFCURVE",
"2070 1299 CURVE",
"2070 1434 LINE"
);
},
{
closed = 1;
nodes = (
"60 1299 LINE",
"152 1294 OFFCURVE",
"245 1258 OFFCURVE",
"377 1089 CURVE SMOOTH",
"623 775 LINE",
"623 772 LINE",
"569 739 OFFCURVE",
"527 699 OFFCURVE",
"495 654 CURVE SMOOTH",
"284 357 LINE SMOOTH",
"201 240 OFFCURVE",
"107 140 OFFCURVE",
"15 135 CURVE",
"15 0 LINE",
"331 0 LINE",
"364 2 OFFCURVE",
"476 128 OFFCURVE",
"531 208 CURVE SMOOTH",
"733 503 LINE",
"771 554 OFFCURVE",
"816 619 OFFCURVE",
"853 646 CURVE",
"927 645 LINE",
"927 336 LINE SMOOTH",
"927 262 OFFCURVE",
"930 187 OFFCURVE",
"935 152 CURVE",
"891 155 OFFCURVE",
"810 157 OFFCURVE",
"781 158 CURVE",
"781 0 LINE",
"1369 0 LINE",
"1369 135 LINE",
"1277 140 OFFCURVE",
"1223 148 OFFCURVE",
"1223 313 CURVE SMOOTH",
"1223 1098 LINE SMOOTH",
"1223 1172 OFFCURVE",
"1220 1247 OFFCURVE",
"1215 1282 CURVE",
"1259 1279 OFFCURVE",
"1340 1277 OFFCURVE",
"1369 1276 CURVE",
"1369 1434 LINE",
"781 1434 LINE",
"781 1299 LINE",
"873 1294 OFFCURVE",
"927 1286 OFFCURVE",
"927 1121 CURVE SMOOTH",
"927 809 LINE",
"778 809 LINE",
"572 1077 LINE SMOOTH",
"461 1221 OFFCURVE",
"436 1254 OFFCURVE",
"400 1282 CURVE",
"400 1284 LINE",
"444 1281 OFFCURVE",
"501 1277 OFFCURVE",
"530 1276 CURVE",
"530 1434 LINE",
"60 1434 LINE"
);
}
);
};
layerId = "4C2B4986-1645-43C1-94B7-5E4C57EFF0D9";
name = Bold;
paths = (
{
closed = 1;
nodes = (
"1655 654 LINE SMOOTH",
"1623 699 OFFCURVE",
"1581 739 OFFCURVE",
"1527 772 CURVE",
"1527 775 LINE",
"1773 1089 LINE SMOOTH",
"1905 1258 OFFCURVE",
"1998 1294 OFFCURVE",
"2090 1299 CURVE",
"2090 1434 LINE",
"1623 1434 LINE",
"1623 1276 LINE",
"1652 1277 OFFCURVE",
"1709 1281 OFFCURVE",
"1753 1284 CURVE",
"1753 1282 LINE",
"1717 1254 OFFCURVE",
"1692 1221 OFFCURVE",
"1581 1077 CURVE SMOOTH",
"1375 809 LINE",
"1223 809 LINE",
"1223 1121 LINE SMOOTH",
"1223 1286 OFFCURVE",
"1277 1294 OFFCURVE",
"1369 1299 CURVE",
"1369 1434 LINE",
"781 1434 LINE",
"781 1276 LINE",
"810 1277 OFFCURVE",
"891 1279 OFFCURVE",
"935 1282 CURVE",
"930 1247 OFFCURVE",
"927 1172 OFFCURVE",
"927 1098 CURVE SMOOTH",
"927 809 LINE",
"783 809 LINE",
"577 1077 LINE SMOOTH",
"499 1178 OFFCURVE",
"439 1255 OFFCURVE",
"403 1282 CURVE",
"403 1284 LINE",
"447 1281 OFFCURVE",
"504 1277 OFFCURVE",
"533 1276 CURVE",
"533 1434 LINE",
"60 1434 LINE",
"60 1299 LINE",
"152 1294 OFFCURVE",
"244 1258 OFFCURVE",
"377 1089 CURVE SMOOTH",
"623 775 LINE",
"623 772 LINE",
"569 739 OFFCURVE",
"527 699 OFFCURVE",
"495 654 CURVE SMOOTH",
"284 357 LINE SMOOTH",
"201 240 OFFCURVE",
"107 140 OFFCURVE",
"15 135 CURVE",
"15 0 LINE",
"331 0 LINE",
"364 2 OFFCURVE",
"476 128 OFFCURVE",
"531 208 CURVE SMOOTH",
"733 503 LINE",
"771 554 OFFCURVE",
"816 619 OFFCURVE",
"853 646 CURVE",
"927 646 LINE",
"927 313 LINE SMOOTH",
"927 148 OFFCURVE",
"873 140 OFFCURVE",
"781 135 CURVE",
"781 0 LINE",
"1369 0 LINE",
"1369 158 LINE",
"1340 157 OFFCURVE",
"1259 155 OFFCURVE",
"1215 152 CURVE",
"1220 187 OFFCURVE",
"1223 262 OFFCURVE",
"1223 336 CURVE SMOOTH",
"1223 645 LINE",
"1297 645 LINE",
"1334 619 OFFCURVE",
"1379 554 OFFCURVE",
"1417 503 CURVE",
"1619 208 LINE SMOOTH",
"1674 128 OFFCURVE",
"1786 2 OFFCURVE",
"1819 0 CURVE",
"2135 0 LINE",
"2135 135 LINE",
"2043 140 OFFCURVE",
"1949 240 OFFCURVE",
"1866 357 CURVE SMOOTH"
);
}
);
width = 2150;
}
);
leftMetricsKey = "=|Ka-cy";
rightMetricsKey = "Ka-cy";
unicode = 0416;
userData = {
public.markColor = "0.67,0.95,0.38,1";
};
},
{
color = 4;
glyphname = "Ze-cy";
lastChange = "2013-05-30 21:49:02 +0400";
layers = (
{
background = {
paths = (
{
closed = 1;
nodes = (
"430 807 LINE",
"430 661 LINE",
"689 661 LINE",
"806 661 OFFCURVE",
"923 580 OFFCURVE",
"923 411 CURVE SMOOTH",
"923 216 OFFCURVE",
"761 133 OFFCURVE",
"597 133 CURVE",
"416 133 OFFCURVE",
"229 227 OFFCURVE",
"113 385 CURVE",
"15 295 LINE",
"203 18 OFFCURVE",
"434 -33 OFFCURVE",
"631 -33 CURVE",
"969 -39 OFFCURVE",
"1246 114 OFFCURVE",
"1246 389 CURVE SMOOTH",
"1246 570 OFFCURVE",
"1129 720 OFFCURVE",
"879 760 CURVE",
"879 807 LINE"
);
},
{
closed = 1;
nodes = (
"801 739 LINE",
"1042 790 OFFCURVE",
"1153 933 OFFCURVE",
"1153 1112 CURVE SMOOTH",
"1153 1337 OFFCURVE",
"967 1474 OFFCURVE",
"655 1467 CURVE",
"499 1467 OFFCURVE",
"402 1432 OFFCURVE",
"265 1366 CURVE",
"263 1366 LINE",
"270 1453 LINE",
"112 1453 LINE",
"112 974 LINE",
"246 974 LINE",
"313 1203 OFFCURVE",
"400 1318 OFFCURVE",
"594 1318 CURVE SMOOTH",
"759 1318 OFFCURVE",
"850 1238 OFFCURVE",
"850 1069 CURVE SMOOTH",
"850 927 OFFCURVE",
"785 807 OFFCURVE",
"598 807 CURVE"
);
}
);
};
layerId = UUID0;
name = Regular;
paths = (
{
closed = 1;
nodes = (
"571 702 LINE",
"843 701 OFFCURVE",
"977 617 OFFCURVE",
"977 414 CURVE SMOOTH",
"977 182 OFFCURVE",
"798 73 OFFCURVE",
"596 73 CURVE SMOOTH",
"420 73 OFFCURVE",
"226 155 OFFCURVE",
"114 309 CURVE",
"61 266 LINE",
"207 64 OFFCURVE",
"421 -24 OFFCURVE",
"640 -24 CURVE SMOOTH",
"911 -24 OFFCURVE",
"1175 116 OFFCURVE",
"1175 411 CURVE SMOOTH",
"1175 617 OFFCURVE",
"1014 768 OFFCURVE",
"699 761 CURVE"
);
},
{
closed = 1;
nodes = (
"433 790 LINE",
"433 700 LINE",
"627 702 LINE",
"606 790 LINE"
);
},
{
closed = 1;
nodes = (
"506 1467 OFFCURVE",
"402 1427 OFFCURVE",
"283 1342 CURVE",
"293 1452 LINE",
"182 1452 LINE",
"182 977 LINE",
"256 977 LINE",
"318 1235 OFFCURVE",
"430 1383 OFFCURVE",
"657 1383 CURVE SMOOTH",
"799 1383 OFFCURVE",
"912 1305 OFFCURVE",
"912 1103 CURVE SMOOTH",
"912 941 OFFCURVE",
"832 785 OFFCURVE",
"580 790 CURVE",
"647 703 LINE",
"761 760 LINE",
"761 764 LINE",
"986 805 OFFCURVE",
"1097 954 OFFCURVE",
"1100 1117 CURVE SMOOTH",
"1103 1332 OFFCURVE",
"927 1467 OFFCURVE",
"664 1467 CURVE SMOOTH"
);
}
);
width = 1255;
},
{
background = {
paths = (
{
closed = 1;
nodes = (
"671 702 LINE",
"943 701 OFFCURVE",
"1077 617 OFFCURVE",
"1077 414 CURVE SMOOTH",
"1077 178 OFFCURVE",
"898 74 OFFCURVE",
"681 74 CURVE SMOOTH",
"489 74 OFFCURVE",
"325 156 OFFCURVE",
"214 309 CURVE",
"161 266 LINE",
"337 23 OFFCURVE",
"553 -33 OFFCURVE",
"716 -33 CURVE SMOOTH",
"1006 -33 OFFCURVE",
"1275 144 OFFCURVE",
"1275 411 CURVE SMOOTH",
"1275 617 OFFCURVE",
"1114 768 OFFCURVE",
"799 761 CURVE"
);
},
{
closed = 1;
nodes = (
"533 790 LINE",
"533 700 LINE",
"727 702 LINE",
"706 790 LINE"
);
},
{
closed = 1;
nodes = (
"575 1467 OFFCURVE",
"471 1427 OFFCURVE",
"352 1342 CURVE",
"362 1452 LINE",
"251 1452 LINE",
"251 977 LINE",
"325 977 LINE",
"387 1235 OFFCURVE",
"499 1383 OFFCURVE",
"716 1383 CURVE SMOOTH",
"858 1383 OFFCURVE",
"971 1305 OFFCURVE",
"971 1103 CURVE SMOOTH",
"971 941 OFFCURVE",
"891 785 OFFCURVE",
"639 790 CURVE",
"706 703 LINE",
"820 760 LINE",
"820 767 LINE",
"1045 808 OFFCURVE",
"1156 954 OFFCURVE",
"1159 1117 CURVE SMOOTH",
"1162 1332 OFFCURVE",
"986 1467 OFFCURVE",
"723 1467 CURVE SMOOTH"
);
}
);
};
guideLines = (
{
position = "{612, 661}";
}
);
layerId = "4C2B4986-1645-43C1-94B7-5E4C57EFF0D9";
name = Bold;
paths = (
{
closed = 1;
nodes = (
"480 807 LINE",
"480 661 LINE",
"739 661 LINE",
"856 661 OFFCURVE",
"973 580 OFFCURVE",
"973 411 CURVE SMOOTH",
"973 216 OFFCURVE",
"811 133 OFFCURVE",
"647 133 CURVE",
"466 133 OFFCURVE",
"279 227 OFFCURVE",
"163 385 CURVE",
"65 295 LINE",
"253 18 OFFCURVE",
"484 -33 OFFCURVE",
"681 -33 CURVE",
"1019 -39 OFFCURVE",
"1296 114 OFFCURVE",
"1296 389 CURVE SMOOTH",
"1296 570 OFFCURVE",
"1179 720 OFFCURVE",
"929 760 CURVE",
"929 807 LINE"
);
},
{
closed = 1;
nodes = (
"866 739 LINE",
"1107 790 OFFCURVE",
"1218 933 OFFCURVE",
"1218 1112 CURVE SMOOTH",
"1218 1337 OFFCURVE",
"1032 1474 OFFCURVE",
"720 1467 CURVE",
"560 1467 OFFCURVE",
"461 1432 OFFCURVE",
"320 1366 CURVE",
"318 1366 LINE",
"325 1453 LINE",
"167 1453 LINE",
"167 974 LINE",
"301 974 LINE",
"360 1203 OFFCURVE",
"459 1318 OFFCURVE",
"659 1318 CURVE SMOOTH",
"824 1318 OFFCURVE",
"915 1238 OFFCURVE",
"915 1069 CURVE SMOOTH",
"915 927 OFFCURVE",
"850 807 OFFCURVE",
"663 807 CURVE"
);
}
);
width = 1353;
}
);
rightMetricsKey = B;
unicode = 0417;
userData = {
public.markColor = "0.67,0.95,0.38,1";
};
},
{
color = 4;
glyphname = "Ii-cy";
lastChange = "2013-05-25 14:34:17 +0400";
layers = (
{
layerId = UUID0;
name = Regular;
paths = (
{
closed = 1;
nodes = (
"292 166 LINE",
"357 106 LINE",
"1295 1277 LINE",
"1237 1333 LINE"
);
},
{
closed = 1;
nodes = (
"113 1434 LINE",
"113 1343 LINE",
"261 1352 LINE",
"256 1311 OFFCURVE",
"254 1260 OFFCURVE",
"254 1204 CURVE SMOOTH",
"254 319 LINE SMOOTH",
"254 174 OFFCURVE",
"267 74 OFFCURVE",
"113 68 CURVE",
"113 0 LINE",
"574 0 LINE",
"574 90 LINE",
"426 82 LINE",
"431 117 OFFCURVE",
"433 170 OFFCURVE",
"433 244 CURVE SMOOTH",
"433 1114 LINE SMOOTH",
"433 1260 OFFCURVE",
"420 1360 OFFCURVE",
"574 1366 CURVE",
"574 1434 LINE"
);
},
{
closed = 1;
nodes = (
"1044 1434 LINE",
"1044 1343 LINE",
"1192 1352 LINE",
"1188 1311 OFFCURVE",
"1186 1260 OFFCURVE",
"1186 1204 CURVE SMOOTH",
"1186 319 LINE SMOOTH",
"1186 174 OFFCURVE",
"1198 74 OFFCURVE",
"1044 68 CURVE",
"1044 0 LINE",
"1505 0 LINE",
"1505 90 LINE",
"1358 82 LINE",
"1362 117 OFFCURVE",
"1364 170 OFFCURVE",
"1364 244 CURVE SMOOTH",
"1364 1114 LINE SMOOTH",
"1364 1260 OFFCURVE",
"1352 1360 OFFCURVE",
"1505 1366 CURVE",
"1505 1434 LINE"
);
}
);
width = 1618;
},
{
background = {
paths = (
{
closed = 1;
nodes = (
"72 1299 LINE",
"164 1294 OFFCURVE",
"218 1286 OFFCURVE",
"218 1121 CURVE SMOOTH",
"218 -20 LINE",
"392 -20 LINE",
"1047 817 LINE SMOOTH",
"1082 862 OFFCURVE",
"1121 915 OFFCURVE",
"1159 970 CURVE",
"1161 970 LINE",
"1158 336 LINE SMOOTH",
"1158 262 OFFCURVE",
"1161 187 OFFCURVE",
"1166 152 CURVE",
"1122 155 OFFCURVE",
"1041 157 OFFCURVE",
"1012 158 CURVE",
"1012 0 LINE",
"1479 0 LINE",
"1479 135 LINE",
"1387 140 OFFCURVE",
"1333 148 OFFCURVE",
"1333 313 CURVE SMOOTH",
"1338 1098 LINE SMOOTH",
"1338 1172 OFFCURVE",
"1335 1247 OFFCURVE",
"1330 1282 CURVE",
"1374 1279 OFFCURVE",
"1455 1277 OFFCURVE",
"1484 1276 CURVE",
"1484 1434 LINE",
"1163 1434 LINE",
"537 644 LINE SMOOTH",
"468 556 OFFCURVE",
"426 495 OFFCURVE",
"394 448 CURVE",
"392 448 LINE",
"392 1098 LINE SMOOTH",
"392 1172 OFFCURVE",
"389 1247 OFFCURVE",
"384 1282 CURVE",
"428 1279 OFFCURVE",
"509 1277 OFFCURVE",
"538 1276 CURVE",
"538 1434 LINE",
"72 1434 LINE"
);
}
);
};
layerId = "4C2B4986-1645-43C1-94B7-5E4C57EFF0D9";
name = Bold;
paths = (
{
closed = 1;
nodes = (
"544 1121 LINE SMOOTH",
"544 1286 OFFCURVE",
"598 1294 OFFCURVE",
"690 1299 CURVE",
"690 1434 LINE",
"102 1434 LINE",
"102 1276 LINE",
"131 1277 OFFCURVE",
"212 1279 OFFCURVE",
"256 1282 CURVE",
"251 1247 OFFCURVE",
"248 1172 OFFCURVE",
"248 1098 CURVE SMOOTH",
"248 313 LINE SMOOTH",
"248 148 OFFCURVE",
"194 140 OFFCURVE",
"102 135 CURVE",
"102 0 LINE",
"690 0 LINE",
"690 158 LINE",
"661 157 OFFCURVE",
"580 155 OFFCURVE",
"536 152 CURVE",
"541 187 OFFCURVE",
"544 262 OFFCURVE",
"544 336 CURVE SMOOTH"
);
},
{
closed = 1;
nodes = (
"1133 313 LINE SMOOTH",
"1133 148 OFFCURVE",
"1079 140 OFFCURVE",
"987 135 CURVE",
"987 0 LINE",
"1575 0 LINE",
"1575 158 LINE",
"1546 157 OFFCURVE",
"1465 155 OFFCURVE",
"1421 152 CURVE",
"1426 187 OFFCURVE",
"1429 262 OFFCURVE",
"1429 336 CURVE SMOOTH",
"1429 1121 LINE SMOOTH",
"1429 1286 OFFCURVE",
"1483 1294 OFFCURVE",
"1575 1299 CURVE",
"1575 1434 LINE",
"987 1434 LINE",
"987 1276 LINE",
"1016 1277 OFFCURVE",
"1097 1279 OFFCURVE",
"1141 1282 CURVE",
"1136 1247 OFFCURVE",
"1133 1172 OFFCURVE",
"1133 1098 CURVE SMOOTH"
);
},
{
closed = 1;
nodes = (
"1291 1373 LINE",
"263 164 LINE",
"367 60 LINE",
"1389 1273 LINE"
);
}
);
width = 1652;
}
);
unicode = 0418;
userData = {
public.markColor = "0.67,0.95,0.38,1";
};
},
{
color = 4;
glyphname = "Iishort-cy";
lastChange = "2013-05-26 12:38:45 +0400";
layers = (
{
background = {
paths = (
{
closed = 1;
nodes = (
"980 1678 OFFCURVE",
"931 1622 OFFCURVE",
"819 1622 CURVE SMOOTH",
"707 1622 OFFCURVE",
"658 1678 OFFCURVE",
"578 1790 CURVE",
"452 1702 LINE",
"526 1576 OFFCURVE",
"678 1537 OFFCURVE",
"819 1537 CURVE SMOOTH",
"960 1537 OFFCURVE",
"1112 1576 OFFCURVE",
"1186 1702 CURVE",
"1060 1790 LINE"
);
}
);
};
components = (
{
name = "Ii-cy";
transform = "{1, 0, 0, 1, 0, 0}";
}
);
layerId = UUID0;
name = Regular;
paths = (
{
closed = 1;
nodes = (
"971 1839 OFFCURVE",
"951 1777 OFFCURVE",
"951 1746 CURVE SMOOTH",
"951 1720 OFFCURVE",
"958 1688 OFFCURVE",
"973 1663 CURVE",
"935 1624 OFFCURVE",
"890 1612 OFFCURVE",
"819 1612 CURVE SMOOTH",
"748 1612 OFFCURVE",
"703 1624 OFFCURVE",
"665 1663 CURVE",
"680 1688 OFFCURVE",
"687 1720 OFFCURVE",
"687 1746 CURVE SMOOTH",
"687 1777 OFFCURVE",
"667 1839 OFFCURVE",
"592 1837 CURVE SMOOTH",
"536 1836 OFFCURVE",
"503 1786 OFFCURVE",
"503 1732 CURVE SMOOTH",
"503 1612 OFFCURVE",
"646 1537 OFFCURVE",
"819 1537 CURVE SMOOTH",
"992 1537 OFFCURVE",
"1135 1612 OFFCURVE",
"1135 1732 CURVE SMOOTH",
"1135 1786 OFFCURVE",
"1102 1836 OFFCURVE",
"1046 1837 CURVE SMOOTH"
);
}
);
width = 1618;
},
{
background = {
paths = (
{
closed = 1;
nodes = (
"973 1734 OFFCURVE",
"934 1682 OFFCURVE",
"829 1682 CURVE",
"724 1682 OFFCURVE",
"685 1734 OFFCURVE",
"595 1861 CURVE",
"432 1747 LINE",
"505 1603 OFFCURVE",
"679 1557 OFFCURVE",
"829 1557 CURVE",
"979 1557 OFFCURVE",
"1153 1603 OFFCURVE",
"1226 1747 CURVE",
"1063 1861 LINE"
);
}
);
};
components = (
{
name = "Ii-cy";
transform = "{1, 0, 0, 1, 0, 0}";
}
);
layerId = "4C2B4986-1645-43C1-94B7-5E4C57EFF0D9";
name = Bold;
paths = (
{
closed = 1;
nodes = (
"1021 1900 OFFCURVE",
"996 1813 OFFCURVE",
"996 1781 CURVE SMOOTH",
"996 1757 OFFCURVE",
"1002 1728 OFFCURVE",
"1016 1700 CURVE",
"976 1673 OFFCURVE",
"912 1659 OFFCURVE",
"849 1659 CURVE SMOOTH",
"786 1659 OFFCURVE",
"723 1673 OFFCURVE",
"682 1700 CURVE",
"696 1728 OFFCURVE",
"702 1757 OFFCURVE",
"702 1781 CURVE SMOOTH",
"702 1813 OFFCURVE",
"677 1900 OFFCURVE",
"581 1897 CURVE SMOOTH",
"502 1896 OFFCURVE",
"468 1833 OFFCURVE",
"468 1767 CURVE SMOOTH",
"468 1629 OFFCURVE",
"646 1557 OFFCURVE",
"849 1557 CURVE SMOOTH",
"1052 1557 OFFCURVE",
"1230 1629 OFFCURVE",
"1230 1767 CURVE SMOOTH",
"1230 1833 OFFCURVE",
"1196 1896 OFFCURVE",
"1117 1897 CURVE SMOOTH"
);
}
);
width = 1652;
}
);
unicode = 0419;
},
